<svg width="578" height="578" viewBox="0 0 578 578" fill="none" xmlns="http://www.w3.org/2000/svg">
<path d="M0 442.054H578V442.343H0V442.054Z" fill="#E0E0E0"/>
<path d="M141.425 454.296H181.191V454.585H141.425V454.296Z" fill="#E0E0E0"/>
<path d="M449.638 454.435H472.018V454.724H449.638V454.435Z" fill="#E0E0E0"/>
<path d="M287.844 453.765H333.205V454.054H287.844V453.765Z" fill="#E0E0E0"/>
<path d="M334.361 449.649H354.638V449.938H334.361V449.649Z" fill="#E0E0E0"/>
<path d="M87.2087 449.8H148.465V450.089H87.2087V449.8Z" fill="#E0E0E0"/>
<path d="M304.028 390.497H527.24C528.989 390.494 530.665 389.797 531.9 388.559C533.135 387.322 533.829 385.645 533.829 383.896V70.1229C533.814 68.3843 533.113 66.7219 531.88 65.4969C530.646 64.2718 528.979 63.5829 527.24 63.58H304.028C302.277 63.58 300.598 64.2754 299.361 65.5133C298.123 66.7512 297.427 68.4301 297.427 70.1807V383.896C297.427 385.647 298.123 387.326 299.361 388.563C300.598 389.801 302.277 390.497 304.028 390.497V390.497ZM527.24 63.8112C528.912 63.8142 530.514 64.4806 531.696 65.6639C532.877 66.8473 533.54 68.4509 533.54 70.1229V383.896C533.54 385.568 532.877 387.172 531.696 388.355C530.514 389.538 528.912 390.205 527.24 390.208H304.028C302.355 390.205 300.751 389.539 299.568 388.356C298.385 387.173 297.719 385.569 297.716 383.896V70.1229C297.719 68.4499 298.385 66.8462 299.568 65.6632C300.751 64.4802 302.355 63.8142 304.028 63.8112H527.24Z" fill="#E0E0E0"/>
<path d="M53.9736 390.497H277.197C278.947 390.494 280.624 389.797 281.861 388.56C283.098 387.323 283.795 385.646 283.798 383.896V70.1229C283.78 68.3833 283.077 66.7209 281.841 65.4961C280.605 64.2714 278.937 63.5829 277.197 63.58H53.9736C52.237 63.586 50.5726 64.2762 49.3414 65.5009C48.1101 66.7257 47.4112 68.3863 47.396 70.1229V383.896C47.396 385.643 48.0882 387.318 49.3211 388.555C50.554 389.792 52.227 390.491 53.9736 390.497V390.497ZM277.197 63.8112C278.87 63.8142 280.474 64.4802 281.657 65.6632C282.84 66.8462 283.506 68.4499 283.509 70.1229V383.896C283.506 385.569 282.84 387.173 281.657 388.356C280.474 389.539 278.87 390.205 277.197 390.208H53.9736C52.3006 390.205 50.6969 389.539 49.5139 388.356C48.3309 387.173 47.6649 385.569 47.6619 383.896V70.1229C47.6649 68.4499 48.3309 66.8462 49.5139 65.6632C50.6969 64.4802 52.3006 63.8142 53.9736 63.8112H277.197Z" fill="#E0E0E0"/>
<path d="M70.1576 297.358C84.3764 275.706 71.3946 252.436 73.5563 228.345C75.718 204.254 98.6068 199.005 94.2718 178.637C89.2547 154.962 102.63 132.246 117.785 132.246C132.94 132.246 146.303 154.904 141.286 178.602C136.951 199.005 159.782 204.265 162.002 228.31C164.221 252.355 151.182 275.706 165.412 297.323C179.642 318.94 175.897 347.644 167.886 361.874C165.755 365.65 163.186 369.162 160.233 372.336C154.804 378.164 148.233 382.813 140.929 385.991C133.625 389.169 125.745 390.809 117.779 390.809C109.814 390.809 101.933 389.169 94.6295 385.991C87.3256 382.813 80.7543 378.164 75.325 372.336C72.3792 369.158 69.8148 365.647 67.6838 361.874C59.6611 347.679 55.9273 319.056 70.1576 297.358Z" fill="#E0E0E0"/>
<path d="M117.785 313.785C116.841 313.785 115.906 313.971 115.033 314.332C114.161 314.693 113.368 315.223 112.7 315.891C112.033 316.558 111.503 317.351 111.142 318.223C110.78 319.096 110.594 320.031 110.594 320.975V442.054H124.975V320.975C124.975 320.031 124.789 319.096 124.428 318.223C124.066 317.351 123.537 316.558 122.869 315.891C122.201 315.223 121.409 314.693 120.536 314.332C119.664 313.971 118.729 313.785 117.785 313.785V313.785Z" fill="#F0F0F0"/>
<path d="M208.184 442.054H227.732V320.986C227.726 318.391 226.692 315.905 224.857 314.07C223.023 312.235 220.536 311.201 217.941 311.195V311.195C215.346 311.201 212.859 312.235 211.024 314.07C209.189 315.905 208.155 318.391 208.149 320.986L208.184 442.054Z" fill="#E0E0E0"/>
<path d="M217.975 409.397C184.668 409.397 157.667 382.396 157.667 349.089C157.667 315.781 184.668 288.78 217.975 288.78C251.283 288.78 278.284 315.781 278.284 349.089C278.284 382.396 251.283 409.397 217.975 409.397Z" fill="#F0F0F0"/>
<path d="M147.108 330.992C143.944 318.253 151.706 305.36 164.445 302.196C177.184 299.031 190.077 306.793 193.241 319.533C196.406 332.272 188.644 345.164 175.904 348.329C163.165 351.493 150.273 343.731 147.108 330.992Z" fill="#F0F0F0"/>
<path d="M252.874 313.449C251.625 305.78 256.829 298.551 264.498 297.302C272.167 296.053 279.396 301.257 280.645 308.926C281.894 316.595 276.689 323.824 269.021 325.073C261.352 326.322 254.123 321.118 252.874 313.449Z" fill="#F0F0F0"/>
<path d="M251.453 313.785C246.001 313.785 241.581 309.365 241.581 303.912C241.581 298.46 246.001 294.04 251.453 294.04C256.905 294.04 261.325 298.46 261.325 303.912C261.325 309.365 256.905 313.785 251.453 313.785Z" fill="#F0F0F0"/>
<path d="M342.176 369.793C351.554 371.189 360.516 374.609 368.44 379.815C368.51 370.66 370.186 361.978 374.486 354.961C381.029 361.331 386.335 369.585 390.67 378.463C392.254 361.828 396.635 345.644 406.334 335.39C420.865 344.534 428.356 359.77 431.916 375.908C437.798 365.027 446.336 355.809 456.736 349.112C465.625 358.475 468.469 371.423 468.226 384.694C478.33 372.925 489.543 363.747 500.479 362.672C503.172 381.272 497.438 398.82 490.144 412.692C485.408 421.592 478.333 429.031 469.682 434.207C461.03 439.384 451.13 442.101 441.049 442.066H393.549C373.307 442.066 354.326 431.269 344.835 413.385C338.835 402.057 335.968 387.48 342.176 369.793Z" fill="#E0E0E0"/>
<path d="M355.747 129.634C349.887 112.444 354.591 100.202 368.891 100.202C377.885 100.202 389.04 105.023 399.907 112.86C401.132 108.387 404.588 105.716 410.149 105.716C419.94 105.716 433.431 113.993 444.008 125.669C446.986 122.839 450.929 121.248 455.036 121.218C464.411 120.686 475.752 125.449 485.613 133.183C486.107 132.491 486.759 131.928 487.515 131.54C488.271 131.152 489.109 130.95 489.959 130.952C495.358 130.651 502.675 135.46 506.293 141.679C506.513 142.061 506.71 142.442 506.918 142.835H352.904C352.441 137.402 353.401 132.871 355.747 129.634Z" fill="#F0F0F0"/>
<path d="M355.273 234.009C352.407 225.616 354.684 219.64 361.689 219.64C366.094 219.64 371.538 221.952 376.844 225.824C377.13 224.746 377.791 223.804 378.708 223.169C379.626 222.533 380.74 222.245 381.85 222.356C386.624 222.356 393.213 226.402 398.392 232.113C399.844 230.726 401.772 229.949 403.779 229.94C408.403 229.674 413.894 231.998 418.715 235.778C418.948 235.443 419.258 235.169 419.617 234.976C419.976 234.783 420.376 234.678 420.784 234.668C423.42 234.518 426.992 236.864 428.76 239.905L429.073 240.459H353.84C353.526 238.207 354.035 235.916 355.273 234.009V234.009Z" fill="#F0F0F0"/>
<path d="M181.758 170.498C182.351 170.415 182.95 170.373 183.55 170.371C182.995 161.99 186.197 156.626 193.052 156.626C197.988 156.626 204.057 159.424 210.23 164.152C208.461 147.875 214.126 137.298 226.957 137.298C237.292 137.298 250.39 144.234 263.325 155.401C264.481 149.02 268.273 145.182 274.677 145.182C285.925 145.182 301.912 157.019 314.733 173.712C316.193 171.787 318.067 170.214 320.215 169.108C322.364 168.002 324.733 167.39 327.148 167.319C337.853 166.568 351.158 173.365 362.984 184.44C363.414 183.506 364.099 182.712 364.96 182.15C365.821 181.588 366.823 181.279 367.851 181.261C373.712 180.845 381.723 186.96 386.474 195.133H172.336C167.308 182.74 171.308 171.897 181.758 170.498Z" fill="#F0F0F0"/>
<path d="M289 494.259C165.213 494.259 64.8631 488.4 64.8631 481.173C64.8631 473.946 165.213 468.087 289 468.087C412.787 468.087 513.137 473.946 513.137 481.173C513.137 488.4 412.787 494.259 289 494.259Z" fill="#F5F5F5"/>
<path d="M521.518 174.047L257.985 211.987L222.622 247.673L521.518 174.047Z" fill="white"/>
<path opacity="0.6" d="M521.518 174.047L257.985 211.987L222.622 247.673L521.518 174.047Z" fill="white"/>
<path d="M521.518 174.047L257.985 211.987L270.215 263.591L521.518 174.047Z" fill="white"/>
<path opacity="0.2" d="M521.518 174.047L257.985 211.987L270.215 263.591L521.518 174.047Z" fill="black"/>
<path d="M275.625 114.305L260.331 185.977C259.933 187.849 260.294 189.802 261.334 191.408C262.375 193.014 264.009 194.141 265.88 194.543L402.38 223.675C404.252 224.069 406.203 223.707 407.808 222.667C409.413 221.628 410.542 219.995 410.946 218.126L426.252 146.454C426.646 144.581 426.283 142.628 425.24 141.023C424.198 139.417 422.563 138.29 420.691 137.888L284.191 108.757C282.318 108.362 280.365 108.726 278.76 109.768C277.154 110.81 276.027 112.446 275.625 114.317V114.305Z" fill="white"/>
<path opacity="0.4" d="M275.625 114.305L260.331 185.977C259.933 187.849 260.294 189.802 261.334 191.408C262.375 193.014 264.009 194.141 265.88 194.543L402.38 223.675C404.252 224.069 406.203 223.707 407.808 222.667C409.413 221.628 410.542 219.995 410.946 218.126L426.252 146.454C426.646 144.581 426.283 142.628 425.24 141.023C424.198 139.417 422.563 138.29 420.691 137.888L284.191 108.757C282.318 108.362 280.365 108.726 278.76 109.768C277.154 110.81 276.027 112.446 275.625 114.317V114.305Z" fill="black"/>
<path d="M278.989 109.612L324.593 165.597C328.823 170.788 334.697 174.379 341.245 175.777C347.793 177.175 354.622 176.295 360.603 173.284L425.096 140.801C424.052 139.302 422.478 138.256 420.691 137.876L284.191 108.745C282.41 108.366 280.551 108.676 278.989 109.612V109.612Z" fill="white"/>
<path d="M521.518 174.047L304.155 225.709L270.215 263.591L521.518 174.047Z" fill="white"/>
<path opacity="0.6" d="M521.518 174.047L304.155 225.709L270.215 263.591L521.518 174.047Z" fill="white"/>
<path d="M442.229 223.842L442.813 224.84L418.624 239.009L418.04 238.011L442.229 223.842Z" fill="white"/>
<path d="M407.361 244.258L407.945 245.255L399.247 250.35L398.663 249.353L407.361 244.258Z" fill="white"/>
<path d="M521.518 174.047L304.155 225.709L346.407 276.631L521.518 174.047Z" fill="white"/>
<path d="M230.784 295.081C231.077 295.081 231.367 295.026 231.639 294.919L267.036 280.908C267.602 280.68 268.055 280.237 268.296 279.676C268.537 279.115 268.547 278.482 268.322 277.914C268.098 277.346 267.658 276.89 267.099 276.645C266.539 276.401 265.906 276.387 265.337 276.608L229.928 290.618C229.427 290.816 229.011 291.183 228.752 291.655C228.493 292.127 228.406 292.675 228.508 293.204C228.609 293.733 228.892 294.21 229.307 294.552C229.723 294.895 230.245 295.082 230.784 295.081V295.081Z" fill="white"/>
<path opacity="0.3" d="M230.784 295.081C231.077 295.081 231.367 295.026 231.639 294.919L267.036 280.908C267.602 280.68 268.055 280.237 268.296 279.676C268.537 279.115 268.547 278.482 268.322 277.914C268.098 277.346 267.658 276.89 267.099 276.645C266.539 276.401 265.906 276.387 265.337 276.608L229.928 290.618C229.427 290.816 229.011 291.183 228.752 291.655C228.493 292.127 228.406 292.675 228.508 293.204C228.609 293.733 228.892 294.21 229.307 294.552C229.723 294.895 230.245 295.082 230.784 295.081V295.081Z" fill="black"/>
<path d="M232.876 274.781C233.166 274.78 233.453 274.721 233.72 274.608L252.736 267.036C253.021 266.926 253.28 266.761 253.5 266.55C253.721 266.339 253.897 266.086 254.019 265.807C254.141 265.528 254.207 265.227 254.213 264.922C254.218 264.617 254.163 264.314 254.051 264.031C253.939 263.747 253.772 263.489 253.56 263.27C253.347 263.051 253.094 262.876 252.813 262.756C252.533 262.636 252.232 262.572 251.927 262.569C251.622 262.565 251.32 262.622 251.037 262.736L232.021 270.273C231.451 270.497 230.993 270.938 230.748 271.5C230.504 272.061 230.491 272.697 230.715 273.267C230.877 273.71 231.172 274.092 231.558 274.363C231.944 274.634 232.404 274.78 232.876 274.781Z" fill="white"/>
<path opacity="0.5" d="M232.876 274.781C233.166 274.78 233.453 274.721 233.72 274.608L252.736 267.036C253.021 266.926 253.28 266.761 253.5 266.55C253.721 266.339 253.897 266.086 254.019 265.807C254.141 265.528 254.207 265.227 254.213 264.922C254.218 264.617 254.163 264.314 254.051 264.031C253.939 263.747 253.772 263.489 253.56 263.27C253.347 263.051 253.094 262.876 252.813 262.756C252.533 262.636 252.232 262.572 251.927 262.569C251.622 262.565 251.32 262.622 251.037 262.736L232.021 270.273C231.451 270.497 230.993 270.938 230.748 271.5C230.504 272.061 230.491 272.697 230.715 273.267C230.877 273.71 231.172 274.092 231.558 274.363C231.944 274.634 232.404 274.78 232.876 274.781Z" fill="white"/>
<path d="M272.631 294.78C272.92 294.777 273.205 294.722 273.475 294.618L308.005 280.908C308.289 280.798 308.549 280.632 308.769 280.422C308.989 280.211 309.165 279.958 309.287 279.679C309.41 279.399 309.475 279.099 309.481 278.794C309.486 278.489 309.431 278.186 309.319 277.902C309.207 277.619 309.04 277.36 308.828 277.142C308.616 276.923 308.362 276.748 308.082 276.628C307.802 276.508 307.5 276.444 307.196 276.44C306.891 276.437 306.588 276.494 306.305 276.608L271.776 290.272C271.275 290.47 270.859 290.836 270.599 291.308C270.34 291.78 270.253 292.328 270.355 292.857C270.456 293.386 270.739 293.863 271.155 294.206C271.57 294.548 272.092 294.735 272.631 294.734V294.78Z" fill="white"/>
<path opacity="0.3" d="M272.631 294.78C272.92 294.777 273.205 294.722 273.475 294.618L308.005 280.908C308.289 280.798 308.549 280.632 308.769 280.422C308.989 280.211 309.165 279.958 309.287 279.679C309.41 279.399 309.475 279.099 309.481 278.794C309.486 278.489 309.431 278.186 309.319 277.902C309.207 277.619 309.04 277.36 308.828 277.142C308.616 276.923 308.362 276.748 308.082 276.628C307.802 276.508 307.5 276.444 307.196 276.44C306.891 276.437 306.588 276.494 306.305 276.608L271.776 290.272C271.275 290.47 270.859 290.836 270.599 291.308C270.34 291.78 270.253 292.328 270.355 292.857C270.456 293.386 270.739 293.863 271.155 294.206C271.57 294.548 272.092 294.735 272.631 294.734V294.78Z" fill="black"/>
<path d="M147.621 190.532C144.558 196.509 141.749 202.497 139.078 208.623C136.408 214.75 133.923 220.958 131.749 227.466L130.963 229.928C130.825 230.368 130.628 231.084 130.512 231.593C130.397 232.102 130.293 232.68 130.235 233.165C129.97 235.03 129.835 236.911 129.83 238.795C129.813 242.269 129.975 245.742 130.316 249.199C130.962 255.892 132.012 262.539 133.46 269.105L139.807 268.4C139.888 261.892 139.945 255.314 140.177 248.898C140.281 245.708 140.466 242.506 140.789 239.5C140.936 238.089 141.168 236.687 141.483 235.304C141.541 234.98 141.633 234.737 141.703 234.472C141.772 234.206 141.841 234.113 141.957 233.766L142.835 231.582C145.251 225.732 147.968 219.837 150.742 213.964L159.135 196.347L147.621 190.532Z" fill="#E4897B"/>
<path d="M139.714 266.366L142.674 271.903L133.217 274.539C133.217 274.539 131.414 270.088 133.564 266.574L139.714 266.366Z" fill="#E4897B"/>
<path d="M146.292 279.879L137.599 280.573L133.218 274.539L142.674 271.903L146.292 279.879Z" fill="#E4897B"/>
<path d="M187.422 150.581C187.55 151.263 188.023 151.737 188.463 151.644C188.902 151.552 189.145 150.939 189.006 150.269C188.867 149.598 188.405 149.113 187.966 149.205C187.526 149.298 187.272 149.91 187.422 150.581Z" fill="#263238"/>
<path d="M187.954 151.737C189.175 153.628 190.649 155.343 192.335 156.835C191.942 157.253 191.462 157.582 190.929 157.797C190.396 158.013 189.823 158.11 189.249 158.083L187.954 151.737Z" fill="#DE5753"/>
<path d="M184.209 147.356C184.318 147.353 184.422 147.307 184.498 147.228C184.83 146.849 185.247 146.552 185.715 146.363C186.183 146.175 186.688 146.099 187.191 146.142C187.287 146.143 187.38 146.11 187.454 146.048C187.527 145.987 187.577 145.902 187.594 145.807C187.61 145.713 187.593 145.616 187.545 145.533C187.496 145.45 187.42 145.388 187.33 145.356C186.687 145.274 186.034 145.353 185.429 145.585C184.824 145.817 184.286 146.195 183.862 146.685C183.788 146.761 183.746 146.862 183.746 146.968C183.746 147.074 183.788 147.176 183.862 147.251C183.908 147.294 183.963 147.325 184.023 147.343C184.083 147.361 184.147 147.365 184.209 147.356Z" fill="#263238"/>
<path d="M168.302 160.025C169.516 166.244 170.73 177.619 166.383 181.77C166.383 181.77 168.082 188.07 179.631 188.07C192.347 188.07 185.688 181.77 185.688 181.77C178.752 180.116 178.949 174.972 180.151 170.152L168.302 160.025Z" fill="#E4897B"/>
<path d="M164.638 185.688C163.724 182.648 162.719 179.169 164.799 178.07C167.111 176.914 179.677 175.643 184.012 177.897C188.347 180.151 187.11 186.336 187.11 186.336L164.638 185.688Z" fill="#263238"/>
<path d="M137.98 473.96C138.339 474.008 138.704 473.983 139.054 473.888C139.403 473.793 139.73 473.629 140.015 473.405C140.115 473.266 140.17 473.098 140.17 472.926C140.17 472.753 140.115 472.586 140.015 472.446C139.949 472.326 139.858 472.222 139.748 472.14C139.638 472.058 139.513 472.001 139.379 471.972C138.13 471.694 135.795 473.29 135.691 473.359C135.661 473.384 135.638 473.416 135.624 473.453C135.61 473.489 135.605 473.528 135.61 473.567C135.617 473.605 135.635 473.639 135.662 473.666C135.689 473.693 135.723 473.711 135.761 473.717C136.49 473.875 137.234 473.956 137.98 473.96V473.96ZM139.044 472.342H139.286C139.365 472.358 139.439 472.391 139.502 472.439C139.566 472.487 139.619 472.549 139.656 472.619C139.841 472.943 139.726 473.082 139.656 473.128C139.298 473.613 137.564 473.613 136.292 473.405C137.121 472.858 138.061 472.503 139.044 472.365V472.342Z" fill="white"/>
<path d="M135.807 473.752H135.899C136.778 473.267 138.477 471.44 138.304 470.469C138.274 470.319 138.194 470.184 138.076 470.087C137.957 469.99 137.809 469.937 137.657 469.937C137.504 469.921 137.35 469.935 137.203 469.979C137.056 470.022 136.92 470.095 136.801 470.192C135.818 471.001 135.645 473.452 135.645 473.556C135.64 473.592 135.647 473.629 135.663 473.662C135.68 473.695 135.705 473.722 135.738 473.741C135.76 473.749 135.783 473.753 135.807 473.752ZM137.518 470.284H137.564C137.83 470.284 137.853 470.446 137.865 470.492C137.969 471.059 136.882 472.457 136.015 473.116C136.073 472.151 136.42 471.225 137.009 470.458C137.087 470.397 137.176 470.352 137.271 470.326C137.367 470.3 137.466 470.294 137.564 470.307L137.518 470.284Z" fill="white"/>
<path d="M188.971 473.96C190.058 473.96 191.11 473.81 191.468 473.324C191.559 473.196 191.607 473.042 191.607 472.885C191.607 472.728 191.559 472.574 191.468 472.446C191.398 472.327 191.305 472.224 191.193 472.142C191.082 472.061 190.955 472.003 190.821 471.972C189.422 471.59 186.44 473.278 186.313 473.347C186.279 473.369 186.252 473.401 186.235 473.438C186.219 473.475 186.214 473.516 186.22 473.556C186.227 473.596 186.246 473.633 186.275 473.662C186.304 473.692 186.341 473.711 186.382 473.717C187.236 473.878 188.103 473.959 188.971 473.96V473.96ZM190.324 472.319C190.45 472.3 190.579 472.3 190.705 472.319C190.787 472.335 190.864 472.368 190.931 472.415C190.999 472.463 191.056 472.525 191.098 472.596C191.249 472.85 191.191 472.966 191.098 473.035C190.717 473.567 188.567 473.602 186.971 473.382C188.011 472.821 189.15 472.468 190.324 472.342V472.319Z" fill="white"/>
<path d="M186.405 473.752H186.486C187.515 473.301 189.538 471.44 189.388 470.504C189.388 470.272 189.191 469.995 188.636 469.937C188.43 469.906 188.219 469.921 188.019 469.981C187.819 470.041 187.635 470.144 187.48 470.284C186.393 471.163 186.174 473.451 186.162 473.555C186.158 473.591 186.163 473.627 186.177 473.659C186.191 473.692 186.214 473.72 186.243 473.74C186.268 473.754 186.295 473.762 186.323 473.764C186.351 473.766 186.379 473.762 186.405 473.752V473.752ZM188.474 470.284H188.601C188.96 470.284 188.983 470.469 188.994 470.515C189.087 471.093 187.7 472.538 186.682 473.162C186.782 472.191 187.187 471.277 187.838 470.55C188.003 470.407 188.21 470.322 188.428 470.307L188.474 470.284Z" fill="white"/>
<path d="M177.065 473.544H185.561L186.405 453.88H177.908L177.065 473.544Z" fill="#E4897B"/>
<path d="M126.073 473.544H134.57L138.836 453.88H130.351L126.073 473.544Z" fill="#E4897B"/>
<path d="M135.171 472.561H125.634C125.464 472.563 125.299 472.622 125.167 472.729C125.035 472.836 124.942 472.985 124.906 473.151L123.23 480.7C123.191 480.883 123.195 481.073 123.24 481.256C123.286 481.438 123.372 481.607 123.492 481.752C123.612 481.896 123.763 482.012 123.933 482.09C124.104 482.168 124.29 482.206 124.478 482.202C127.807 482.145 129.426 481.948 133.622 481.948C136.2 481.948 141.518 482.225 145.09 482.225C148.662 482.225 149.112 478.757 147.656 478.376C141.113 476.943 138.651 474.966 136.558 473.093C136.178 472.749 135.684 472.56 135.171 472.561V472.561Z" fill="#263238"/>
<path d="M185.503 472.561H176.255C176.085 472.563 175.92 472.622 175.788 472.729C175.656 472.836 175.564 472.985 175.527 473.151L173.851 480.699C173.811 480.882 173.812 481.07 173.856 481.252C173.899 481.433 173.982 481.603 174.1 481.747C174.218 481.892 174.367 482.008 174.536 482.087C174.705 482.165 174.89 482.205 175.076 482.202C178.417 482.145 183.249 481.948 187.457 481.948C192.37 481.948 196.624 482.225 202.393 482.225C205.861 482.225 206.843 478.757 205.387 478.376C198.74 476.919 193.318 476.769 187.573 473.232C186.961 472.816 186.243 472.583 185.503 472.561V472.561Z" fill="#263238"/>
<path d="M189.584 196.682C196.685 196.132 203.751 195.194 210.75 193.873C214.218 193.202 217.756 192.451 221.27 191.503C224.872 190.581 228.409 189.423 231.859 188.035C232.749 187.665 233.651 187.261 234.541 186.879C235.543 186.385 236.509 185.821 237.431 185.191C239.096 184.093 240.529 182.949 241.951 181.816C244.783 179.504 247.407 177.192 250.043 174.822C255.21 170.036 260.112 165.088 264.84 159.886L260.586 155.135L243.812 167.192C241.049 169.181 238.252 171.134 235.5 172.972C234.136 173.886 232.738 174.741 231.454 175.469C230.918 175.775 230.362 176.046 229.79 176.279C229.108 176.544 228.414 176.81 227.686 177.065C221.438 178.988 215.049 180.419 208.577 181.342C201.976 182.382 195.156 183.238 188.567 183.931L189.584 196.682Z" fill="#E4897B"/>
<path d="M151.182 183.688C143.217 185.515 135.171 208.785 135.171 208.785L151.552 220.542C151.552 220.542 156.176 209.698 160.638 200.219C165.308 190.289 159.32 181.827 151.182 183.688Z" fill="white"/>
<path opacity="0.4" d="M151.182 183.688C143.217 185.515 135.171 208.785 135.171 208.785L151.552 220.542C151.552 220.542 156.176 209.698 160.638 200.219C165.308 190.289 159.32 181.827 151.182 183.688Z" fill="black"/>
<path d="M155.771 196.405L159.019 203.676C155.655 210.935 152.58 218.126 151.76 220.045C151.875 211.456 153.505 200.797 155.771 196.405Z" fill="white"/>
<path opacity="0.6" d="M155.771 196.405L159.019 203.676C155.655 210.935 152.58 218.126 151.76 220.045C151.875 211.456 153.505 200.797 155.771 196.405Z" fill="black"/>
<path d="M198.751 184.128C198.751 184.128 207.791 194.335 199.26 257.534H153.841C153.517 250.598 157.898 216.542 151.182 183.689C156.202 182.722 161.28 182.081 166.383 181.77C172.813 181.399 179.259 181.399 185.688 181.77C190.097 182.214 194.465 183.002 198.751 184.128V184.128Z" fill="white"/>
<path opacity="0.4" d="M198.751 184.128C198.751 184.128 207.791 194.335 199.26 257.534H153.841C153.517 250.598 157.898 216.542 151.182 183.689C156.202 182.722 161.28 182.081 166.383 181.77C172.813 181.399 179.259 181.399 185.688 181.77C190.097 182.214 194.465 183.002 198.751 184.128V184.128Z" fill="black"/>
<path d="M202.115 196.405C202.416 198.797 202.647 201.63 202.797 204.971C198.312 203.624 194.05 201.622 190.15 199.029L202.115 196.405Z" fill="white"/>
<path opacity="0.6" d="M202.115 196.405C202.416 198.797 202.647 201.63 202.797 204.971C198.312 203.624 194.05 201.622 190.15 199.029L202.115 196.405Z" fill="black"/>
<path d="M182.648 197.676C188.729 203.063 211.941 202.52 211.941 202.52L212.704 180.047C204.865 181.164 196.959 181.735 189.041 181.758C176.105 181.492 176.013 191.734 182.648 197.676Z" fill="white"/>
<path opacity="0.4" d="M182.648 197.676C188.729 203.063 211.941 202.52 211.941 202.52L212.704 180.047C204.865 181.164 196.959 181.735 189.041 181.758C176.105 181.492 176.013 191.734 182.648 197.676Z" fill="black"/>
<path d="M260.366 155.182L266.146 148.373L272.377 155.309C272.377 155.309 268.539 161.759 262.447 160.742L260.366 155.182Z" fill="#E4897B"/>
<path d="M274.423 140.431L276.666 149.321L272.423 155.262L266.192 148.373L274.423 140.431Z" fill="#E4897B"/>
<path d="M186.405 453.892L185.966 464.019H177.469L177.908 453.892H186.405Z" fill="#CE6F64"/>
<path d="M130.339 453.892H138.836L136.639 464.019H128.143L130.339 453.892Z" fill="#CE6F64"/>
<path d="M181.296 142.188C188.914 138.72 191.318 123.311 169.4 127.16C169.4 127.16 172.706 130.813 166.002 133.125C159.297 135.437 164.903 149.714 181.296 142.188Z" fill="#263238"/>
<path d="M164.742 153.748C166.926 161.84 167.782 166.765 172.834 170.152C180.394 175.238 189.792 169.4 190.093 160.765C190.359 153.008 186.74 140.997 178.013 139.356C176.086 138.978 174.095 139.1 172.229 139.711C170.363 140.321 168.685 141.399 167.354 142.842C166.023 144.286 165.085 146.046 164.627 147.955C164.17 149.864 164.209 151.858 164.742 153.748Z" fill="#E4897B"/>
<path d="M169.701 131.206C164.51 134.096 157.482 135.83 158.141 139.945C159.008 144.974 153.898 141.83 155.089 149.309C155.864 154.199 164.88 169.019 171.273 168.302C180.822 167.146 179.608 152.627 179.642 144.974C179.666 140.454 179.874 125.507 169.701 131.206Z" fill="#263238"/>
<path d="M180.787 137.691C183.099 138.234 186.162 151.563 177.203 152.789C166.903 154.187 180.787 137.691 180.787 137.691Z" fill="#263238"/>
<path d="M180.556 142.419C183.388 142.674 189.804 139.263 189.018 134.131C189.018 134.096 184.96 140.13 180.556 142.419Z" fill="#263238"/>
<path d="M176.348 153.852C177.217 155.758 178.693 157.323 180.544 158.303C182.983 159.574 184.359 157.725 183.804 155.274C183.307 153.078 181.434 149.76 178.926 149.494C176.417 149.228 175.342 151.54 176.348 153.852Z" fill="#E4897B"/>
<path d="M163.632 144.5C161.904 143.75 160.39 142.584 159.223 141.105C158.057 139.626 157.276 137.881 156.95 136.027C156.95 136.027 153.135 146.627 163.632 144.5Z" fill="#263238"/>
<path d="M153.991 144.327C154.795 143.787 155.721 143.454 156.685 143.359C157.65 143.264 158.622 143.41 159.516 143.783C159.516 143.783 155.956 139.171 153.991 144.327Z" fill="#263238"/>
<path d="M183.145 257.534C183.145 257.534 173.504 322.432 168.221 346.742C162.441 373.33 140.593 462.065 140.593 462.065H125.045C125.045 462.065 139.437 375.515 142.743 349.112C146.327 320.501 153.841 257.488 153.841 257.488L183.145 257.534Z" fill="white"/>
<path opacity="0.5" d="M183.145 257.534C183.145 257.534 173.504 322.432 168.221 346.742C162.441 373.33 140.593 462.065 140.593 462.065H125.045C125.045 462.065 139.437 375.515 142.743 349.112C146.327 320.501 153.841 257.488 153.841 257.488L183.145 257.534Z" fill="white"/>
<path d="M143.078 456.331C143.148 456.331 141.471 462.308 141.471 462.308H123.969L124.293 456.978L143.078 456.331Z" fill="white"/>
<path opacity="0.1" d="M143.078 456.331C143.148 456.331 141.471 462.308 141.471 462.308H123.969L124.293 456.978L143.078 456.331Z" fill="black"/>
<path d="M177.053 280.654C165.909 282.839 167.088 324.397 168.429 345.771C171.643 330.662 176.348 301.589 179.562 280.954C178.784 280.571 177.899 280.465 177.053 280.654Z" fill="white"/>
<path opacity="0.4" d="M177.053 280.654C165.909 282.839 167.088 324.397 168.429 345.771C171.643 330.662 176.348 301.589 179.562 280.954C178.784 280.571 177.899 280.465 177.053 280.654Z" fill="white"/>
<path d="M199.26 257.534C199.26 257.534 200.416 321.021 199.502 346.927C198.543 373.862 189.098 462.065 189.098 462.065H174.718C174.718 462.065 174.186 375.434 173.562 348.985C172.857 320.143 169.377 257.534 169.377 257.534H199.26Z" fill="white"/>
<path opacity="0.5" d="M199.26 257.534C199.26 257.534 200.416 321.021 199.502 346.927C198.543 373.862 189.098 462.065 189.098 462.065H174.718C174.718 462.065 174.186 375.434 173.562 348.985C172.857 320.143 169.377 257.534 169.377 257.534H199.26Z" fill="white"/>
<path d="M186.116 451.73C186.151 451.73 186.185 451.717 186.21 451.694C186.236 451.67 186.252 451.638 186.255 451.603C188.798 427.188 194.774 368.117 195.503 346.927C196.277 325.299 195.572 276.77 195.341 262.412C195.341 262.375 195.326 262.34 195.3 262.314C195.274 262.288 195.239 262.273 195.202 262.273C195.164 262.273 195.128 262.288 195.1 262.313C195.072 262.339 195.055 262.374 195.052 262.412C195.283 276.77 195.988 325.299 195.214 346.916C194.462 368.105 188.486 427.154 185.966 451.568C185.965 451.608 185.979 451.646 186.005 451.675C186.03 451.705 186.066 451.725 186.104 451.73H186.116Z" fill="white"/>
<path opacity="0.4" d="M186.116 451.73C186.151 451.73 186.185 451.717 186.21 451.694C186.236 451.67 186.252 451.638 186.255 451.603C188.798 427.188 194.774 368.117 195.503 346.927C196.277 325.299 195.572 276.77 195.341 262.412C195.341 262.375 195.326 262.34 195.3 262.314C195.274 262.288 195.239 262.273 195.202 262.273C195.164 262.273 195.128 262.288 195.1 262.313C195.072 262.339 195.055 262.374 195.052 262.412C195.283 276.77 195.988 325.299 195.214 346.916C194.462 368.105 188.486 427.154 185.966 451.568C185.965 451.608 185.979 451.646 186.005 451.675C186.03 451.705 186.066 451.725 186.104 451.73H186.116Z" fill="white"/>
<path d="M191.896 456.331C191.954 456.331 191.075 462.308 191.075 462.308H173.585L173.111 456.978L191.896 456.331Z" fill="white"/>
<path opacity="0.1" d="M191.896 456.331C191.954 456.331 191.075 462.308 191.075 462.308H173.585L173.111 456.978L191.896 456.331Z" fill="black"/>
</svg>
