<svg width="178" height="56" viewBox="0 0 178 56" fill="none" xmlns="http://www.w3.org/2000/svg">
<g clip-path="url(#clip0_907_89)">
<path d="M10.1431 14.1703C9.85246 13.838 9.47022 13.5997 9.04475 13.4855C8.61928 13.3714 8.16968 13.3866 7.7528 13.5292C7.33591 13.6717 6.97046 13.9353 6.70266 14.2865C6.43486 14.6377 6.27672 15.0608 6.24825 15.5023C6.21978 15.9438 6.32225 16.3838 6.54271 16.7668C6.76316 17.1498 7.09171 17.4585 7.48679 17.654C7.88188 17.8494 8.32577 17.9227 8.76235 17.8647C9.19892 17.8067 9.60857 17.6199 9.9395 17.328C10.1593 17.1341 10.3389 16.8987 10.4681 16.635C10.5973 16.3714 10.6735 16.0848 10.6924 15.7915C10.7114 15.4983 10.6726 15.2042 10.5783 14.926C10.4841 14.6479 10.3362 14.3911 10.1431 14.1703Z" fill="#209E52"/>
<path d="M13.5021 21.4606C13.304 21.6353 13.1618 21.8651 13.0937 22.1209C13.0256 22.3768 13.0345 22.6472 13.1194 22.8979C13.2043 23.1487 13.3612 23.3685 13.5705 23.5296C13.7797 23.6908 14.0318 23.7859 14.2949 23.8031C14.5579 23.8203 14.8201 23.7587 15.0484 23.6261C15.2766 23.4935 15.4606 23.296 15.577 23.0584C15.6934 22.8207 15.7371 22.5538 15.7025 22.2912C15.6679 22.0287 15.5566 21.7823 15.3827 21.5833C15.1495 21.3166 14.8203 21.1538 14.4677 21.1307C14.115 21.1077 13.7677 21.2264 13.5021 21.4606Z" fill="#209E52"/>
<path d="M20.9002 21.0514L21.6659 21.926L23.8112 22.0262L26.8769 27.2768L24.4343 21.0882L20.9002 21.0514Z" fill="#209E52"/>
<path d="M13.1202 29.473L12.3545 28.5994L11.9381 32.1254L17.7336 35.3506L12.9441 31.6241L13.1202 29.473Z" fill="#209E52"/>
<path d="M49.0748 25.6156C51.1695 24.5354 52.7959 23.2056 53.9539 21.6263C55.3074 19.7755 55.9842 17.5592 55.9842 14.9774C55.9842 10.3402 54.3011 6.68469 50.935 4.01081C47.5689 1.33694 43.0085 0 37.2537 0H19.9549V17.3106C19.4285 16.6386 18.8807 15.9727 18.3105 15.3211C12.2014 8.33873 2.88814 6.40544 1.99316 6.23359C1.74663 6.18033 1.49122 6.18457 1.24658 6.24598C1.00193 6.30738 0.774557 6.42433 0.58193 6.58782C0.389303 6.75131 0.236552 6.95699 0.135418 7.18906C0.0342841 7.42113 -0.0125409 7.67341 -0.00145765 7.9265C0.0168696 8.34077 0.522905 18.1556 6.88144 25.4182C7.76216 26.4237 8.68056 27.3883 9.62034 28.2946L9.1418 32.3412C9.10336 32.6681 9.16261 32.999 9.31202 33.292C9.46143 33.5849 9.69423 33.8265 9.98078 33.986L19.2462 39.1425C19.4651 39.2645 19.7089 39.3345 19.9589 39.3471V49.8984H31.4888V46.3039C32.0773 46.6977 32.6729 47.0874 33.2828 47.469C44.6182 54.5679 56.2479 57.4433 62.7154 55.3116C55.8936 55.9161 45.389 52.6408 35.0066 46.1392C29.4514 42.6613 24.7067 38.7415 21.1176 34.8678C21.1645 34.8678 21.2133 34.8739 21.2602 34.8739C22.4229 34.8739 23.4533 34.5159 24.2404 33.8387C25.0834 33.1115 25.5895 32.0875 25.7381 30.8611C27.2654 32.7749 29.206 34.7573 31.4888 36.7039V30.7711H37.6641C40.0744 30.7711 41.9051 31.3995 43.1561 32.6563C44.4071 33.9131 45.0323 35.7294 45.0316 38.1053V41.1208C45.0401 42.6185 45.1513 44.1137 45.3646 45.596C50.5899 48.0346 55.4629 49.3368 59.1202 49.3388V49.2089C58.1651 48.5011 57.4941 47.3131 57.1072 45.6451C56.7203 43.9771 56.5272 42.4918 56.5279 41.1894V38.0408C56.5279 35.7066 56.1277 33.671 55.3274 31.9341C61.689 37.7452 64.8474 43.8827 62.6869 47.3605C62.1493 48.228 61.3174 48.8683 60.2504 49.2949C62.472 49.1118 64.1337 48.365 64.9818 46.9984C67.7859 42.4803 60.6698 32.9314 49.0748 25.6156ZM22.6632 24.5395L22.6978 24.6101C24.9531 27.8241 25.3685 31.4114 23.5246 32.9979C21.6807 34.5844 18.2453 33.6403 15.4341 30.9409L20.0485 37.692L10.7831 32.5345L11.3594 27.6583C10.2237 26.6039 9.143 25.4912 8.12158 24.3247C2.07359 17.4109 1.64799 7.85592 1.64799 7.85592C1.7437 7.87228 11.058 9.54064 17.0755 16.4176C18.0978 17.583 19.0589 18.8013 19.9549 20.0674L24.8421 20.1185L28.7458 30.0131L22.6632 24.5395ZM42.644 20.2709C41.4161 21.3341 39.6424 21.8653 37.323 21.8646H31.4888V8.91053H37.2537C39.5508 8.91053 41.3305 9.53314 42.5931 10.7784C43.8556 12.0236 44.4865 13.663 44.4859 15.6965C44.4859 17.6843 43.8719 19.2091 42.644 20.2709Z" fill="#209E52"/>
<path d="M12.9146 18.31C12.7072 18.0724 12.4343 17.902 12.1304 17.8204C11.8266 17.7387 11.5054 17.7494 11.2077 17.8512C10.9099 17.953 10.6489 18.1413 10.4577 18.3922C10.2665 18.6431 10.1537 18.9454 10.1336 19.2607C10.1134 19.5761 10.1869 19.8904 10.3447 20.1637C10.5024 20.4371 10.7374 20.6573 11.0198 20.7965C11.3022 20.9356 11.6193 20.9875 11.9311 20.9455C12.2428 20.9034 12.5351 20.7694 12.771 20.5604C13.0866 20.2808 13.2789 19.8869 13.3058 19.465C13.3327 19.0432 13.192 18.6278 12.9146 18.31Z" fill="#209E52"/>
<path d="M87.9809 18.4952V21.1445C87.9809 24.7247 86.7326 26.9536 83.9571 27.8374C86.9169 28.7201 88.0298 31.1362 88.0298 34.6223V39.6888C88.0298 41.13 88.0756 42.4772 88.6774 43.5932H85.018C84.6016 42.6634 84.4163 41.8266 84.4163 39.6427V34.5282C84.4163 30.857 82.7047 29.695 79.698 29.695H77.1526V43.5922H73.5482V11.0638H80.7651C85.8529 11.0597 87.9809 13.6619 87.9809 18.4952ZM84.4173 21.9342V18.8215C84.4173 15.8939 83.3533 14.3596 80.6704 14.3596H77.1566V26.3961H79.8396C82.7078 26.3961 84.4193 25.4704 84.4193 21.9342H84.4173Z" fill="#171923"/>
<path d="M98.8989 10.7344C103.895 10.7344 106.347 13.9412 106.347 18.9176V35.7373C106.347 40.6636 103.895 43.9205 98.8989 43.9205C93.9485 43.9205 91.4967 40.6666 91.4967 35.7373V18.9135C91.4967 13.9412 93.9485 10.7344 98.8989 10.7344ZM98.8989 40.6175C101.535 40.6175 102.738 38.898 102.738 35.9234V18.7274C102.738 15.7998 101.535 14.0332 98.8989 14.0332C96.3076 14.0332 95.0593 15.7998 95.0593 18.7274V35.9234C95.0593 38.898 96.3076 40.6175 98.8989 40.6175Z" fill="#171923"/>
<path d="M124.064 18.9135V21.8411H120.64V18.7274C120.64 15.7998 119.484 14.0332 116.847 14.0332C114.256 14.0332 113.054 15.7998 113.054 18.7274V35.9234C113.054 38.851 114.256 40.6175 116.847 40.6175C119.484 40.6175 120.64 38.851 120.64 35.9234V31.6947H124.064V35.7373C124.064 40.6636 121.751 43.9205 116.755 43.9205C111.804 43.9205 109.492 40.6666 109.492 35.7373V18.9135C109.492 13.9872 111.804 10.7303 116.755 10.7303C121.751 10.7344 124.064 13.9872 124.064 18.9135Z" fill="#171923"/>
<path d="M130.956 32.6706V43.5922H127.348V11.0638H130.956V26.7674L139.561 11.0597H143.215L135.027 25.8846L143.492 43.5922H139.796L132.853 29.4597L130.956 32.6706Z" fill="#171923"/>
<path d="M157.786 28.7201H149.876V40.2923H159.59V43.5922H146.268V11.0638H159.59V14.3626H149.876V25.4704H157.786V28.7201Z" fill="#171923"/>
<path d="M167.639 14.3585H161.672V11.0597H177.215V14.3585H171.248V43.5922H167.639V14.3585Z" fill="#171923"/>
</g>
<defs>
<clipPath id="clip0_907_89">
<rect width="177.215" height="56" fill="white"/>
</clipPath>
</defs>
</svg>
