<svg width="234" height="175" viewBox="0 0 234 175" fill="none" xmlns="http://www.w3.org/2000/svg">
<path d="M234 153.787H0V153.904H234V153.787Z" fill="#EBEBEB"/>
<path d="M169.416 157.517H153.916V157.634H169.416V157.517Z" fill="#EBEBEB"/>
<path d="M206.351 157.578H187.097V157.695H206.351V157.578Z" fill="#EBEBEB"/>
<path d="M175.945 160.645H166.964V160.762H175.945V160.645Z" fill="#EBEBEB"/>
<path d="M105.614 159.758H81.432V159.875H105.614V159.758Z" fill="#EBEBEB"/>
<path d="M77.2668 159.758H61.1722V159.875H77.2668V159.758Z" fill="#EBEBEB"/>
<path d="M51.5409 157.775H29.6198V157.892H51.5409V157.775Z" fill="#EBEBEB"/>
<path d="M110.916 132.838H20.5499C19.8419 132.836 19.1634 132.553 18.6633 132.05C18.1632 131.548 17.8823 130.866 17.8823 130.156V2.65863C17.8884 1.95218 18.172 1.2767 18.6715 0.778903C19.171 0.28111 19.846 0.00121019 20.5499 0H110.916C111.625 0 112.304 0.28258 112.806 0.785574C113.307 1.28857 113.588 1.97078 113.588 2.68212V130.156C113.588 130.867 113.307 131.549 112.806 132.052C112.304 132.555 111.625 132.838 110.916 132.838ZM20.5499 0.093945C19.873 0.0951892 19.2242 0.365945 18.746 0.846782C18.2678 1.32762 17.9993 1.97925 17.9993 2.65863V130.156C17.9993 130.835 18.2678 131.487 18.746 131.967C19.2242 132.448 19.873 132.719 20.5499 132.72H110.916C111.593 132.719 112.243 132.448 112.721 131.968C113.2 131.487 113.47 130.835 113.471 130.156V2.65863C113.47 1.97882 113.2 1.3272 112.721 0.846495C112.243 0.365792 111.593 0.0951866 110.916 0.093945H20.5499Z" fill="#EBEBEB"/>
<path d="M212.149 132.838H121.778C121.07 132.836 120.391 132.553 119.89 132.051C119.389 131.548 119.107 130.866 119.106 130.156V2.65863C119.113 1.95175 119.398 1.27627 119.898 0.778609C120.399 0.280945 121.074 0.00119699 121.778 0H212.149C212.852 0.00244467 213.526 0.28289 214.024 0.780552C214.523 1.27821 214.806 1.95299 214.812 2.65863V130.156C214.812 130.865 214.532 131.546 214.033 132.049C213.534 132.551 212.856 132.835 212.149 132.838ZM121.778 0.093945C121.101 0.0951866 120.452 0.365792 119.973 0.846495C119.494 1.3272 119.224 1.97882 119.223 2.65863V130.156C119.224 130.835 119.494 131.487 119.973 131.968C120.452 132.448 121.101 132.719 121.778 132.72H212.149C212.826 132.719 213.476 132.448 213.955 131.968C214.434 131.487 214.703 130.835 214.704 130.156V2.65863C214.703 1.97882 214.434 1.3272 213.955 0.846495C213.476 0.365792 212.826 0.0951866 212.149 0.093945H121.778Z" fill="#EBEBEB"/>
<path d="M130.366 37.8737C130.698 37.3642 131.148 36.9432 131.678 36.647C132.208 36.3508 132.802 36.1883 133.408 36.1733C133.754 36.164 134.09 36.2904 134.344 36.5256C136.155 35.2997 138.327 34.5434 140.208 34.6467C141.028 34.6515 141.829 34.8982 142.511 35.356C144.383 33.5006 146.91 32.1901 148.871 32.1901C149.98 32.1901 150.743 32.6128 151.07 33.3221C153.078 32.0821 155.212 31.3164 157.009 31.3164C159.883 31.3164 161.072 33.2564 160.253 35.9808C160.791 36.4928 163.149 37.2114 163.173 38.071H130.263L130.366 37.8737Z" fill="#FAFAFA"/>
<path d="M29.6197 28.2962C30.0913 27.5754 30.7295 26.9798 31.4801 26.5602C32.2306 26.1406 33.0712 25.9094 33.93 25.8865C34.4104 25.8809 34.8745 26.0608 35.2264 26.3891C37.7957 24.6511 40.8704 23.5708 43.5427 23.6976C44.7087 23.7021 45.8478 24.05 46.8187 24.6981C49.4536 22.077 53.0338 20.1982 55.809 20.1982C57.3862 20.1982 58.4438 20.7994 58.9259 21.8046C61.7713 20.0431 64.7946 18.9863 67.3499 18.9863C71.4168 18.9863 73.0969 21.7341 71.9456 25.5953C72.7085 26.3186 76.0453 27.3379 76.0781 28.5545H29.484C29.5214 28.4653 29.5636 28.3807 29.6197 28.2962Z" fill="#FAFAFA"/>
<path d="M80.0748 16.4873C80.3338 16.0926 80.6839 15.7665 81.0954 15.5367C81.5068 15.3069 81.9675 15.1802 82.4382 15.1673C82.7014 15.1631 82.9561 15.2607 83.1496 15.4398C84.482 14.4899 86.0736 13.9749 87.7079 13.9649C88.3443 13.9698 88.9656 14.1608 89.4956 14.5144C90.9511 13.0771 92.912 12.0578 94.4377 12.0578C95.2988 12.0578 95.8792 12.3866 96.1459 12.9362C97.7044 11.9732 99.3611 11.3767 100.76 11.3767C102.993 11.3767 103.915 12.8845 103.283 15.0029C103.699 15.4022 105.534 15.9424 105.548 16.6282H79.9952C80.028 16.5812 80.028 16.5342 80.0748 16.4873Z" fill="#FAFAFA"/>
<path d="M175.317 30.3206C175.461 30.3197 175.602 30.3518 175.731 30.4145C175.861 30.4772 175.973 30.5688 176.062 30.6823C177.583 29.4234 179.384 28.6531 180.929 28.7423C181.619 28.7491 182.284 29.006 182.801 29.4657C184.387 27.5868 186.493 26.234 188.103 26.234C188.485 26.201 188.868 26.2967 189.19 26.5059C189.512 26.7151 189.755 27.026 189.882 27.3895C191.562 26.1166 193.335 25.3368 194.814 25.3368C196.649 25.3368 197.622 26.5393 197.622 28.3806C198.308 27.8826 199.118 27.588 199.962 27.5304C200.17 27.5153 200.379 27.545 200.575 27.6176C200.771 27.6901 200.949 27.8038 201.098 27.951C201.246 28.0982 201.361 28.2756 201.436 28.4712C201.511 28.6668 201.543 28.8761 201.53 29.0852H201.788C203.304 29.2449 204.039 30.4944 203.5 31.9035H172.86C173.408 30.9641 174.475 30.2736 175.317 30.3206Z" fill="#FAFAFA"/>
<path d="M87.6658 46.9723C88.0253 47.0571 88.3762 47.175 88.7141 47.3246C89.065 47.4809 89.399 47.673 89.7109 47.8977C89.9656 48.083 90.1995 48.2956 90.4082 48.5318C90.81 47.9553 91.2661 47.4189 91.7701 46.93C92.0424 46.6656 92.3316 46.4192 92.6359 46.1926C92.9111 45.9793 93.2075 45.7951 93.5204 45.643L92.7342 46.6341C92.4768 46.9676 92.2194 47.2917 91.9667 47.6252C91.7139 47.9587 91.4987 48.2969 91.2366 48.6351C90.9745 48.9733 90.7686 49.335 90.5533 49.692L90.2912 50.1195L90.0619 49.8376C89.8191 49.548 89.5479 49.2836 89.2523 49.0485C88.9621 48.8042 88.6626 48.5788 88.3631 48.3439C87.7328 47.876 87.1282 47.3742 86.5519 46.8408C86.9274 46.8342 87.3021 46.8784 87.6658 46.9723Z" fill="#EBEBEB"/>
<path d="M142.398 15.7169C142.759 15.8024 143.112 15.9203 143.451 16.0692C143.801 16.2246 144.134 16.4167 144.444 16.6423C144.698 16.8278 144.932 17.0404 145.141 17.2764C145.544 16.6998 146.002 16.1634 146.507 15.6746C146.781 15.4115 147.07 15.1652 147.373 14.9372C147.649 14.7252 147.946 14.5411 148.258 14.3876L147.467 15.3787C147.209 15.7122 146.952 16.0363 146.704 16.3698C146.456 16.7033 146.208 17.0415 145.969 17.3797C145.731 17.7179 145.501 18.0796 145.286 18.4366L145.029 18.8641L144.799 18.5822C144.554 18.2947 144.283 18.0305 143.99 17.7931C143.699 17.5488 143.4 17.3234 143.096 17.0885C142.497 16.6188 141.879 16.1491 141.289 15.5901C141.663 15.5798 142.036 15.6225 142.398 15.7169Z" fill="#EBEBEB"/>
<path d="M63.2455 42.0449C63.7794 42.1741 64.3008 42.3502 64.804 42.5709C65.3249 42.8023 65.8205 43.0872 66.2829 43.4211C66.6598 43.6967 67.0065 44.0116 67.3171 44.3606C67.9162 43.5058 68.5947 42.71 69.3436 41.9838C69.751 41.5908 70.1824 41.2237 70.6353 40.8846C71.0446 40.5715 71.4835 40.2993 71.9457 40.072L70.7757 41.547C70.3919 42.0167 70.0081 42.5193 69.6384 43.0172C69.2687 43.5151 68.9037 44.0177 68.548 44.5203C68.1923 45.0229 67.86 45.5631 67.5324 46.0892L67.1487 46.7233L66.8117 46.3052C66.4458 45.8776 66.0416 45.4846 65.6043 45.1309C65.1737 44.7692 64.7291 44.4264 64.2798 44.0835C63.3467 43.3883 62.4501 42.6451 61.5935 41.857C62.1502 41.8434 62.706 41.9066 63.2455 42.0449Z" fill="#EBEBEB"/>
<path d="M94.4845 31.5418C94.8868 31.6386 95.2799 31.7706 95.6592 31.9364C96.0491 32.1119 96.4206 32.3259 96.7684 32.5752C97.0543 32.7818 97.3164 33.0197 97.5499 33.2845C97.9986 32.6404 98.508 32.0411 99.0709 31.4949C99.3764 31.2008 99.6999 30.9262 100.04 30.6728C100.347 30.435 100.678 30.2288 101.027 30.0575L100.152 31.166C99.8618 31.5371 99.5763 31.8988 99.2955 32.2699C99.0147 32.641 98.7433 33.0262 98.4765 33.4019C98.2098 33.7777 97.9571 34.1817 97.7137 34.5809L97.4235 35.0507L97.1708 34.7406C96.8965 34.4183 96.5925 34.1227 96.2629 33.8576C95.94 33.5851 95.6077 33.3268 95.2661 33.0684C94.5638 32.5468 93.8904 31.987 93.249 31.3915C93.6656 31.3869 94.0811 31.4374 94.4845 31.5418Z" fill="#EBEBEB"/>
<path d="M176.759 19.6907C177.161 19.7875 177.554 19.9195 177.934 20.0853C178.323 20.2619 178.694 20.4758 179.043 20.7241C179.327 20.9308 179.588 21.1687 179.82 21.4334C180.269 20.7883 180.78 20.1888 181.345 19.6438C181.65 19.3471 181.973 19.0709 182.314 18.8171C182.622 18.5813 182.953 18.3767 183.302 18.2064L182.422 19.315C182.132 19.686 181.846 20.0477 181.565 20.4188C181.284 20.7899 181.013 21.1704 180.746 21.5508C180.48 21.9313 180.227 22.3306 179.983 22.7299L179.693 23.1996L179.441 22.8849C179.165 22.5652 178.861 22.2712 178.533 22.0065C178.21 21.734 177.873 21.4757 177.536 21.2173C176.828 20.6963 176.149 20.1381 175.5 19.5451C175.924 19.5368 176.348 19.5858 176.759 19.6907Z" fill="#EBEBEB"/>
<path d="M195.184 153.444C194.716 151.589 192.563 150.156 190.387 150.246C189.652 150.259 188.938 150.49 188.333 150.908C185.48 148.49 181.838 147.217 178.107 147.333C176.348 147.381 174.624 147.838 173.071 148.667C170.689 145.177 166.636 142.707 162.775 142.707C161.814 142.667 160.857 142.837 159.968 143.205C159.079 143.574 158.28 144.131 157.627 144.839C154.543 142.49 150.883 141.058 147.331 141.058C141.673 141.058 137.971 144.712 137.639 149.846C136.211 150.814 131.054 152.167 130.408 153.787H195.259C195.236 153.675 195.217 153.562 195.184 153.444Z" fill="#F5F5F5"/>
<path d="M100.25 151.016C99.6574 151.037 99.0895 151.261 98.6404 151.65C97.6901 150.544 96.507 149.663 95.1765 149.072C93.8459 148.481 92.4011 148.193 90.9464 148.23C89.5467 148.293 88.1898 148.734 87.0199 149.508C85.3492 146.173 82.3399 143.81 79.3728 143.81C78.5859 143.802 77.8085 143.983 77.1058 144.339C76.403 144.695 75.7955 145.214 75.334 145.854C73.0735 143.608 70.3217 142.237 67.5932 142.237C64.2096 142.237 61.6309 144.346 60.4281 147.601C59.3887 146.684 58.0669 146.153 56.6842 146.098C55.8304 146.099 54.9974 146.363 54.2972 146.853C53.597 147.344 53.0631 148.037 52.767 148.841C52.6106 148.842 52.4544 148.851 52.299 148.869C49.3974 149.146 47.2306 151.312 47.2867 153.787H103.742C103.559 152.996 103.114 152.291 102.48 151.788C101.845 151.284 101.059 151.012 100.25 151.016Z" fill="#FAFAFA"/>
<path d="M170.179 135.896L170.015 129.085L166.533 119.902H169.795L169.547 109.601H179.684L180.676 128.183L183.128 128.596L181.865 138.446L181.228 138.484L182.043 153.787H170.614L170.436 146.469L169.014 135.773L170.179 135.896Z" fill="#F0F0F0"/>
<path d="M203.711 92.4885C205.284 88.8576 204.282 86.2506 201.371 85.081C200.238 80.5951 192.418 75.5926 182.183 73.1735C170.558 70.4209 162.429 72.9856 158.708 76.7669C156.208 76.3925 153.655 76.846 151.435 78.0586C147.411 80.1536 144.921 83.6342 144.907 86.7015C142.033 87.9275 141.107 90.5861 142.787 94.2735C143.879 96.4757 145.659 98.259 147.855 99.3512C147.815 100.644 148.098 101.926 148.679 103.081C149.027 103.831 149.472 104.533 150.003 105.166C148.688 106.604 148.515 108.755 149.751 111.461C150.907 113.992 153.579 116.487 157.786 117.736C159.387 120.771 164.872 123.011 171.396 123.011C178.233 123.011 183.933 120.55 185.211 117.295C186.039 117.37 186.886 117.412 187.757 117.412C195.535 117.412 200.206 113.894 201.839 110.305C202.775 108.281 202.901 106.547 202.359 105.227C204.336 104.133 205.934 102.458 206.936 100.427C208.779 96.2933 207.413 93.4749 203.711 92.4885Z" fill="#E6E6E6"/>
<path d="M84.7267 106.759H78.025L75.4089 113.57H73.2514L73.0735 119.639L71.3419 124.143L70.6025 124.059L69.4372 128.286L68.7024 124.176L70.6446 113.17H66.7321L64.5232 100.817H52.3739L55.7061 123.096L52.8653 123.589L56.7731 135.398L57.55 135.44L60.2925 153.787H73.9955L72.4277 145.013L71.941 138.094L77.9407 125.848L78.376 125.825L81.8719 119.314L80.3603 119.042L84.7267 106.759Z" fill="#F0F0F0"/>
<path d="M36.972 80.3227C35.1 75.9683 36.2887 72.8447 39.78 71.4402C41.1419 66.0666 50.5112 60.0729 62.7962 57.1653C76.738 53.8773 86.477 56.9446 90.9418 61.4774C93.9443 61.0164 97.0146 61.5542 99.684 63.0087C104.509 65.5217 107.495 69.6928 107.509 73.3708C110.958 74.841 112.072 78.0257 110.05 82.4505C109.025 84.7005 107.004 86.9223 103.966 88.5334C104.006 90.0847 103.66 91.6215 102.96 93.0052C102.542 93.904 102.009 94.744 101.373 95.5041C102.946 97.228 103.152 99.8021 101.673 103.048C100.269 106.082 97.0866 109.074 92.0416 110.563C90.1228 114.204 83.5474 116.886 75.7271 116.886C67.5277 116.886 60.6996 113.936 59.1646 110.033C58.1771 110.122 57.1568 110.174 56.1179 110.174C46.7906 110.174 41.1934 105.946 39.2324 101.657C38.1233 99.2243 37.9642 97.1716 38.61 95.5511C36.2441 94.2475 34.3331 92.2475 33.1344 89.8205C30.888 84.8884 32.526 81.4923 36.972 80.3227Z" fill="#F5F5F5"/>
<path d="M117 175C167.115 175 207.741 172.619 207.741 169.683C207.741 166.746 167.115 164.365 117 164.365C66.8854 164.365 26.2595 166.746 26.2595 169.683C26.2595 172.619 66.8854 175 117 175Z" fill="#F5F5F5"/>
<path d="M153.289 60.6553C153.214 61.9565 153.064 63.1496 152.896 64.4131C152.727 65.6767 152.493 66.8557 152.226 68.0676C151.96 69.2794 151.669 70.496 151.29 71.6938C150.925 72.9025 150.492 74.0897 149.994 75.2496L149.601 76.128C149.545 76.2595 149.437 76.4521 149.353 76.5977C149.269 76.7433 149.17 76.9171 149.077 77.0674C148.712 77.6405 148.305 78.1853 147.86 78.6974C147.033 79.6529 146.141 80.5506 145.192 81.3842C143.355 83.0075 141.402 84.4927 139.347 85.8278L138.158 84.2871C138.996 83.4745 139.848 82.6337 140.671 81.7976C141.495 80.9614 142.309 80.1065 143.082 79.2423C143.845 78.4028 144.565 77.5249 145.239 76.6118C145.545 76.1905 145.823 75.7496 146.072 75.2919C146.119 75.1885 146.18 75.0805 146.222 74.9819C146.273 74.8763 146.318 74.7681 146.358 74.6578L146.657 73.8733C147.416 71.7164 148.008 69.5037 148.426 67.2549C148.651 66.1229 148.815 64.9721 148.983 63.826C149.152 62.6798 149.278 61.4773 149.381 60.4064L153.289 60.6553Z" fill="#FFB573"/>
<path d="M150.621 55.9722C149.044 56.3715 147.939 62.8959 147.939 62.8959L152.292 65.8646C152.292 65.8646 156.462 59.2885 155.25 57.5458C153.972 55.728 152.928 55.3804 150.621 55.9722Z" fill="#209E52"/>
<path opacity="0.2" d="M150.766 57.4283L149.554 63.9997L151.997 65.6672L150.766 57.4283Z" fill="black"/>
<path d="M138.879 83.7328L134.536 84.0475L137.129 86.9645C137.129 86.9645 139.53 86.4149 139.937 84.8742L138.879 83.7328Z" fill="#FFB573"/>
<path d="M132.14 85.5929L133.918 88.3408L137.129 86.9645L134.536 84.0475L132.14 85.5929Z" fill="#FFB573"/>
<path d="M159.167 165.756H155.334L155.081 156.85H158.909L159.167 165.756Z" fill="#FFB573"/>
<path d="M185.665 154.421L182.118 155.873L177.625 148.099L181.172 146.643L185.665 154.421Z" fill="#FFB573"/>
<path d="M181.448 155.342L185.15 153.134C185.214 153.095 185.289 153.081 185.362 153.094C185.436 153.107 185.502 153.146 185.548 153.205L187.71 155.892C187.761 155.961 187.798 156.041 187.816 156.126C187.835 156.211 187.836 156.298 187.818 156.383C187.801 156.468 187.766 156.549 187.716 156.619C187.666 156.69 187.602 156.749 187.528 156.793C186.227 157.54 185.557 157.836 183.929 158.804C182.927 159.4 180.573 161.448 179.193 162.275C177.812 163.102 176.923 161.768 177.428 161.303C179.058 159.823 180.293 157.956 181.018 155.873C181.095 155.651 181.248 155.463 181.448 155.342Z" fill="#263238"/>
<path d="M155.203 165.31H159.508C159.583 165.307 159.656 165.332 159.712 165.381C159.768 165.43 159.804 165.498 159.813 165.573L160.281 168.992C160.29 169.078 160.281 169.165 160.254 169.248C160.228 169.33 160.184 169.406 160.126 169.47C160.068 169.535 159.997 169.586 159.918 169.621C159.839 169.656 159.754 169.674 159.668 169.673C158.165 169.65 157.445 169.561 155.549 169.561C154.384 169.561 151.978 169.683 150.368 169.683C148.758 169.683 148.674 168.086 149.343 167.94C152.348 167.292 153.527 166.399 154.538 165.544C154.725 165.389 154.961 165.306 155.203 165.31Z" fill="#263238"/>
<g opacity="0.2">
<path opacity="0.2" d="M155.081 156.85L155.212 161.444H159.045L158.914 156.85H155.081Z" fill="black"/>
<path opacity="0.2" d="M181.172 146.643L177.625 148.099L179.941 152.106L183.489 150.654L181.172 146.643Z" fill="black"/>
</g>
<path d="M150.621 55.9722C150.621 55.9722 148.796 56.6157 152.456 79.1812H168.012C167.75 72.8259 167.741 68.9037 170.769 55.8595C168.59 55.4065 166.381 55.1145 164.16 54.9858C161.808 54.8165 159.446 54.8165 157.094 54.9858C154.066 55.2629 150.621 55.9722 150.621 55.9722Z" fill="#209E52"/>
<path d="M164.165 54.9858C161.812 54.8165 159.451 54.8165 157.098 54.9858C156.251 55.0609 155.371 55.1737 154.543 55.2911C154.183 56.6627 154.253 58.5792 155.647 61.0875C155.87 61.4873 156.231 61.7916 156.662 61.943C157.093 62.0944 157.565 62.0825 157.987 61.9095C159.12 61.4398 164.853 59.0207 166.697 56.0239L167.165 55.2488C166.238 55.1361 165.204 55.0375 164.165 54.9858Z" fill="white"/>
<path d="M170.773 41.6738C170.773 47.3105 166.149 51.0307 161.249 53.384C156.181 55.8172 151.08 48.8136 151.08 43.1769C151.079 41.8361 151.342 40.5083 151.853 39.2694C152.363 38.0305 153.112 36.9047 154.057 35.9564C155.001 35.0081 156.122 34.2558 157.357 33.7426C158.591 33.2293 159.914 32.9651 161.249 32.9651C166.865 32.9651 170.773 36.0371 170.773 41.6738Z" fill="#263238"/>
<path d="M172.065 35.1587C172.065 37.296 170.586 39.5976 168.452 39.5976C167.429 39.5976 166.448 39.1898 165.725 38.464C165.002 37.7381 164.596 36.7536 164.596 35.7271C164.596 34.7006 165.002 33.7161 165.725 32.9902C166.448 32.2644 167.429 31.8566 168.452 31.8566C170.586 31.8566 172.065 33.0215 172.065 35.1587Z" fill="#263238"/>
<path d="M163.468 47.0005C163 49.2787 162.574 53.4639 164.165 54.9858C164.165 54.9858 163.543 57.3016 159.321 57.3016C154.674 57.3016 157.098 54.9858 157.098 54.9858C159.635 54.3752 159.569 52.4869 159.129 50.7161L163.468 47.0005Z" fill="#FFB573"/>
<path d="M164.165 54.9858C161.812 54.8165 159.451 54.8165 157.098 54.9858L156.63 55.0328C156.152 56.0138 156.078 57.1445 156.424 58.1799C156.496 58.4459 156.625 58.6928 156.803 58.903C156.981 59.1132 157.202 59.2817 157.452 59.3965C157.701 59.5112 157.973 59.5694 158.248 59.567C158.522 59.5646 158.793 59.5015 159.04 59.3824C160.997 58.4429 164.029 56.766 165.087 55.0469C164.787 55.0234 164.474 54.9999 164.165 54.9858Z" fill="#FFB573"/>
<path opacity="0.2" d="M161.699 48.5177L159.12 50.7301C159.229 51.1426 159.303 51.5638 159.34 51.989C160.309 51.848 161.638 50.7818 161.741 49.7625C161.802 49.3484 161.787 48.9267 161.699 48.5177Z" fill="black"/>
<path d="M163.837 41.082C164.544 44.8397 164.923 46.4039 163.543 48.7713C161.465 52.3318 156.719 52.3835 154.913 48.9169C153.284 45.8027 152.404 40.1895 155.638 37.808C156.348 37.2786 157.181 36.9403 158.058 36.8251C158.934 36.7098 159.826 36.8216 160.648 37.1496C161.469 37.4777 162.194 38.0113 162.752 38.6995C163.31 39.3878 163.684 40.2079 163.837 41.082Z" fill="#FFB573"/>
<path d="M152.456 79.1811C152.456 79.1811 149.432 108.807 149.685 120.517C149.943 132.73 154.398 160.532 154.398 160.532H159.588C159.588 160.532 158.769 133.425 159.228 121.447C159.724 108.384 163.861 79.1718 163.861 79.1718L152.456 79.1811Z" fill="#263238"/>
<path d="M160.028 160.739H153.949L153.504 158.795L160.309 158.555L160.028 160.739Z" fill="#209E52"/>
<path opacity="0.2" d="M159.167 86.5512C155.343 94.2687 158.399 108.346 159.752 113.584C160.444 105.721 161.624 96.1007 162.522 89.0407C161.928 85.0481 160.931 82.9954 159.167 86.5512Z" fill="black"/>
<path d="M156.565 79.1812C156.565 79.1812 160.089 109.981 162.752 119.869C165.911 131.612 178.753 151.636 178.753 151.636L183.587 149.654C183.587 149.654 175.299 126.849 172.879 120.662C167.731 107.463 172.14 87.7818 168.017 79.1812H156.565Z" fill="#263238"/>
<path d="M184.247 149.677L178.247 152.139L176.838 150.504L183.77 147.296L184.247 149.677Z" fill="#209E52"/>
<path d="M158.217 43.5527C158.292 43.8534 158.193 44.1352 158.001 44.1869C157.81 44.2385 157.585 44.0319 157.505 43.7172C157.426 43.4024 157.529 43.1347 157.725 43.083C157.922 43.0314 158.142 43.2521 158.217 43.5527Z" fill="#263238"/>
<path d="M154.828 44.4123C154.908 44.7129 154.828 44.9995 154.613 45.0464C154.398 45.0934 154.197 44.8914 154.122 44.5767C154.047 44.262 154.122 43.9943 154.337 43.9426C154.552 43.8909 154.754 44.1117 154.828 44.4123Z" fill="#263238"/>
<path d="M154.44 43.952H153.668C153.668 43.952 154.169 44.3966 154.44 43.952Z" fill="#263238"/>
<path d="M156.012 44.6895C155.918 45.4426 155.722 46.1791 155.427 46.8784C155.608 46.9497 155.801 46.9804 155.995 46.9682C156.188 46.956 156.376 46.9013 156.546 46.8079L156.012 44.6895Z" fill="#ED893E"/>
<path d="M158.479 47.5736C158.337 47.6313 158.192 47.6799 158.044 47.7192C158.02 47.7239 157.996 47.7198 157.975 47.7077C157.954 47.6955 157.939 47.6763 157.931 47.6535C157.926 47.6298 157.929 47.6048 157.941 47.5838C157.954 47.5628 157.973 47.5473 157.997 47.5407C158.37 47.4545 158.718 47.2823 159.014 47.0377C159.31 46.7931 159.545 46.4829 159.7 46.1316C159.704 46.1205 159.71 46.1103 159.718 46.1015C159.726 46.0928 159.736 46.0857 159.747 46.0807C159.757 46.0757 159.769 46.0728 159.78 46.0723C159.792 46.0718 159.804 46.0735 159.815 46.0775C159.826 46.0816 159.836 46.0877 159.845 46.0957C159.854 46.1036 159.861 46.1132 159.866 46.1239C159.871 46.1346 159.873 46.1462 159.874 46.158C159.875 46.1697 159.873 46.1815 159.869 46.1926C159.74 46.5037 159.55 46.7859 159.312 47.023C159.073 47.26 158.79 47.4472 158.479 47.5736Z" fill="#263238"/>
<path d="M154.36 38.2824C154.36 38.2824 159.368 43.4493 164.362 43.4493C168.471 43.4493 168.335 36.535 162.901 36.2485C157.468 35.9619 151.969 34.487 154.36 38.2824Z" fill="#263238"/>
<path d="M165.695 44.2384C165.6 44.9701 165.22 45.634 164.638 46.0844C163.861 46.6763 163.117 46.0844 163.032 45.145C162.958 44.3136 163.271 43.003 164.193 42.7964C164.394 42.7515 164.602 42.757 164.8 42.8124C164.999 42.8679 165.18 42.9715 165.328 43.1142C165.477 43.2568 165.588 43.434 165.652 43.6301C165.716 43.8262 165.731 44.0352 165.695 44.2384Z" fill="#FFB573"/>
<path d="M158.886 41.7161C158.859 41.7436 158.824 41.7618 158.786 41.7677C158.748 41.7736 158.709 41.767 158.675 41.749C157.931 41.3638 156.967 41.857 156.958 41.8617C156.937 41.8728 156.914 41.8797 156.891 41.8819C156.867 41.8841 156.843 41.8817 156.821 41.8747C156.798 41.8677 156.777 41.8563 156.759 41.8412C156.741 41.8261 156.726 41.8075 156.714 41.7865C156.703 41.7656 156.697 41.7426 156.694 41.719C156.692 41.6954 156.695 41.6715 156.702 41.6488C156.708 41.6262 156.72 41.6051 156.735 41.5868C156.75 41.5685 156.768 41.5534 156.789 41.5423C156.836 41.5141 157.931 40.9551 158.844 41.4248C158.865 41.4357 158.884 41.4507 158.899 41.469C158.914 41.4872 158.926 41.5084 158.933 41.5311C158.94 41.5539 158.942 41.5778 158.94 41.6015C158.937 41.6252 158.93 41.6482 158.919 41.6691C158.911 41.6865 158.899 41.7024 158.886 41.7161Z" fill="#263238"/>
<path d="M153.073 42.4958C153.044 42.5081 153.013 42.5124 152.981 42.5083C152.95 42.5041 152.921 42.4917 152.896 42.4724C152.857 42.4441 152.831 42.4017 152.823 42.3542C152.815 42.3067 152.826 42.2581 152.853 42.2187C153.019 41.9813 153.239 41.7871 153.495 41.6523C153.75 41.5174 154.034 41.4459 154.323 41.4437C154.371 41.4473 154.415 41.4695 154.446 41.5055C154.478 41.5415 154.494 41.5884 154.491 41.6363C154.491 41.6601 154.486 41.6836 154.476 41.7053C154.466 41.7271 154.452 41.7466 154.434 41.7628C154.417 41.779 154.396 41.7916 154.374 41.7997C154.352 41.8078 154.328 41.8113 154.304 41.81C154.076 41.8153 153.852 41.8746 153.652 41.9832C153.451 42.0917 153.278 42.2465 153.148 42.4348C153.129 42.4614 153.103 42.4824 153.073 42.4958Z" fill="#263238"/>
<path d="M179.979 156.798H179.932C179.846 156.778 179.767 156.736 179.702 156.677C179.636 156.618 179.587 156.543 179.558 156.46C179.533 156.41 179.523 156.354 179.528 156.299C179.533 156.243 179.553 156.19 179.586 156.145C179.862 155.741 181.247 155.793 181.406 155.802C181.424 155.802 181.441 155.808 181.455 155.818C181.469 155.828 181.48 155.842 181.486 155.859C181.493 155.876 181.495 155.894 181.49 155.912C181.486 155.93 181.476 155.946 181.462 155.957C181.116 156.3 180.451 156.855 179.979 156.798ZM181.177 155.972C180.625 155.972 179.88 156.033 179.731 156.244C179.718 156.265 179.712 156.29 179.712 156.314C179.712 156.339 179.718 156.363 179.731 156.385C179.749 156.441 179.78 156.491 179.823 156.531C179.865 156.572 179.917 156.6 179.974 156.615C180.231 156.671 180.671 156.418 181.177 155.972Z" fill="#209E52"/>
<path d="M181.261 155.971C180.793 155.915 179.946 155.591 179.815 155.215C179.791 155.147 179.791 155.073 179.815 155.004C179.839 154.936 179.885 154.878 179.946 154.839C180.001 154.797 180.065 154.766 180.132 154.75C180.2 154.734 180.271 154.732 180.339 154.746C180.887 154.854 181.453 155.802 181.476 155.84C181.485 155.854 181.489 155.87 181.489 155.887C181.489 155.903 181.485 155.92 181.476 155.934C181.467 155.947 181.456 155.958 181.442 155.966C181.428 155.974 181.413 155.979 181.397 155.981L181.261 155.971ZM180.278 154.924C180.239 154.919 180.2 154.921 180.162 154.932C180.124 154.942 180.089 154.96 180.058 154.985C179.965 155.056 179.969 155.112 179.988 155.154C180.077 155.408 180.765 155.723 181.228 155.784C181.022 155.478 180.634 154.99 180.292 154.924H180.278Z" fill="#209E52"/>
<path d="M153.766 165.981C153.437 166.011 153.107 165.929 152.83 165.746C152.769 165.69 152.723 165.621 152.695 165.543C152.666 165.466 152.656 165.382 152.666 165.3C152.669 165.25 152.685 165.202 152.712 165.16C152.739 165.118 152.777 165.084 152.821 165.061C153.289 164.798 154.819 165.582 154.992 165.676C155.009 165.685 155.022 165.698 155.031 165.715C155.039 165.732 155.042 165.751 155.039 165.77C155.037 165.788 155.028 165.805 155.016 165.819C155.003 165.832 154.987 165.841 154.969 165.845C154.573 165.928 154.17 165.973 153.766 165.981ZM153.083 165.187C153.025 165.184 152.967 165.195 152.914 165.22C152.896 165.23 152.881 165.244 152.87 165.261C152.86 165.279 152.854 165.299 152.853 165.319C152.846 165.372 152.852 165.426 152.87 165.477C152.888 165.528 152.917 165.573 152.956 165.61C153.19 165.822 153.822 165.854 154.669 165.714C154.175 165.448 153.638 165.27 153.083 165.187Z" fill="#209E52"/>
<path d="M154.955 165.845H154.908C154.44 165.634 153.546 164.807 153.616 164.37C153.616 164.267 153.705 164.14 153.958 164.112C154.049 164.103 154.14 164.112 154.227 164.14C154.314 164.167 154.394 164.212 154.463 164.272C154.931 164.675 155.03 165.709 155.034 165.751C155.037 165.767 155.035 165.784 155.028 165.799C155.022 165.814 155.011 165.827 154.997 165.836C154.984 165.842 154.969 165.845 154.955 165.845ZM154.019 164.286H153.972C153.808 164.286 153.794 164.37 153.794 164.389C153.747 164.652 154.365 165.305 154.828 165.587C154.796 165.154 154.633 164.741 154.36 164.403C154.273 164.325 154.159 164.283 154.042 164.286H154.019Z" fill="#209E52"/>
<path d="M157.814 43.0922L157.042 43.0688C157.042 43.0688 157.557 43.5368 157.814 43.0922Z" fill="#263238"/>
<path d="M168.251 78.2653L168.648 79.6745C168.7 79.7872 168.574 79.8952 168.391 79.8952H152.376C152.236 79.8952 152.119 79.8248 152.114 79.7402L151.974 78.331C151.974 78.2324 152.081 78.1526 152.236 78.1526H168.012C168.058 78.1511 168.103 78.1605 168.145 78.1801C168.186 78.1997 168.223 78.2289 168.251 78.2653Z" fill="#209E52"/>
<path opacity="0.2" d="M168.251 78.2653L168.648 79.6745C168.7 79.7872 168.574 79.8952 168.391 79.8952H152.376C152.236 79.8952 152.119 79.8248 152.114 79.7402L151.974 78.331C151.974 78.2324 152.081 78.1526 152.236 78.1526H168.012C168.058 78.1511 168.103 78.1605 168.145 78.1801C168.186 78.1997 168.223 78.2289 168.251 78.2653Z" fill="#FAFAFA"/>
<path d="M166.14 80.0313H166.566C166.65 80.0313 166.711 79.9891 166.706 79.9374L166.51 78.1196C166.497 78.0876 166.474 78.0606 166.444 78.0428C166.415 78.0251 166.38 78.0174 166.346 78.0209H165.925C165.84 78.0209 165.775 78.0679 165.78 78.1196L165.976 79.9374C165.976 79.9891 166.046 80.0313 166.14 80.0313Z" fill="#263238"/>
<path d="M153.565 80.0313H153.986C154.07 80.0313 154.131 79.9891 154.126 79.9374L153.93 78.1196C153.93 78.0679 153.85 78.0209 153.766 78.0209H153.345C153.261 78.0209 153.195 78.0679 153.2 78.1196L153.401 79.9374C153.406 79.9891 153.504 80.0313 153.565 80.0313Z" fill="#263238"/>
<path d="M159.85 80.0313H160.271C160.356 80.0313 160.416 79.9891 160.412 79.9374L160.215 78.1196C160.215 78.0679 160.136 78.0209 160.051 78.0209H159.63C159.546 78.0209 159.48 78.0679 159.485 78.1196L159.686 79.9374C159.691 79.9891 159.766 80.0313 159.85 80.0313Z" fill="#263238"/>
<path d="M161.68 79.0308L158.31 76.6165L158.624 80.5152C158.624 80.5152 160.87 81.5251 162.129 80.5527L161.68 79.0308Z" fill="#FFB573"/>
<path d="M172.589 60.4909C172.879 62.7879 173.127 65.0942 173.357 67.4005C173.586 69.7069 173.801 72.0132 173.993 74.3196L174.026 74.7517V74.9819C174.026 75.104 174.026 75.2261 174.026 75.3482C174.029 75.8608 173.936 76.3693 173.75 76.8467C173.401 77.6873 172.814 78.4062 172.06 78.9134C171.47 79.3221 170.828 79.6491 170.151 79.8858C169.539 80.1032 168.914 80.279 168.279 80.4119C165.897 80.8682 163.466 81.0072 161.048 80.8252L161.025 78.8806C162.115 78.7349 163.248 78.5612 164.334 78.3404C165.422 78.1362 166.494 77.8569 167.544 77.5043C168.46 77.2369 169.32 76.8074 170.085 76.236C170.295 76.0863 170.449 75.8718 170.525 75.6254C170.537 75.557 170.537 75.4871 170.525 75.4187L170.422 74.7188C170.085 72.4219 169.772 70.1296 169.486 67.828C169.201 65.5263 168.911 63.2247 168.677 60.9184L172.589 60.4909Z" fill="#FFB573"/>
<path d="M170.773 55.8594C172.332 56.3291 174.208 61.7215 174.208 61.7215L168.157 66.0618C168.157 66.0618 165.953 61.5665 166.608 59.542C167.287 57.4377 168.995 55.3145 170.773 55.8594Z" fill="#209E52"/>
<path d="M154.674 70.1767C153.089 68.5636 150.966 67.5949 148.713 67.4564C146.46 67.3178 144.236 68.0192 142.466 69.4259C140.697 70.8327 139.507 72.8457 139.126 75.0787C138.745 77.3116 139.198 79.6073 140.4 81.5252L139.993 84.8978L143.358 84.4938C145.268 85.6992 147.554 86.1546 149.777 85.7728C152.001 85.391 154.006 84.1989 155.408 82.425C156.81 80.651 157.511 78.4201 157.375 76.1599C157.24 73.8996 156.278 71.7691 154.674 70.1767ZM145.497 79.3832C144.962 78.8472 144.599 78.1642 144.451 77.4207C144.304 76.6772 144.38 75.9065 144.669 75.2061C144.958 74.5058 145.447 73.9071 146.075 73.486C146.703 73.0648 147.442 72.84 148.197 72.84C148.952 72.84 149.691 73.0648 150.319 73.486C150.947 73.9071 151.436 74.5058 151.725 75.2061C152.014 75.9065 152.09 76.6772 151.942 77.4207C151.795 78.1642 151.431 78.8472 150.897 79.3832C150.543 79.7397 150.122 80.0225 149.659 80.2155C149.195 80.4085 148.699 80.5078 148.197 80.5078C147.695 80.5078 147.198 80.4085 146.735 80.2155C146.272 80.0225 145.851 79.7397 145.497 79.3832Z" fill="#209E52"/>
<path opacity="0.4" d="M154.674 70.1767C153.089 68.5636 150.966 67.5949 148.713 67.4564C146.46 67.3178 144.236 68.0192 142.466 69.4259C140.697 70.8327 139.507 72.8457 139.126 75.0787C138.745 77.3116 139.198 79.6073 140.4 81.5252L139.993 84.8978L143.358 84.4938C145.268 85.6992 147.554 86.1546 149.777 85.7728C152.001 85.391 154.006 84.1989 155.408 82.425C156.81 80.651 157.511 78.4201 157.375 76.1599C157.24 73.8996 156.278 71.7691 154.674 70.1767ZM145.497 79.3832C144.962 78.8472 144.599 78.1642 144.451 77.4207C144.304 76.6772 144.38 75.9065 144.669 75.2061C144.958 74.5058 145.447 73.9071 146.075 73.486C146.703 73.0648 147.442 72.84 148.197 72.84C148.952 72.84 149.691 73.0648 150.319 73.486C150.947 73.9071 151.436 74.5058 151.725 75.2061C152.014 75.9065 152.09 76.6772 151.942 77.4207C151.795 78.1642 151.431 78.8472 150.897 79.3832C150.543 79.7397 150.122 80.0225 149.659 80.2155C149.195 80.4085 148.699 80.5078 148.197 80.5078C147.695 80.5078 147.198 80.4085 146.735 80.2155C146.272 80.0225 145.851 79.7397 145.497 79.3832Z" fill="black"/>
<path d="M155.091 76.7621L155.53 80.0126L158.624 80.5152L158.31 76.6165L155.091 76.7621Z" fill="#FFB573"/>
<path d="M99.9321 162.473C89.5463 162.473 79.3936 159.382 70.758 153.591C62.1224 147.8 55.3917 139.569 51.4172 129.938C47.4427 120.308 46.4028 109.711 48.4291 99.4871C50.4554 89.2634 55.4568 79.8724 62.8009 72.5018C62.8886 72.4143 63.0072 72.3652 63.1309 72.3652C63.2545 72.3652 63.3731 72.4143 63.4608 72.5018L69.0207 78.0774C69.1088 78.1658 69.1583 78.2858 69.1583 78.4109C69.1583 78.536 69.1088 78.6559 69.0207 78.7444C68.9325 78.8328 68.813 78.8825 68.6884 78.8825C68.5638 78.8825 68.4442 78.8328 68.3561 78.7444L63.1332 73.5023C53.6053 83.2393 48.2942 96.3589 48.3555 110.006C48.4168 123.654 53.8456 136.725 63.4605 146.375C73.0755 156.026 86.0986 161.474 99.6961 161.536C113.294 161.598 126.365 156.267 136.066 146.704L130.834 141.452C130.746 141.364 130.696 141.244 130.696 141.119C130.696 140.994 130.746 140.874 130.834 140.785C130.922 140.697 131.042 140.647 131.166 140.647C131.291 140.647 131.411 140.697 131.499 140.785L137.063 146.37C137.107 146.414 137.142 146.466 137.166 146.523C137.189 146.581 137.202 146.642 137.202 146.704C137.202 146.766 137.189 146.827 137.166 146.885C137.142 146.942 137.107 146.994 137.063 147.037C132.198 151.946 126.411 155.838 120.038 158.487C113.664 161.137 106.831 162.491 99.9321 162.473Z" fill="#209E52"/>
<path d="M99.932 154.6C124.6 154.6 144.598 134.529 144.598 109.77C144.598 85.0105 124.6 64.9393 99.932 64.9393C75.2637 64.9393 55.2661 85.0105 55.2661 109.77C55.2661 134.529 75.2637 154.6 99.932 154.6Z" fill="#209E52"/>
<g opacity="0.2">
<path opacity="0.2" d="M134.265 73.0184L138.271 73.7888C137.92 74.0565 137.676 74.4699 137.311 74.7282C140.175 74.7611 143.203 74.4323 145.965 75.1979C148.543 75.9213 150.757 74.996 153.392 75.2778C154.936 75.4469 171.985 76.5977 171.494 78.9182C170.291 78.7303 168.719 78.129 167.586 78.7913L169.617 79.665C168.541 80.2616 165.639 80.7689 165.653 81.7976C165.653 82.535 166.664 82.8638 166.936 83.5214C167.207 84.1791 167.085 85.2218 167.146 85.9123C166.308 85.1514 164.025 83.7939 163.706 82.7746C163.388 81.7553 165.246 79.867 162.518 80.271C161.521 80.4166 161.624 81.3137 161.366 81.4124C160.73 81.6613 159.546 81.4781 158.853 81.5016C156.555 81.5815 156.71 82.0183 155.69 84.01C157.07 84.2589 158.877 84.2401 159.78 85.1514C160.683 86.0626 161.38 89.0783 160.37 90.0036C159.874 90.4733 159.162 90.107 158.849 90.3559C158.535 90.6049 157.978 91.9248 158.081 92.2865C158.371 93.3058 161.554 94.4472 158.708 95.1988C158.348 94.6022 157.552 92.4932 156.925 92.2442C156.041 91.8919 154.988 93.287 154.959 91.4457L153.687 92.5354C153.989 92.9036 154.389 93.1786 154.84 93.329C155.291 93.4794 155.775 93.499 156.237 93.3856C154.435 93.8553 155.666 95.2645 156.209 95.908C157.047 96.8945 157.094 96.9226 157.145 98.0265C157.243 100.056 155.858 101.681 153.78 102.141C152.736 102.371 151.978 102.024 151.304 102.761C150.279 103.875 151.276 103.964 151.852 104.889C152.254 105.542 153.073 106.857 152.938 107.646C152.821 108.318 151.534 109.145 150.977 109.671C150.27 108.633 149.741 107.252 148.375 106.918C148.253 108.633 148.099 109.29 149.311 110.62C149.685 111.028 150.148 111.235 150.406 111.677C150.663 112.118 150.598 113.053 150.874 113.631C147.298 111.705 147.855 108.032 146.629 104.626C145.815 106.712 145.024 103.86 144.668 103.217C143.863 101.808 143.025 101.338 141.439 102.277C140.671 102.724 138.603 104.697 138.299 105.504C137.597 107.355 138.874 108.102 137.363 109.732C136.23 108.929 135.959 107.167 135.537 105.974C135.069 104.668 134.241 103.217 134.367 101.794C133.534 103.583 132.355 101.366 131.588 100.713C130.455 99.7739 129.716 100.187 128.204 100.046C127.614 99.9353 127.036 99.7686 126.477 99.5484C126.772 99.6282 125.803 98.9753 125.939 99.0317C125.738 98.9424 125.419 99.3276 125.139 99.2196C124.254 98.872 122.602 97.0776 121.82 97.5239C122.157 98.1909 122.827 100.098 123.51 100.478C124.572 101.07 125.382 99.8631 126.201 100.009C126.833 100.437 127.387 100.971 127.839 101.587C127.979 102.202 127.839 101.982 127.371 102.785C126.834 103.823 125.966 104.65 124.905 105.133C124.076 105.603 122.153 106.824 121.161 106.848C119.869 106.876 119.892 106.322 119.34 105.279C118.788 104.236 116.237 97.9278 114.992 98.6418C115.966 100.756 116.794 103.034 117.997 105.039C118.427 105.758 119.649 108.097 120.43 108.417C121.366 108.797 123.154 107.947 123.973 107.698C123.575 111.456 120.501 112.865 118.704 115.759C117.075 118.361 120.037 121.395 118.076 123.678C117.552 124.293 116.097 124.58 115.736 125.28C115.437 125.858 116.008 126.741 115.83 127.384C115.596 128.225 115.091 127.92 114.576 128.662C114.155 129.263 114.29 130.127 113.808 130.813C113.422 131.448 112.908 131.995 112.299 132.419C111.689 132.843 110.998 133.135 110.27 133.275C108.028 133.782 107.837 133.711 107.102 131.743L104.832 125.703C104.261 124.176 104.5 123.57 104.958 121.945C105.417 120.32 105.585 119.948 104.907 118.474C104.403 117.554 103.961 116.601 103.582 115.622C103.334 114.786 103.582 114.166 103.475 113.297C103.381 112.611 103.409 112.24 102.773 111.681C102.6 111.526 102.001 111.846 101.785 111.733C101.57 111.62 101.369 110.934 101.102 110.883C99.9835 110.671 98.4485 111.423 97.1568 111.475C95.1912 111.55 93.8808 111.517 92.5891 110.305C91.2974 109.093 90.1696 107.717 90.0666 105.894C89.842 101.911 92.795 100.455 94.433 97.242C94.9759 96.1758 94.433 95.7859 95.8136 94.9686C96.511 94.5505 96.7028 94.5881 97.578 94.4237C99.6559 94.0338 101.841 93.954 103.943 93.7003C103.76 95.288 103.629 95.0484 104.916 95.8282C105.941 96.4482 107.13 96.9039 108.192 97.4299C108.553 95.1706 111.567 96.8193 113.223 96.9602C115.76 97.1857 115.315 95.9738 115.741 93.846C114.749 93.8976 113.443 94.1936 112.498 93.8788C111.094 93.4091 111.309 92.8126 111.094 91.502L109.531 91.7886C109.697 92.1029 109.793 92.4499 109.811 92.8053C109.83 93.1607 109.771 93.5159 109.638 93.846C109.106 93.3599 108.616 92.8287 108.174 92.2583C107.968 91.9201 107.949 91.2625 107.762 91.0135C107.088 90.1164 105.801 89.3789 104.926 88.6649C103.877 90.1633 106.33 91.3282 107.397 91.906C106.381 93.1085 106.096 94.311 104.64 93.0145C106.278 93.1179 106.461 92.6951 105.656 91.5631C104.799 90.3512 103.667 89.6842 102.45 89.7547C102.263 89.7547 102.118 90.2667 101.93 90.2855C101.743 90.3042 101.172 89.905 100.994 89.9942C100.817 90.0835 100.494 89.8815 100.335 89.952C100.175 90.0224 100.414 90.5955 100.335 90.6706C99.6185 91.3094 99.0943 92.2865 98.4625 92.9394C97.6248 93.8178 96.7262 94.6069 95.4439 93.8788C94.5079 93.3293 94.1616 91.4598 94.7794 90.478C95.5328 89.2802 97.1943 90.774 98.2753 89.966C99.3564 89.1581 97.9056 87.918 97.3393 87.2933C98.2258 87.0292 99.0909 86.6979 99.9274 86.3022C100.863 85.762 100.597 85.3346 101.359 84.7709C101.949 84.3294 102.347 84.6018 102.731 84.0992C103.297 83.3617 102.057 82.582 103.718 82.5068C102.81 84.8555 106.905 84.5642 108.089 83.7234C108.342 83.5449 108.122 82.9484 108.3 82.6947C108.526 82.4695 108.77 82.2637 109.03 82.0794V81.4547H109.826C110.359 81.0601 110.724 81.7788 110.986 80.8111C109.835 81.0084 109.175 81.4312 108.44 80.6796C107.401 79.618 108.291 79.3644 109.212 78.6222C107.523 77.4103 105.038 80.8393 107.106 81.1446C106.718 81.6144 105.674 83.5167 105.099 83.6389C103.952 83.8878 104.163 82.2861 104.008 81.5063C103.241 81.8117 102.721 82.1921 102.202 81.8633C101.603 81.4875 101.622 80.4823 101.795 80.1723C102.15 79.5382 103.779 79.3221 104.397 78.8289C105.015 78.3357 105.333 77.3164 106.044 76.8608C108.417 75.3013 113.111 75.8744 115.278 77.5419C114.29 78.1431 113.059 77.7485 111.974 77.6217C112.61 78.4672 113.499 79.5006 114.655 79.1389C114.8 79.092 115.072 78.3498 115.343 78.176C115.966 77.7673 117.037 77.5794 117.749 77.3258C120.131 76.485 121.961 76.4662 124.469 76.9265C123.248 73.6385 125.223 75.5174 127.493 75.1087C128.578 74.9161 129.575 74.0565 130.623 73.723C131.822 73.4165 133.038 73.1812 134.265 73.0184Z" fill="black"/>
<path opacity="0.2" d="M99.4266 85.8278L96.6935 86.429C96.993 85.9875 97.8073 85.2031 97.8541 84.7145C97.9477 83.6765 97.3861 84.2166 97.2176 83.8315C96.4408 82.225 96.862 82.1733 98.3081 81.3654C98.5046 82.1593 98.5608 83.2772 98.9586 84.0147C99.3564 84.7521 100.554 85.095 99.4266 85.8278Z" fill="black"/>
<path opacity="0.2" d="M96.9556 83.9113C96.16 85.2829 96.8105 85.2688 94.9525 85.5694C95.4299 84.4609 95.1585 83.202 96.9556 83.9113Z" fill="black"/>
<path opacity="0.2" d="M120.594 75.8462C117.36 74.8645 122.433 73.4365 123.07 73.2768C121.75 73.2768 119.911 73.0091 118.858 74.0471C117.702 75.198 119.073 76.4944 120.594 75.8462Z" fill="black"/>
<path opacity="0.2" d="M105.702 73.2768L106.872 72.3374C105.836 71.9085 104.701 71.7831 103.596 71.9757L105.702 73.2768Z" fill="black"/>
<path opacity="0.2" d="M106.353 71.6281C107.214 72.5676 108.384 72.0978 109.531 71.9522C108.468 71.8019 107.425 71.6986 106.353 71.6281Z" fill="black"/>
<path opacity="0.2" d="M160.524 95.5276C160.785 96.0729 161.128 96.575 161.54 97.0166C162.008 94.9733 163.281 96.0161 164.614 94.776C165.335 94.109 165.284 92.6999 164.324 91.7463C162.976 90.3982 164.053 92.4744 163.515 93.4279C162.915 94.4613 161.296 94.5083 160.524 95.5276Z" fill="black"/>
<path opacity="0.2" d="M163.238 91.1263L163.655 90.9712C163.589 90.8162 163.519 90.6612 163.449 90.5015C164.217 90.7834 164.984 90.7787 165.218 89.9379L162.667 88.881C163.379 89.8627 162.284 90.3888 163.238 91.1263Z" fill="black"/>
<path opacity="0.2" d="M162.485 88.5052H163.135C162.18 86.9776 161.1 85.5322 159.906 84.1838C159.49 85.1467 161.858 87.5376 162.485 88.5052Z" fill="black"/>
<path opacity="0.2" d="M158.137 100.258C157.393 100.591 157.426 101.343 157.945 101.972L158.137 100.258Z" fill="black"/>
<path opacity="0.2" d="M152.498 103.24H153.293C153.05 103.987 153.153 103.889 152.39 103.978L152.498 103.24Z" fill="black"/>
<path opacity="0.2" d="M146.142 111.08C148.89 112.24 151.576 114.697 151.576 117.614C150.148 117.501 149.119 115.669 148.529 114.598C147.939 113.527 146.428 112.099 146.142 111.08Z" fill="black"/>
<path opacity="0.2" d="M154.257 113.532L153.453 113.354C152.671 115.519 155.203 117.581 156.864 115.975C157.632 115.232 157.473 113.856 157.632 112.978C157.856 111.752 158.324 111.329 157.122 110.394L154.257 113.532Z" fill="black"/>
<path opacity="0.2" d="M157.042 110.033C157.627 109.323 158.446 108.675 158.446 107.717C157.983 108.506 157.51 109.262 157.042 110.033Z" fill="black"/>
<path opacity="0.2" d="M159.05 107.308C158.114 105.998 158.175 105.57 158.292 103.978C159.429 104.109 158.853 105.706 159.541 106.519C160.533 107.689 161.745 107.679 161.825 109.549C161.872 110.676 161.254 111.667 160 110.451C159.171 109.647 159.724 108.313 159.05 107.308Z" fill="black"/>
<path opacity="0.2" d="M161.287 113.556C160.192 114.138 159.134 113.236 158.451 114.537C159.387 113.851 160.122 114.152 161.156 114.345C161.229 114.088 161.273 113.823 161.287 113.556Z" fill="black"/>
<path opacity="0.2" d="M160.248 114.688C159.181 115.463 158.615 114.434 158.184 115.852C158.011 116.421 158.292 117.633 158.919 117.614C158.895 116.938 158.647 116.205 159.19 115.768C159.054 116.585 159.34 117.102 160.248 116.773L159.49 115.364C159.836 115.402 160.21 115.218 160.557 115.261L160.248 114.688Z" fill="black"/>
<path opacity="0.2" d="M155.924 118.779C154.889 118.506 152.423 117.318 151.576 118.084C152.643 118.558 155.044 119.779 155.924 118.779Z" fill="black"/>
<path opacity="0.2" d="M162.901 112.94C162.638 113.201 162.468 113.543 162.421 113.912C162.373 114.28 162.45 114.654 162.639 114.974C162.816 114.67 162.929 114.333 162.974 113.984C163.019 113.634 162.995 113.28 162.901 112.94Z" fill="black"/>
<path opacity="0.2" d="M162.705 116.022C162.831 116.637 163.5 116.491 164.202 116.562C164.062 115.89 163.43 115.862 162.705 116.022Z" fill="black"/>
<path opacity="0.2" d="M161.989 116.022L162.274 116.294C162.1 116.362 161.906 116.362 161.731 116.294L161.989 116.022Z" fill="black"/>
<path opacity="0.2" d="M164.305 114.974C164.305 116.383 165.663 116.811 166.645 117.257C167.628 117.703 168.761 118.154 167.216 119.164C167.961 119.056 168.597 119.549 169.182 119.498C169.494 119.52 169.806 119.52 170.118 119.498C170.361 119.441 170.488 118.624 170.731 118.619C171.447 118.619 171.354 118.887 171.99 119.347C172.564 119.851 173.254 120.205 173.998 120.376C173.132 119.324 172.177 117.633 171.12 116.825C170.652 116.468 168.667 115.557 168.031 115.542C167.273 115.542 167.048 115.834 166.318 116.388C166.037 115.444 165.606 114.143 164.305 114.974Z" fill="black"/>
<path opacity="0.2" d="M172.612 117.285C173.436 117.901 175.888 117.713 175.112 116.388C174.4 117.389 173.778 117.285 172.612 117.285Z" fill="black"/>
<path opacity="0.2" d="M164.647 120.63C164.296 121.071 163.458 122.602 162.953 122.767C162.167 123.016 161.862 122.255 161.249 122.368C159.906 122.621 158.474 125.003 157.309 125.688C155.287 126.872 154.215 126.548 153.925 129.169C153.822 130.132 154.318 131.25 154.094 132.189C153.888 133.058 152.69 133.453 154.234 133.937C155.699 134.407 158.657 132.716 160.206 132.424C161.039 132.265 161.413 131.955 162.242 132.424C162.906 132.814 162.93 133.542 163.379 134.2C166.145 138.263 170.867 134.228 172.481 131.255C173.572 129.263 173.034 127.643 171.812 125.862C171.288 125.101 170.984 124.923 170.637 124.063C170.207 122.992 170.062 121.715 169.781 120.611L167.942 124.369C166.206 123.077 165.602 123.19 166.627 121.315L164.647 120.63Z" fill="black"/>
<path opacity="0.2" d="M165.307 136.99L167.493 137.126C166.851 137.972 166.44 139.137 165.153 138.775L165.307 136.99Z" fill="black"/>
<path opacity="0.2" d="M173.464 139.874C175.14 140.762 175.158 140.447 176.74 139.404C177.592 138.841 179.792 138.127 178.612 136.981L173.464 139.874Z" fill="black"/>
<path opacity="0.2" d="M179.052 136.99C179.212 137.238 179.399 137.468 179.609 137.676C180.077 137.3 182.08 136.145 182.155 135.623C182.23 135.102 181.036 134.073 180.648 133.594L179.052 136.99Z" fill="black"/>
<path opacity="0.2" d="M186.802 123.951C186.528 124.07 186.266 124.216 186.021 124.387C186.732 124.913 187.584 124.852 186.802 123.951Z" fill="black"/>
<path opacity="0.2" d="M178.912 125.801C178.912 125.801 181.093 127.483 180.919 126.961C180.699 126.309 179.558 125.754 178.912 125.801Z" fill="black"/>
<path opacity="0.2" d="M156.555 118.986C156.855 120.071 160.613 119.23 161.731 118.986H156.555Z" fill="black"/>
<path opacity="0.2" d="M158.451 119.808C158.685 120.334 159.934 120.902 160.271 120.221L158.451 119.808Z" fill="black"/>
<path opacity="0.2" d="M123.145 121.25C122.078 122.217 120.735 123.025 120.416 124.392C120.248 125.106 119.733 128.093 120.36 128.554C121.811 129.625 122.298 126.313 122.579 125.534C123.21 123.763 123.552 123.067 123.145 121.25Z" fill="black"/>
<path opacity="0.2" d="M93.8621 77.819C94.9385 78.1103 95.4533 77.7721 96.4267 77.3493C95.8932 76.8749 92.4721 76.6635 93.8621 77.819Z" fill="black"/>
<path opacity="0.2" d="M65.8616 111.371C64.9584 112.874 64.1113 114.086 63.8025 115.777C63.3906 118.032 63.985 118.596 65.1737 120.63C65.493 121.332 65.8969 121.993 66.3765 122.598C67.0691 123.307 68.2485 123.565 68.9739 124.27C70.069 125.369 69.8163 126.365 69.9099 128.028C70.1345 131.565 69.9894 135.116 71.1501 138.493C71.7351 140.198 72.058 141.612 73.228 142.96C74.9034 144.895 75.5165 144.952 78.039 144.952C75.9845 143.322 75.128 143.073 75.0812 140.593C75.0344 138.31 74.8426 137.652 76.2466 135.896C78.8861 132.608 82.5412 129.319 83.9499 125.397C84.4116 124.11 84.8718 122.823 85.3305 121.536C85.5972 120.794 86.8047 118.751 86.6081 117.966C86.332 116.872 82.6254 116.05 81.3103 115.552C80.7534 115.336 79.5647 115.12 79.1669 114.692C78.4181 113.894 78.6708 112.278 77.9688 111.437C77.0328 110.305 73.2327 108.995 71.7538 108.562C70.6914 108.252 70.303 108.299 69.0862 108.473C68.0144 108.623 66.8351 109.187 65.9085 109.314C65.1172 109.316 64.3296 109.207 63.5685 108.99C62.2393 108.295 62.8618 106.904 63.049 105.819L60.4422 105.514L61.8462 102.226C60.7464 102.541 60.4843 102.982 59.6934 103.391C59.1786 103.654 58.0882 104.279 57.4564 103.95C56.0524 103.217 56.2957 100.192 57.1288 99.0928C57.8308 98.1533 60.4328 97.491 61.776 97.3548C64.4436 97.0871 64.336 98.2943 65.0754 100.37C66.0769 99.0975 64.9397 97.7635 65.5434 96.5657C66.0442 95.598 68.0706 94.9639 68.8802 94.1372C71.1688 91.8168 72.0627 89.9567 75.2965 88.8153V89.501L78.0718 88.4019H76.0921C76.1546 87.8555 76.3596 87.3354 76.6865 86.8941L74.6039 87.2041C76.3542 86.2647 79.0452 86.6076 80.5335 85.6587C82.1153 84.6488 80.145 82.1499 79.5647 80.891L77.6553 82.0231C76.9392 80.9944 78.2683 80.7219 76.5976 80.0925C75.1936 79.5711 74.983 80.0925 74.2295 80.9568C73.476 81.8211 71.4215 85.903 70.1579 85.8983C70.5276 84.3388 70.9863 84.1509 69.7601 83.4651C68.9551 82.9954 66.2688 83.2115 66.6572 81.5862C66.924 80.473 71.6134 78.627 72.7974 77.9506C72.5821 78.3451 72.5353 78.8195 72.3294 79.2188L74.5899 79.1859L73.1859 77.9506C74.9502 77.7298 75.2685 77.8566 76.1389 76.3723C74.9877 76.1468 74.2061 76.842 73.2935 77.401C73.5369 76.1327 72.1235 76.5649 71.1969 76.5508L64.8227 76.4521C63.1706 76.4521 61.4765 76.2924 59.8291 76.377C58.5983 76.4427 57.3487 76.9125 56.1272 76.9031C53.0338 76.9031 50.9231 75.5644 47.8296 76.2877C44.5536 77.0487 42.6816 78.5565 39.9344 80.4542C40.2667 80.844 40.6037 81.2339 40.9406 81.6191L38.6006 83.2678C41.0389 82.4458 44.4132 80.5716 46.9498 80.6984C48.424 80.7736 49.9964 81.2245 50.3662 82.3143C50.7359 83.404 50.4832 85.3346 50.1696 86.3915C49.4582 88.7965 45.9155 92.4086 47.5909 95.133C47.8062 95.4853 48.5269 95.5276 48.7609 95.9034C49.1587 96.5375 48.8124 97.9232 48.9856 98.6606C49.2008 99.6001 49.9216 101.568 51.1337 101.512C50.3428 99.7175 49.8092 98.4587 49.6408 96.5422C51.0448 96.9321 52.4113 100.3 52.6687 101.455C52.781 101.963 52.547 102.677 52.7483 103.081C53.0197 103.626 54.9666 104.706 55.4908 104.927C56.2208 105.232 57.1756 104.927 57.8682 105.251C58.383 105.481 59.2254 106.439 59.7402 106.806C60.124 107.073 60.606 107.017 60.9476 107.318C61.2893 107.618 61.4157 108.304 61.7479 108.675C62.3423 109.314 63.3532 109.709 64.1394 110.155C64.584 108.205 65.637 110.826 65.8616 111.371Z" fill="black"/>
<path opacity="0.2" d="M62.9647 101.93C64.8695 101.192 65.9927 103.424 67.8928 103.062C65.8523 102 65.1175 101.108 62.9647 101.93Z" fill="black"/>
<path opacity="0.2" d="M68.328 103.311C69.264 103.41 70.5557 103.17 70.8271 104.17C69.6992 104.372 68.7492 104.701 67.7056 104.067C68.0566 104.067 68.431 103.926 68.782 103.912L68.328 103.311Z" fill="black"/>
<path opacity="0.2" d="M65.8102 103.912C66.1493 103.967 66.4852 104.041 66.8164 104.133C66.4998 104.305 66.1613 104.433 65.8102 104.513V103.912Z" fill="black"/>
<path opacity="0.2" d="M71.3279 103.912C71.4449 104.08 71.6161 104.201 71.8124 104.256C72.0088 104.311 72.2179 104.295 72.4043 104.213C72.072 104.114 71.6929 103.992 71.3279 103.912Z" fill="black"/>
<path opacity="0.2" d="M80.3884 85.8795L78.6474 87.5517L81.666 88.3079C81.6239 87.8711 81.7222 87.0068 81.5069 86.6075C81.2495 86.1096 80.2901 87.0538 80.3884 85.8795Z" fill="black"/>
<path opacity="0.2" d="M78.6474 77.3493L75.6662 78.6833C76.532 78.9933 78.4743 80.1254 79.3494 79.9891C80.2246 79.8529 81.6426 78.27 82.368 77.7251C81.432 76.8467 80.1169 75.0664 78.9095 74.639C78.0876 74.3891 77.2173 74.344 76.3741 74.5077C75.5309 74.6714 74.7402 75.0389 74.0704 75.5784C74.398 75.8556 74.8753 76.4756 75.2872 76.6071C75.5726 76.7011 76.0734 76.175 76.3729 76.2267C77.22 76.3723 78.3666 76.4709 78.6474 77.3493Z" fill="black"/>
<path opacity="0.2" d="M77.6459 76.936C76.3168 77.3211 77.1217 77.7345 78.0297 77.2272L77.6459 76.936Z" fill="black"/>
<path opacity="0.2" d="M71.7116 76.9359C69.6758 75.5268 73.8457 73.9861 75.0438 73.9861C74.4307 74.3431 73.0642 74.8363 72.7506 75.3953C72.3434 76.1515 73.3356 77.3963 71.7116 76.9359Z" fill="black"/>
<path opacity="0.2" d="M63.0349 76.9359C63.0349 76.3722 63.8305 75.4234 64.1066 74.9114C63.297 75.1274 62.1036 75.8884 61.7666 74.9114C63.2362 74.4135 64.0318 74.0189 65.4826 74.2913C67.1767 74.6108 67.6681 74.9349 69.3997 74.6389C69.0862 75.4375 68.693 76.0763 68.9317 76.9359H63.0349Z" fill="black"/>
<path opacity="0.2" d="M65.3936 73.4036C67.5043 74.4088 68.6696 74.0988 71.0097 73.831C70.2141 73.6525 69.1377 73.0513 68.4029 72.9574C67.5231 72.8446 66.2875 73.2768 65.3936 73.4036Z" fill="black"/>
<path opacity="0.2" d="M71.4355 74.2632C70.9726 74.3465 70.5183 74.4723 70.0783 74.639C70.216 74.9428 70.4043 75.2208 70.6352 75.461L72.5774 74.2632C72.1971 74.2421 71.8159 74.2421 71.4355 74.2632Z" fill="black"/>
<path opacity="0.2" d="M72.1609 73.4741C73.0688 74.066 75.7224 73.7888 76.8128 73.8687C78.3151 73.9814 78.61 73.8687 79.9578 73.197C82.4335 71.9475 84.9467 71.5341 87.6798 70.9329C84.839 70.9329 81.769 70.5994 78.9563 70.9329C77.4306 71.1161 72.2592 71.6657 72.1609 73.4741Z" fill="black"/>
<path opacity="0.2" d="M83.2104 73.2063C85.6487 72.4501 87.6658 71.8582 90.2304 71.6891C92.73 71.5121 95.2414 71.6145 97.7184 71.9944C96.5624 73.1735 95.2708 75.104 93.7825 75.818C92.7061 76.3347 91.2319 76.1092 90.1555 76.6259C89.3225 77.0299 88.5643 77.974 87.867 78.5753C86.1073 80.1113 85.2696 78.4015 85.5738 76.5789C85.6955 75.8274 86.6315 74.5262 85.7984 73.7606C85.2041 73.2768 83.875 73.7747 83.2104 73.2063Z" fill="black"/>
</g>
<path d="M99.932 168.776C99.8079 168.776 99.6889 168.727 99.6011 168.639C99.5134 168.551 99.4641 168.431 99.4641 168.306V162.003C99.4641 161.878 99.5134 161.759 99.6011 161.671C99.6889 161.583 99.8079 161.533 99.932 161.533C100.056 161.533 100.175 161.583 100.263 161.671C100.351 161.759 100.4 161.878 100.4 162.003V168.306C100.4 168.431 100.351 168.551 100.263 168.639C100.175 168.727 100.056 168.776 99.932 168.776Z" fill="#209E52"/>
<path d="M113.345 168.307C113.345 169.067 107.34 169.683 99.932 169.683C92.5236 169.683 86.5145 169.067 86.5145 168.307C86.5145 167.546 92.5236 165.648 99.932 165.648C107.34 165.648 113.345 167.546 113.345 168.307Z" fill="#209E52"/>
</svg>
