<svg width="234" height="174" viewBox="0 0 234 174" fill="none" xmlns="http://www.w3.org/2000/svg">
<path d="M233.52 152.909H0V153.025H233.52V152.909Z" fill="#EBEBEB"/>
<path d="M210.121 160.424H194.653V160.54H210.121V160.424Z" fill="#EBEBEB"/>
<path d="M154.693 161.693H150.634V161.81H154.693V161.693Z" fill="#EBEBEB"/>
<path d="M194.186 156.09H185.223V156.206H194.186V156.09Z" fill="#EBEBEB"/>
<path d="M44.6723 156.874H24.5009V156.99H44.6723V156.874Z" fill="#EBEBEB"/>
<path d="M51.79 156.874H48.8336V156.99H51.79V156.874Z" fill="#EBEBEB"/>
<path d="M105.154 158.845H61.4017V158.962H105.154V158.845Z" fill="#EBEBEB"/>
<path d="M110.688 132.079H20.5077C19.8012 132.077 19.1241 131.796 18.625 131.296C18.1259 130.796 17.8455 130.118 17.8455 129.412V2.64344C17.8517 1.94103 18.1347 1.2694 18.6332 0.774453C19.1316 0.279503 19.8052 0.00120327 20.5077 0H110.688C111.396 0 112.074 0.280965 112.574 0.781086C113.074 1.28121 113.355 1.95952 113.355 2.66679V129.412C113.355 130.119 113.074 130.798 112.574 131.298C112.074 131.798 111.396 132.079 110.688 132.079ZM20.5077 0.0934082C19.8321 0.0946454 19.1847 0.363854 18.7075 0.841944C18.2303 1.32003 17.9623 1.96794 17.9623 2.64344V129.412C17.9623 130.087 18.2303 130.735 18.7075 131.213C19.1847 131.691 19.8321 131.961 20.5077 131.962H110.688C111.364 131.961 112.012 131.692 112.49 131.214C112.968 130.736 113.237 130.088 113.238 129.412V2.64344C113.237 1.96751 112.968 1.31962 112.49 0.841659C112.012 0.363702 111.364 0.0946428 110.688 0.0934082H20.5077Z" fill="#EBEBEB"/>
<path d="M211.714 132.079H121.528C120.821 132.077 120.144 131.796 119.644 131.296C119.144 130.796 118.863 130.119 118.862 129.412V2.64344C118.869 1.9406 119.153 1.26898 119.652 0.774161C120.151 0.27934 120.825 0.00119015 121.528 0H211.714C212.415 0.0024307 213.088 0.281274 213.585 0.776092C214.083 1.27091 214.365 1.94183 214.371 2.64344V129.412C214.371 130.118 214.091 130.794 213.593 131.294C213.095 131.794 212.419 132.076 211.714 132.079ZM121.528 0.0934082C120.852 0.0946428 120.205 0.363702 119.727 0.841659C119.249 1.31962 118.98 1.96751 118.978 2.64344V129.412C118.98 130.088 119.249 130.736 119.727 131.214C120.205 131.692 120.852 131.961 121.528 131.962H211.714C212.39 131.961 213.037 131.692 213.515 131.214C213.993 130.736 214.262 130.088 214.264 129.412V2.64344C214.262 1.96751 213.993 1.31962 213.515 0.841659C213.037 0.363702 212.39 0.0946428 211.714 0.0934082H121.528Z" fill="#EBEBEB"/>
<path d="M83.6654 87.6584L191.874 87.6584V15.7017L83.6654 15.7017L83.6654 87.6584Z" fill="#E6E6E6"/>
<path d="M81.9888 87.6584L190.197 87.6584V15.7017L81.9888 15.7017L81.9888 87.6584Z" fill="#F5F5F5"/>
<path d="M187.189 84.2771V19.0738L84.9919 19.0738V84.2771H187.189Z" fill="white"/>
<path d="M86.2622 84.2819V19.0785H84.9965V84.2819H86.2622Z" fill="#E6E6E6"/>
<path d="M83.2309 68.5427L188.955 68.5427V64.0077L83.2309 64.0077V68.5427Z" fill="#F5F5F5"/>
<g opacity="0.4">
<path opacity="0.4" d="M88.845 12.1478H78.6309V73.0218H88.845V12.1478Z" fill="#E6E6E6"/>
<path opacity="0.4" d="M88.8496 68.1315H93.9123V12.1475H88.8496V68.1315Z" fill="#F5F5F5"/>
<path opacity="0.4" d="M104.126 12.1478H93.9123V73.0217H104.126V12.1478Z" fill="#E6E6E6"/>
<path opacity="0.4" d="M104.131 68.1315H109.194V12.1475H104.131V68.1315Z" fill="#F5F5F5"/>
<path opacity="0.4" d="M119.408 12.1478H109.194V73.0217H119.408V12.1478Z" fill="#E6E6E6"/>
<path opacity="0.4" d="M119.413 68.1315H124.475V12.1475H119.413V68.1315Z" fill="#F5F5F5"/>
<path opacity="0.4" d="M134.689 12.1478H124.475V73.0217H134.689V12.1478Z" fill="#E6E6E6"/>
<path opacity="0.4" d="M134.694 68.1315H139.757V12.1475H134.694V68.1315Z" fill="#F5F5F5"/>
<path opacity="0.4" d="M149.971 12.1478H139.757V73.0217H149.971V12.1478Z" fill="#E6E6E6"/>
<path opacity="0.4" d="M149.971 68.1315H155.034V12.1475H149.971V68.1315Z" fill="#F5F5F5"/>
<path opacity="0.4" d="M165.248 12.1478H155.034V73.0217H165.248V12.1478Z" fill="#E6E6E6"/>
<path opacity="0.4" d="M165.253 68.1315H170.315V12.1475H165.253V68.1315Z" fill="#F5F5F5"/>
<path opacity="0.4" d="M180.529 12.1478H170.315V73.0217H180.529V12.1478Z" fill="#E6E6E6"/>
<path opacity="0.4" d="M180.534 68.1315H185.597V12.1475H180.534V68.1315Z" fill="#F5F5F5"/>
<path opacity="0.4" d="M195.811 12.1478H185.597V73.0217H195.811V12.1478Z" fill="#E6E6E6"/>
</g>
<path d="M38.6662 152.909H62.6206L62.6206 103.683H38.6662L38.6662 152.909Z" fill="#EBEBEB"/>
<path d="M43.2153 152.909H38.6663V142.882H47.9884L43.2153 152.909Z" fill="#F5F5F5"/>
<path d="M175.341 152.909H199.295V103.683H175.341V152.909Z" fill="#EBEBEB"/>
<path d="M38.6661 146.758L179.31 146.758V103.683L38.6661 103.683V146.758Z" fill="#F5F5F5"/>
<path d="M174.635 134.605H132.943C132.841 134.605 132.744 134.565 132.672 134.493C132.6 134.421 132.56 134.324 132.56 134.222V106.952C132.56 106.85 132.6 106.753 132.672 106.681C132.744 106.609 132.841 106.569 132.943 106.569H140.64C140.722 106.567 140.803 106.594 140.868 106.644C142.013 107.48 143.281 108.131 144.628 108.573C146.252 109.11 147.952 109.382 149.663 109.376H157.911C161.066 109.431 164.156 108.479 166.733 106.658C166.797 106.608 166.876 106.582 166.957 106.583H174.659C174.76 106.583 174.858 106.623 174.93 106.695C175.001 106.767 175.042 106.864 175.042 106.966V134.222C175.042 134.275 175.031 134.327 175.01 134.375C174.99 134.423 174.959 134.466 174.921 134.502C174.883 134.538 174.838 134.565 174.789 134.583C174.74 134.601 174.688 134.609 174.635 134.605ZM133.326 133.84H174.252V107.349H167.06C164.379 109.218 161.179 110.198 157.911 110.151H149.663C147.869 110.157 146.087 109.871 144.385 109.306C143.004 108.853 141.7 108.191 140.518 107.344H133.326V133.84Z" fill="#E6E6E6"/>
<path d="M129.837 134.605H88.1396C88.038 134.605 87.9406 134.565 87.8688 134.493C87.797 134.421 87.7566 134.324 87.7566 134.222V106.952C87.7566 106.85 87.797 106.753 87.8688 106.681C87.9406 106.609 88.038 106.569 88.1396 106.569H95.4207C95.5033 106.567 95.584 106.594 95.6496 106.644C96.7855 107.48 98.0466 108.131 99.3859 108.573C101.01 109.11 102.71 109.382 104.421 109.376H112.668C115.813 109.422 118.89 108.465 121.453 106.644C121.52 106.595 121.6 106.569 121.682 106.569H129.837C129.887 106.568 129.937 106.578 129.984 106.597C130.031 106.616 130.073 106.644 130.109 106.68C130.145 106.716 130.173 106.758 130.192 106.805C130.211 106.851 130.22 106.902 130.22 106.952V134.208C130.222 134.26 130.213 134.311 130.195 134.359C130.176 134.407 130.148 134.451 130.113 134.488C130.077 134.525 130.034 134.555 129.987 134.575C129.939 134.595 129.888 134.605 129.837 134.605ZM88.5272 133.839H129.454V107.349H121.832C119.154 109.217 115.957 110.197 112.692 110.151H104.444C102.651 110.157 100.868 109.871 99.1664 109.306C97.7824 108.856 96.4764 108.194 95.2946 107.344H88.5226L88.5272 133.839Z" fill="#E6E6E6"/>
<path d="M85.0338 134.605H43.3413C43.2397 134.605 43.1423 134.565 43.0704 134.493C42.9986 134.421 42.9583 134.324 42.9583 134.222V106.952C42.9577 106.902 42.9671 106.851 42.9862 106.805C43.0052 106.758 43.0334 106.716 43.0691 106.68C43.1047 106.644 43.1472 106.616 43.194 106.597C43.2407 106.578 43.2908 106.568 43.3413 106.569H50.6224C50.7034 106.568 50.7824 106.594 50.8466 106.644C51.9836 107.478 53.2443 108.129 54.5829 108.573C56.2084 109.11 57.9101 109.382 59.6222 109.376H67.8702C71.0173 109.422 74.0973 108.465 76.6645 106.644C76.7301 106.594 76.8108 106.567 76.8933 106.569H85.0105C85.1121 106.569 85.2095 106.609 85.2813 106.681C85.3531 106.753 85.3935 106.85 85.3935 106.952V134.208C85.3973 134.308 85.3618 134.406 85.2946 134.48C85.2274 134.554 85.1338 134.599 85.0338 134.605ZM43.7242 133.839H84.6509V107.349H77.0615C74.3816 109.217 71.1832 110.197 67.9169 110.151H59.6456C57.8522 110.158 56.0697 109.872 54.368 109.306C52.984 108.856 51.678 108.194 50.4963 107.344H43.7242V133.839Z" fill="#E6E6E6"/>
<path d="M174.762 152.909H179.311V142.882H169.993L174.762 152.909Z" fill="#F5F5F5"/>
<path d="M67.2256 95.4345H63.4473C63.4753 92.8191 63.4472 86.1778 63.181 70.9663C62.714 43.411 61.8406 41.7109 61.8406 41.7109L66.3195 55.3205C67.383 58.5211 68.0022 61.8526 68.1597 65.2217C68.6547 75.8328 66.7866 84.3049 67.2256 95.4345Z" fill="#E6E6E6"/>
<path d="M70.098 51.2153C75.1373 43.5886 85.1974 39.6094 95.4816 35.8637C99.5168 34.3925 88.1864 52.6398 79.9478 60.9157C73.5494 67.3422 67.3378 67.1974 65.5023 73.5258C65.1474 66.1746 65.7545 57.7866 70.098 51.2153Z" fill="#E6E6E6"/>
<path d="M64.3253 46.3209C60.3742 37.4005 50.3935 25.8319 39.1753 17.6821C34.7711 14.4829 45.6391 41.9681 53.3032 53.2051C59.272 61.9668 64.8391 67.3003 65.7078 73.5493C69.4721 65.7311 68.2718 55.2367 64.3253 46.3209Z" fill="#E6E6E6"/>
<path d="M64.6991 103.682C66.835 103.682 68.8899 102.865 70.4426 101.398C71.9953 99.9317 72.9281 97.9266 73.0497 95.7942L73.7923 88.2328H55.6058L56.3437 95.7942C56.4665 97.927 57.4003 99.9322 58.9537 101.399C60.5072 102.865 62.5627 103.682 64.6991 103.682Z" fill="#F0F0F0"/>
<path d="M54.4288 88.2751H74.9692L75.5576 85.5896H53.8403L54.4288 88.2751Z" fill="#F0F0F0"/>
<path d="M55.4422 92.8801H73.9556L74.4881 90.1946H54.9098L55.4422 92.8801Z" fill="#F0F0F0"/>
<path d="M116.76 174C166.772 174 207.314 171.633 207.314 168.713C207.314 165.793 166.772 163.426 116.76 163.426C66.7481 163.426 26.2056 165.793 26.2056 168.713C26.2056 171.633 66.7481 174 116.76 174Z" fill="#F5F5F5"/>
<path d="M189.282 122.986H44.2334V139.407H189.282V122.986Z" fill="#209E52"/>
<path opacity="0.3" d="M189.286 122.986H158.172V139.407H189.286V122.986Z" fill="black"/>
<path d="M60.2481 139.407H44.2334V168.713H60.2481V139.407Z" fill="#209E52"/>
<path opacity="0.3" d="M44.238 139.407V141.046L55.5777 144.469V168.713H60.2481V139.407H44.238Z" fill="black"/>
<path d="M189.286 139.407H173.272V168.713H189.286V139.407Z" fill="#209E52"/>
<path opacity="0.2" d="M189.286 139.407H173.272V168.713H189.286V139.407Z" fill="black"/>
<path opacity="0.3" d="M173.272 139.407V141.046L184.616 144.469V168.713H189.286V139.407H173.272Z" fill="black"/>
<path d="M158.172 139.407H142.158V168.713H158.172V139.407Z" fill="#209E52"/>
<path opacity="0.3" d="M142.158 139.407V141.046L153.502 144.469V168.713H158.172V139.407H142.158Z" fill="black"/>
<path d="M91.3623 139.407H75.3475V168.713H91.3623V139.407Z" fill="#209E52"/>
<path opacity="0.2" d="M91.3623 139.407H75.3475V168.713H91.3623V139.407Z" fill="black"/>
<path opacity="0.3" d="M75.3475 139.407V141.046L86.6919 144.469V168.713H91.3623V139.407H75.3475Z" fill="black"/>
<path d="M169.293 119.758H80.6111C80.3347 119.76 80.0609 119.705 79.807 119.596C79.5531 119.487 79.3246 119.326 79.1358 119.125C78.9471 118.923 78.8023 118.684 78.7106 118.423C78.6188 118.163 78.5821 117.886 78.6028 117.61L82.255 59.6551C82.3013 59.0775 82.5607 58.5377 82.9827 58.1407C83.4048 57.7436 83.9595 57.5177 84.5389 57.5068H173.216C173.492 57.5047 173.766 57.56 174.02 57.6691C174.274 57.7782 174.502 57.9387 174.691 58.1406C174.88 58.3425 175.024 58.5813 175.116 58.842C175.208 59.1027 175.245 59.3796 175.224 59.6551L171.572 117.61C171.525 118.187 171.267 118.726 170.846 119.123C170.425 119.52 169.871 119.746 169.293 119.758Z" fill="#263238"/>
<path opacity="0.6" d="M169.293 119.758H80.6111C80.3347 119.76 80.0609 119.705 79.807 119.596C79.5531 119.487 79.3246 119.326 79.1358 119.125C78.9471 118.923 78.8023 118.684 78.7106 118.423C78.6188 118.163 78.5821 117.886 78.6028 117.61L82.255 59.6551C82.3013 59.0775 82.5607 58.5377 82.9827 58.1407C83.4048 57.7436 83.9595 57.5177 84.5389 57.5068H173.216C173.492 57.5047 173.766 57.56 174.02 57.6691C174.274 57.7782 174.502 57.9387 174.691 58.1406C174.88 58.3425 175.024 58.5813 175.116 58.842C175.208 59.1027 175.245 59.3796 175.224 59.6551L171.572 117.61C171.525 118.187 171.267 118.726 170.846 119.123C170.425 119.52 169.871 119.746 169.293 119.758Z" fill="black"/>
<path d="M168.629 119.758H79.9525C79.6758 119.761 79.4015 119.706 79.147 119.598C78.8926 119.489 78.6635 119.328 78.4742 119.126C78.285 118.924 78.1398 118.685 78.0477 118.424C77.9557 118.163 77.9189 117.886 77.9396 117.61L81.5918 59.6551C81.6381 59.0775 81.8975 58.5377 82.3196 58.1406C82.7416 57.7436 83.2963 57.5177 83.8757 57.5068H172.552C172.829 57.504 173.103 57.5588 173.357 57.6676C173.612 57.7765 173.84 57.937 174.029 58.1391C174.218 58.3411 174.363 58.5802 174.454 58.8412C174.546 59.1022 174.582 59.3794 174.561 59.6551L170.908 117.61C170.862 118.187 170.604 118.726 170.182 119.123C169.761 119.52 169.208 119.746 168.629 119.758Z" fill="#263238"/>
<path d="M168.517 120.496H62.999C62.5132 120.492 62.0361 120.625 61.6229 120.88C61.2097 121.136 60.8771 121.503 60.6638 121.939C60.6097 122.053 60.5855 122.178 60.5934 122.303C60.6012 122.428 60.641 122.55 60.7088 122.655C60.7766 122.761 60.8702 122.848 60.9809 122.907C61.0915 122.966 61.2155 122.997 61.341 122.995H170.152C170.277 122.997 170.401 122.966 170.512 122.907C170.623 122.848 170.716 122.761 170.784 122.655C170.852 122.55 170.892 122.428 170.899 122.303C170.907 122.178 170.883 122.053 170.829 121.939C170.618 121.506 170.29 121.14 169.881 120.885C169.472 120.63 168.999 120.495 168.517 120.496Z" fill="#263238"/>
<path opacity="0.6" d="M168.517 120.496H153.511C153.029 120.494 152.556 120.629 152.147 120.884C151.738 121.14 151.41 121.505 151.199 121.939C151.145 122.052 151.121 122.177 151.129 122.302C151.137 122.427 151.176 122.548 151.243 122.653C151.31 122.759 151.403 122.846 151.513 122.905C151.623 122.965 151.747 122.996 151.872 122.995H170.152C170.277 122.997 170.401 122.966 170.512 122.907C170.623 122.848 170.716 122.761 170.784 122.655C170.852 122.55 170.892 122.428 170.899 122.303C170.907 122.178 170.883 122.052 170.829 121.939C170.618 121.506 170.29 121.14 169.881 120.885C169.472 120.63 168.999 120.495 168.517 120.496Z" fill="black"/>
<path d="M159.214 122.317H155.337C155.248 122.316 155.162 122.28 155.099 122.216C155.036 122.152 155.001 122.066 155.001 121.977C155.001 121.887 155.036 121.801 155.099 121.737C155.162 121.673 155.248 121.637 155.337 121.636H159.214C159.258 121.636 159.303 121.644 159.344 121.662C159.386 121.679 159.423 121.704 159.455 121.735C159.486 121.767 159.512 121.805 159.529 121.846C159.546 121.887 159.555 121.932 159.555 121.977C159.555 122.021 159.546 122.066 159.529 122.107C159.512 122.148 159.486 122.186 159.455 122.218C159.423 122.249 159.386 122.274 159.344 122.292C159.303 122.309 159.258 122.317 159.214 122.317Z" fill="#209E52"/>
<path opacity="0.7" d="M109.367 122.317H105.495C105.404 122.317 105.318 122.282 105.254 122.218C105.19 122.154 105.154 122.067 105.154 121.977C105.154 121.932 105.163 121.887 105.18 121.846C105.197 121.805 105.222 121.767 105.254 121.735C105.285 121.704 105.323 121.679 105.364 121.662C105.406 121.644 105.45 121.636 105.495 121.636H109.367C109.411 121.636 109.456 121.644 109.497 121.662C109.538 121.679 109.576 121.704 109.608 121.735C109.639 121.767 109.664 121.805 109.682 121.846C109.699 121.887 109.708 121.932 109.708 121.977C109.708 122.067 109.672 122.154 109.608 122.218C109.544 122.282 109.457 122.317 109.367 122.317Z" fill="white"/>
<path d="M163.226 121.636H160.69C160.535 121.636 160.409 121.761 160.409 121.916V122.037C160.409 122.192 160.535 122.317 160.69 122.317H163.226C163.38 122.317 163.506 122.192 163.506 122.037V121.916C163.506 121.761 163.38 121.636 163.226 121.636Z" fill="#209E52"/>
<path d="M79.9385 115.518L83.3292 61.7473C83.3467 61.523 83.4474 61.3133 83.6116 61.1595C83.7758 61.0057 83.9916 60.9188 84.2166 60.916H171.782C171.889 60.9143 171.996 60.9351 172.094 60.977C172.193 61.0189 172.282 61.081 172.356 61.1592C172.429 61.2375 172.485 61.3302 172.521 61.4315C172.556 61.5328 172.57 61.6403 172.562 61.7473L169.176 115.518C169.157 115.742 169.055 115.952 168.89 116.106C168.726 116.259 168.509 116.346 168.284 116.349H80.7231C80.6158 116.35 80.5095 116.329 80.4108 116.286C80.3121 116.244 80.2232 116.182 80.1495 116.104C80.0759 116.026 80.0191 115.934 79.9828 115.833C79.9465 115.732 79.9314 115.625 79.9385 115.518Z" fill="white"/>
<path opacity="0.1" d="M129.753 59.2582L100.586 114.696H79.0698C78.9619 114.697 78.8549 114.677 78.7555 114.634C78.6561 114.592 78.5667 114.53 78.4928 114.451C78.4189 114.372 78.3623 114.279 78.3266 114.177C78.2908 114.076 78.2767 113.967 78.2852 113.86L81.6759 60.0942C81.6933 59.8695 81.7939 59.6593 81.958 59.5047C82.1221 59.3501 82.3379 59.2622 82.5633 59.2582H129.753Z" fill="#209E52"/>
<path opacity="0.1" d="M155.295 59.2582L126.129 114.696H119.329L148.495 59.2582H155.295Z" fill="#209E52"/>
<path opacity="0.1" d="M170.908 60.0942L167.518 113.86C167.501 114.085 167.401 114.296 167.237 114.451C167.073 114.605 166.856 114.693 166.63 114.696H133.471L162.637 59.2582H170.11C170.219 59.2553 170.327 59.2753 170.428 59.3168C170.528 59.3582 170.619 59.4204 170.694 59.4991C170.77 59.5779 170.828 59.6715 170.864 59.774C170.901 59.8765 170.916 59.9856 170.908 60.0942Z" fill="#209E52"/>
<path opacity="0.4" d="M128.73 59.3138C128.717 59.4832 128.642 59.6417 128.518 59.7583C128.395 59.875 128.232 59.9413 128.062 59.9443C127.981 59.9452 127.901 59.9292 127.826 59.8972C127.751 59.8653 127.684 59.8182 127.629 59.7588C127.573 59.6995 127.531 59.6293 127.504 59.5527C127.478 59.476 127.467 59.3947 127.474 59.3138C127.485 59.144 127.561 58.9848 127.684 58.868C127.808 58.7512 127.971 58.6852 128.142 58.6833C128.223 58.6824 128.303 58.6984 128.378 58.7303C128.452 58.7622 128.52 58.8094 128.575 58.8687C128.63 58.928 128.673 58.9982 128.699 59.0749C128.726 59.1515 128.737 59.2329 128.73 59.3138Z" fill="white"/>
<path d="M114.261 46.4189C111.706 49.3426 110.231 58.3051 112.122 62.714C114.014 67.1228 92.0675 71.5363 110.175 78.7007C128.282 85.8651 142.765 77.5565 137.524 70.1352C132.284 62.714 138.09 50.3561 132.023 47.2503C126.54 44.42 119.38 40.5576 114.261 46.4189Z" fill="#263238"/>
<path d="M108.848 82.5069C107.891 85.7762 106.873 89.0454 105.817 92.3147C104.762 95.584 103.664 98.8159 102.501 102.062L102.057 103.285L101.833 103.897L101.763 104.079L101.651 104.355C101.581 104.532 101.474 104.724 101.38 104.906C100.924 105.74 100.242 106.429 99.414 106.896C98.6619 107.304 97.8224 107.525 96.9667 107.54C95.7666 107.546 94.5775 107.313 93.4686 106.854C92.5609 106.485 91.682 106.05 90.8392 105.551C87.777 103.668 84.9703 101.398 82.4885 98.7972L84.5014 96.4247C85.1786 96.859 85.9026 97.3214 86.6031 97.7557C87.3037 98.1901 88.0369 98.6104 88.7468 99.0261C90.1378 99.8402 91.574 100.575 93.0483 101.226C93.72 101.522 94.4132 101.767 95.1219 101.959C95.612 102.122 96.1301 102.182 96.6445 102.137C96.7752 102.137 96.7519 102.062 96.6445 102.104C96.537 102.146 96.4203 102.267 96.4156 102.253C96.4109 102.239 96.4156 102.253 96.4156 102.225C96.4178 102.216 96.4178 102.206 96.4156 102.197L96.453 102.081L96.6305 101.478L96.9901 100.264L99.8437 90.4559C100.815 87.1866 101.815 83.9173 102.842 80.6481L108.848 82.5069Z" fill="#B65B52"/>
<path d="M84.3566 96.3501L78.9296 94.3419L81.0827 100.077C81.0827 100.077 84.9124 100.628 86.3976 98.6153L85.1879 96.9946C84.9783 96.7046 84.6897 96.4809 84.3566 96.3501Z" fill="#B55B52"/>
<path d="M74.1426 96.0089L76.2069 100.712L81.1061 100.068L78.9484 94.3323L74.1426 96.0089Z" fill="#B55B52"/>
<path d="M104.888 74.0494C102.403 74.6799 100.684 84.894 100.684 84.894L107.526 89.5644C107.526 89.5644 114.065 79.2615 112.173 76.534C110.165 73.671 108.507 73.1293 104.888 74.0494Z" fill="#209E52"/>
<path opacity="0.5" d="M104.888 74.0494C102.403 74.6799 100.684 84.894 100.684 84.894L107.526 89.5644C107.526 89.5644 114.065 79.2615 112.173 76.534C110.165 73.671 108.507 73.1293 104.888 74.0494Z" fill="white"/>
<path opacity="0.2" d="M104.664 77.7621L109.974 78.9904L110.483 84.1885C109.583 86.0237 108.59 87.8117 107.508 89.5455L103.356 86.7432C103.538 84.338 103.986 79.3967 104.664 77.7621Z" fill="black"/>
<path d="M104.888 74.049C104.888 74.049 102.015 75.0578 107.765 110.394H132.219C131.808 100.441 131.799 94.2998 136.553 73.8762C133.13 73.1684 129.66 72.711 126.171 72.5078C122.056 72.3069 118.698 72.1762 115.065 72.5078C110.296 72.9421 104.888 74.049 104.888 74.049Z" fill="#209E52"/>
<path opacity="0.5" d="M104.888 74.049C104.888 74.049 102.015 75.0578 107.765 110.394H132.219C131.808 100.441 131.799 94.2998 136.553 73.8762C133.13 73.1684 129.66 72.711 126.171 72.5078C122.056 72.3069 118.698 72.1762 115.065 72.5078C110.296 72.9421 104.888 74.049 104.888 74.049Z" fill="white"/>
<path opacity="0.2" d="M130.799 83.3568L133.956 86.047C133.284 89.6198 132.831 92.5855 132.555 95.243C131.953 92.5902 130.449 85.3884 130.799 83.3568Z" fill="black"/>
<path d="M125.068 60.0007C124.368 63.5736 123.667 70.1215 126.171 72.5081C126.171 72.5081 123.835 77.8603 117.647 77.8603C111.459 77.8603 115.064 72.5081 115.064 72.5081C119.048 71.574 118.946 68.5989 118.254 65.8247L125.068 60.0007Z" fill="#B55B52"/>
<path d="M125.377 71.1718C124.788 72.3628 122.892 75.0856 117.596 76.0571C117.449 76.0841 117.297 76.054 117.171 75.973C116.181 75.2818 115.564 73.8199 115.999 72.1246C116.027 72.0204 116.026 71.9103 115.996 71.8066C115.965 71.703 115.906 71.6099 115.826 71.538C115.745 71.4661 115.646 71.4182 115.539 71.3997C115.433 71.3812 115.323 71.3929 115.223 71.4334C114.816 71.6036 114.426 71.8099 114.056 72.0499C113.974 72.1038 113.908 72.1778 113.864 72.2647C113.477 72.9933 111.907 76.5615 116.643 78.7612C116.719 78.7935 116.799 78.8125 116.881 78.8173C119.684 78.8733 124.583 78.3222 127.679 72.7458C127.735 72.645 127.759 72.5303 127.75 72.4158C127.741 72.3013 127.698 72.1919 127.628 72.1012C127.212 71.6457 126.728 71.2566 126.194 70.9477C126.127 70.9045 126.051 70.8759 125.972 70.8638C125.893 70.8518 125.813 70.8565 125.735 70.8776C125.658 70.8987 125.587 70.9359 125.525 70.9866C125.463 71.0372 125.413 71.1004 125.377 71.1718Z" fill="#FAFAFA"/>
<path d="M126.675 85.8742L120.37 85.6921C120.304 85.6925 120.239 85.6789 120.179 85.6523C120.118 85.6257 120.064 85.5866 120.02 85.5376C119.976 85.4887 119.943 85.4309 119.923 85.3682C119.902 85.3055 119.896 85.2392 119.903 85.1737L119.964 84.3937C119.982 84.2625 120.048 84.1426 120.148 84.0565C120.249 83.9705 120.378 83.9243 120.51 83.9267L126.815 84.1088C126.882 84.1083 126.947 84.122 127.008 84.1489C127.069 84.1758 127.123 84.2153 127.167 84.2648C127.211 84.3143 127.244 84.3726 127.264 84.4359C127.284 84.4992 127.29 84.566 127.282 84.6319L127.221 85.4072C127.203 85.5384 127.138 85.6583 127.037 85.7444C126.936 85.8304 126.807 85.8766 126.675 85.8742Z" fill="#FAFAFA"/>
<path opacity="0.2" d="M122.29 62.3774L118.254 65.8195C118.428 66.4649 118.543 67.1245 118.6 67.7904C120.118 67.5709 122.21 65.8989 122.374 64.3063C122.463 63.6635 122.435 63.0099 122.29 62.3774Z" fill="black"/>
<path d="M129.776 53.2428C128.651 59.1135 128.3 61.6215 124.919 64.2696C119.833 68.2581 112.869 65.5867 112.225 59.5012C111.641 54.0228 113.579 45.3452 119.698 43.7386C121.038 43.3823 122.448 43.3741 123.793 43.7149C125.137 44.0556 126.373 44.734 127.382 45.6857C128.391 46.6375 129.141 47.8311 129.56 49.1536C129.979 50.476 130.053 51.8835 129.776 53.2428Z" fill="#B55B52"/>
<path d="M126.437 48.8988C125.708 52.5744 125.535 57.4456 128.903 57.4456C132.27 57.4456 134.909 51.7151 132.004 47.2268C129.099 42.7386 126.862 46.7318 126.437 48.8988Z" fill="#263238"/>
<path d="M132.256 49.3518C132.256 53.3497 127.222 51.3741 124.994 49.6507C122.766 47.9273 122.659 48.1142 118.53 48.1095C114.401 48.1048 113.575 47.8199 112.356 45.849C111.137 43.8781 111.249 42.5797 113.995 42.9954C116.741 43.4111 114.434 40.6088 116.48 39.0536C118.525 37.4983 120.949 37.8907 123.747 41.4402C126.544 44.9897 132.256 42.4256 132.256 49.3518Z" fill="#263238"/>
<path d="M130.778 58.4657C131.308 56.6588 130.788 54.9158 129.617 54.5725C128.447 54.2293 127.068 55.4158 126.538 57.2227C126.008 59.0296 126.528 60.7726 127.699 61.1159C128.87 61.4591 130.248 60.2726 130.778 58.4657Z" fill="white"/>
<path d="M121.43 62.9848C120.346 62.9846 119.274 62.7637 118.278 62.3356C118.256 62.327 118.237 62.3141 118.221 62.2978C118.204 62.2816 118.192 62.2622 118.183 62.2409C118.174 62.2195 118.17 62.1967 118.17 62.1737C118.17 62.1507 118.175 62.1279 118.184 62.1068C118.204 62.0642 118.239 62.0307 118.282 62.0133C118.326 61.9959 118.374 61.9959 118.418 62.0134C119.356 62.4161 120.366 62.6265 121.387 62.6321C122.408 62.6377 123.42 62.4385 124.363 62.0461C125.28 61.6708 126.113 61.116 126.812 60.4142C127.512 59.7124 128.064 58.8778 128.436 57.9595C129.837 53.9476 131.266 48.941 129.613 45.8165C129.28 45.2083 128.82 44.6793 128.264 44.2658C127.708 43.8522 127.068 43.5639 126.39 43.4206C126.345 43.4085 126.307 43.3792 126.283 43.339C126.26 43.2988 126.253 43.2509 126.264 43.2057C126.276 43.1607 126.306 43.1222 126.346 43.0986C126.386 43.075 126.434 43.0682 126.479 43.0796C127.204 43.2355 127.886 43.5456 128.48 43.9889C129.074 44.4321 129.565 44.9981 129.921 45.6483C131.64 48.8756 130.206 53.9803 128.763 58.0669C128.371 59.0313 127.791 59.9075 127.055 60.6438C126.32 61.3802 125.444 61.9618 124.48 62.3543C123.514 62.7603 122.478 62.9744 121.43 62.9848Z" fill="white"/>
<path opacity="0.6" d="M130.608 58.4826C130.192 59.8837 129.239 60.8691 128.478 60.6496C127.717 60.4301 127.436 59.0944 127.852 57.6746C128.268 56.2548 129.221 55.2833 129.982 55.5075C130.743 55.7317 131.023 57.0628 130.608 58.4826Z" fill="#209E52"/>
<path d="M118.763 61.5632L116.933 61.2101C116.611 61.1481 116.3 61.3585 116.238 61.6802L116.218 61.7857C116.156 62.1073 116.366 62.4184 116.688 62.4804L118.518 62.8334C118.839 62.8955 119.15 62.685 119.212 62.3634L119.233 62.2579C119.295 61.9363 119.084 61.6252 118.763 61.5632Z" fill="white"/>
<path d="M116.372 53.7328C116.372 53.7328 115.289 55.6991 114.261 56.5818C114.817 57.259 115.938 57.1282 115.938 57.1282L116.372 53.7328Z" fill="#A02724"/>
<path d="M117.404 59.6412H117.446C118.505 59.7248 119.557 59.4044 120.389 58.7445C120.406 58.727 120.416 58.7035 120.416 58.6791C120.416 58.6546 120.406 58.6312 120.389 58.6137C120.381 58.6054 120.371 58.5988 120.36 58.5942C120.349 58.5897 120.338 58.5874 120.326 58.5874C120.314 58.5874 120.302 58.5897 120.292 58.5942C120.281 58.5988 120.271 58.6054 120.263 58.6137C119.468 59.2384 118.469 59.5432 117.46 59.4684C117.448 59.4664 117.436 59.4669 117.424 59.4699C117.413 59.4729 117.401 59.4783 117.392 59.4857C117.382 59.4932 117.374 59.5025 117.368 59.5132C117.362 59.5239 117.359 59.5356 117.358 59.5478C117.355 59.5662 117.359 59.585 117.367 59.6016C117.375 59.6183 117.388 59.632 117.404 59.6412Z" fill="#263238"/>
<path d="M122.747 51.421C122.774 51.4357 122.803 51.4435 122.834 51.4435C122.864 51.4435 122.894 51.4357 122.92 51.421C122.96 51.3943 122.988 51.3531 122.999 51.3061C123.009 51.2592 123.001 51.21 122.976 51.1688C122.753 50.7948 122.444 50.4794 122.074 50.2487C121.704 50.018 121.285 49.8788 120.851 49.8424C120.802 49.8424 120.756 49.8614 120.721 49.8955C120.686 49.9295 120.666 49.9758 120.664 50.0246C120.664 50.0721 120.683 50.1177 120.716 50.1517C120.749 50.1858 120.794 50.2055 120.842 50.2067C121.216 50.2424 121.576 50.3659 121.894 50.5671C122.211 50.7684 122.476 51.0418 122.668 51.365C122.689 51.3905 122.716 51.4099 122.747 51.421Z" fill="#263238"/>
<path d="M120.071 53.8123C119.992 54.2793 119.669 54.6389 119.352 54.5875C119.034 54.5362 118.852 54.1205 118.932 53.6161C119.011 53.1117 119.338 52.7894 119.651 52.8408C119.964 52.8922 120.155 53.3312 120.071 53.8123Z" fill="#263238"/>
<path d="M114.625 52.8875C114.546 53.3545 114.224 53.7142 113.906 53.6628C113.589 53.6114 113.407 53.1724 113.486 52.6913C113.565 52.2103 113.892 51.86 114.205 51.916C114.518 51.9721 114.71 52.4018 114.625 52.8875Z" fill="#263238"/>
<path d="M114.341 51.9676L113.238 51.4352C113.238 51.4352 113.677 52.4393 114.341 51.9676Z" fill="#263238"/>
<path d="M119.786 52.8922L118.684 52.3644C118.684 52.3644 119.123 53.3686 119.786 52.8922Z" fill="#263238"/>
<path d="M112.776 49.6322C112.804 49.6491 112.836 49.658 112.869 49.658C112.902 49.658 112.935 49.6491 112.963 49.6322C113.251 49.39 113.593 49.221 113.961 49.1397C114.329 49.0584 114.71 49.0671 115.074 49.1652C115.12 49.1813 115.17 49.1785 115.214 49.1575C115.258 49.1365 115.291 49.0989 115.307 49.0531C115.323 49.0073 115.321 48.9569 115.3 48.9131C115.279 48.8693 115.241 48.8357 115.195 48.8196C114.776 48.7002 114.334 48.6838 113.907 48.7716C113.481 48.8594 113.081 49.0489 112.743 49.324C112.724 49.3378 112.707 49.3555 112.695 49.3759C112.683 49.3964 112.675 49.4192 112.672 49.4429C112.669 49.4666 112.67 49.4907 112.677 49.5136C112.684 49.5366 112.695 49.5579 112.711 49.5762C112.726 49.6011 112.749 49.6206 112.776 49.6322Z" fill="#263238"/>
<path d="M106.835 116.349C106.835 116.349 106.77 113.005 107.769 110.394H132.219C132.219 110.394 134.419 113.943 134.988 116.349H106.835Z" fill="#209E52"/>
<path d="M132.588 108.961L132.779 111.146C132.868 111.319 132.667 111.492 132.382 111.492H107.629C107.41 111.492 107.228 111.385 107.214 111.244L106.989 109.054C106.989 108.905 107.167 108.774 107.41 108.774H132.163C132.244 108.765 132.326 108.778 132.4 108.811C132.475 108.843 132.539 108.895 132.588 108.961Z" fill="#209E52"/>
<path opacity="0.3" d="M132.588 108.961L132.779 111.146C132.868 111.319 132.667 111.492 132.382 111.492H107.629C107.41 111.492 107.228 111.385 107.214 111.244L106.989 109.054C106.989 108.905 107.167 108.774 107.41 108.774H132.163C132.244 108.765 132.326 108.778 132.4 108.811C132.475 108.843 132.539 108.895 132.588 108.961Z" fill="#FAFAFA"/>
<path d="M129.258 111.725H129.921C130.056 111.725 130.155 111.66 130.145 111.576L129.837 108.731C129.837 108.647 129.711 108.582 129.58 108.582H128.903C128.767 108.582 128.669 108.647 128.679 108.731L128.987 111.576C129.01 111.66 129.127 111.725 129.258 111.725Z" fill="#209E52"/>
<path d="M109.507 111.725H110.17C110.301 111.725 110.403 111.66 110.394 111.576L110.081 108.731C110.081 108.647 109.96 108.582 109.824 108.582H109.161C109.03 108.582 108.928 108.647 108.937 108.731L109.25 111.576C109.259 111.66 109.376 111.725 109.507 111.725Z" fill="#209E52"/>
<path d="M119.385 111.725H120.029C120.16 111.725 120.263 111.66 120.253 111.576L119.94 108.731C119.94 108.647 119.814 108.582 119.683 108.582H119.02C118.89 108.582 118.787 108.647 118.796 108.731L119.109 111.576C119.137 111.66 119.249 111.725 119.385 111.725Z" fill="#209E52"/>
<path d="M138.645 80.7979C139.719 84.2851 140.752 87.791 141.742 91.3156L143.232 96.5745L143.974 99.1899L144.161 99.8344L144.254 100.157L144.278 100.231L144.203 100.115C144.085 99.9456 143.94 99.7973 143.773 99.6756C143.408 99.4097 142.973 99.2556 142.522 99.2319C142.181 99.2157 141.841 99.2831 141.532 99.4281C141.195 99.6102 141.228 99.6523 141.256 99.6196C141.335 99.5508 141.407 99.4741 141.471 99.3907C141.691 99.1157 141.894 98.8271 142.078 98.5267C142.489 97.8542 142.895 97.0976 143.278 96.3223C144.072 94.7717 144.787 93.1277 145.511 91.4744C146.235 89.8211 146.912 88.1491 147.612 86.4631C148.313 84.7771 148.981 83.0817 149.672 81.4097L152.656 82.2971C151.881 85.94 150.975 89.5175 149.854 93.081C149.303 94.8698 148.691 96.6399 147.986 98.4333C147.622 99.33 147.234 100.227 146.753 101.156C146.497 101.659 146.21 102.146 145.894 102.613C145.697 102.907 145.479 103.185 145.24 103.445C144.861 103.875 144.401 104.225 143.885 104.477C143.371 104.727 142.803 104.846 142.232 104.822C141.555 104.785 140.904 104.546 140.364 104.136C140.02 103.876 139.721 103.56 139.481 103.202C139.33 102.972 139.197 102.73 139.084 102.478C139.042 102.375 138.996 102.268 138.963 102.174L138.874 101.945L138.753 101.614L138.51 100.955C138.192 100.082 137.87 99.2086 137.576 98.3352C136.978 96.5885 136.38 94.8464 135.82 93.095C134.674 89.5954 133.606 86.0786 132.616 82.5446L138.645 80.7979Z" fill="#B65B52"/>
<path d="M136.553 73.8764C139.005 74.619 142.755 84.2354 142.755 84.2354L133.251 91.0308C133.251 91.0308 128.978 82.8109 130.005 79.6444C131.079 76.3471 133.76 73.0264 136.553 73.8764Z" fill="#209E52"/>
<path opacity="0.5" d="M136.553 73.8764C139.005 74.619 142.755 84.2354 142.755 84.2354L133.251 91.0308C133.251 91.0308 128.978 82.8109 130.005 79.6444C131.079 76.3471 133.76 73.0264 136.553 73.8764Z" fill="white"/>
<path d="M149.78 82.6889L148.477 76.9443L153.894 79.8026C153.894 79.8026 153.96 83.6697 151.774 84.8887L149.78 82.6889Z" fill="#B55B52"/>
<path d="M150.746 72.3866L154.202 74.8386L153.894 79.8032L148.477 76.9449L150.746 72.3866Z" fill="#B55B52"/>
<path d="M53.7095 43.4764H91.5396C92.2619 43.4693 92.9778 43.6122 93.6421 43.8959C94.3064 44.1796 94.9045 44.5981 95.3988 45.1248C95.893 45.6516 96.2726 46.2751 96.5136 46.9561C96.7545 47.637 96.8515 48.3605 96.7985 49.0809L95.743 66.2026C95.6269 67.7098 94.9528 69.1196 93.8523 70.1561C92.7519 71.1926 91.3044 71.7813 89.7929 71.807H85.4121L87.2009 77.6871L78.6447 71.807H51.9768C51.2545 71.8142 50.5386 71.6713 49.8743 71.3876C49.21 71.1039 48.6119 70.6854 48.1176 70.1587C47.6234 69.632 47.2438 69.0084 47.0028 68.3274C46.7619 67.6465 46.6649 66.9229 46.7179 66.2026L47.7641 49.0809C47.88 47.5745 48.5536 46.1654 49.653 45.129C50.7524 44.0926 52.1988 43.5034 53.7095 43.4764Z" fill="#209E52"/>
<path d="M88.0742 52.4436H56.082C55.9462 52.4428 55.812 52.4139 55.6879 52.3586C55.5638 52.3033 55.4526 52.2228 55.3613 52.1222C55.27 52.0217 55.2005 51.9033 55.1574 51.7745C55.1142 51.6457 55.0983 51.5093 55.1105 51.374C55.1315 51.0906 55.2576 50.8252 55.4641 50.6299C55.6706 50.4347 55.9426 50.3236 56.2268 50.3185H88.2236C88.3587 50.3188 88.4924 50.3469 88.6162 50.4011C88.74 50.4552 88.8514 50.5342 88.9433 50.6332C89.0353 50.7322 89.106 50.849 89.1509 50.9765C89.1958 51.1039 89.214 51.2393 89.2044 51.374C89.1877 51.6628 89.0615 51.9342 88.8514 52.133C88.6414 52.3318 88.3634 52.4428 88.0742 52.4436Z" fill="white"/>
<path d="M69.1218 58.6974H55.6991C55.5632 58.6984 55.4285 58.6712 55.3036 58.6177C55.1787 58.5641 55.0662 58.4853 54.9732 58.3862C54.8802 58.287 54.8087 58.1697 54.7633 58.0416C54.7178 57.9136 54.6993 57.7775 54.709 57.6419C54.73 57.3576 54.8567 57.0916 55.0642 56.8962C55.2717 56.7008 55.5449 56.5903 55.8299 56.5864H69.2666C69.4029 56.5847 69.5381 56.6114 69.6635 56.6647C69.789 56.7179 69.9021 56.7967 69.9956 56.8959C70.0891 56.9951 70.161 57.1126 70.2067 57.241C70.2525 57.3694 70.2711 57.5059 70.2614 57.6419C70.239 57.9289 70.1093 58.197 69.8981 58.3926C69.6869 58.5883 69.4097 58.6971 69.1218 58.6974Z" fill="white"/>
<path d="M80.625 64.9512H55.3162C55.1803 64.9522 55.0456 64.925 54.9207 64.8715C54.7958 64.8179 54.6833 64.7391 54.5903 64.64C54.4973 64.5408 54.4258 64.4235 54.3803 64.2955C54.3349 64.1674 54.3164 64.0313 54.3261 63.8957C54.346 63.6111 54.4724 63.3444 54.6801 63.1488C54.8879 62.9532 55.1616 62.843 55.447 62.8402H80.7558C80.8919 62.8385 81.0269 62.8651 81.1522 62.9184C81.2774 62.9718 81.3902 63.0506 81.4833 63.1499C81.5765 63.2491 81.6479 63.3667 81.6931 63.4951C81.7383 63.6235 81.7563 63.7599 81.7459 63.8957C81.7249 64.1799 81.5982 64.446 81.3907 64.6414C81.1832 64.8367 80.91 64.9473 80.625 64.9512Z" fill="white"/>
<path d="M78.981 58.6974H73.6895C73.5535 58.6984 73.4189 58.6712 73.294 58.6177C73.169 58.5641 73.0566 58.4853 72.9636 58.3862C72.8706 58.287 72.7991 58.1697 72.7536 58.0417C72.7082 57.9136 72.6897 57.7775 72.6993 57.6419C72.7214 57.358 72.8484 57.0926 73.0557 56.8974C73.263 56.7022 73.5356 56.5913 73.8202 56.5864H79.1071C79.2432 56.5847 79.3782 56.6113 79.5035 56.6647C79.6287 56.718 79.7415 56.7968 79.8346 56.8961C79.9278 56.9954 79.9992 57.1129 80.0444 57.2413C80.0896 57.3697 80.1076 57.5062 80.0972 57.6419C80.0763 57.9253 79.9502 58.1907 79.7437 58.386C79.5372 58.5813 79.2652 58.6923 78.981 58.6974Z" fill="white"/>
<path d="M106.387 12.6989H85.7625C84.5863 12.7165 83.4593 13.1734 82.6029 13.9797C81.7465 14.786 81.2226 15.8834 81.1341 17.0563L80.3308 30.3856C80.2908 30.9461 80.3673 31.5087 80.5555 32.0381C80.7437 32.5675 81.0395 33.0521 81.4244 33.4615C81.8092 33.8709 82.2746 34.1961 82.7913 34.4167C83.3081 34.6373 83.8649 34.7484 84.4267 34.7431H87.8034L85.8512 39.3201L93.0716 34.7431H105.037C106.213 34.7255 107.34 34.2686 108.197 33.4623C109.053 32.656 109.577 31.5586 109.666 30.3856L110.483 17.0563C110.523 16.4959 110.446 15.9333 110.258 15.4039C110.07 14.8745 109.774 14.3898 109.389 13.9805C109.004 13.5711 108.539 13.2458 108.022 13.0253C107.506 12.8047 106.949 12.6936 106.387 12.6989Z" fill="#209E52"/>
<g opacity="0.5">
<path opacity="0.5" d="M106.387 12.6989H85.7625C84.5863 12.7165 83.4593 13.1734 82.6029 13.9797C81.7465 14.786 81.2226 15.8834 81.1341 17.0563L80.3308 30.3856C80.2908 30.9461 80.3673 31.5087 80.5555 32.0381C80.7437 32.5675 81.0395 33.0521 81.4244 33.4615C81.8092 33.8709 82.2746 34.1961 82.7913 34.4167C83.3081 34.6373 83.8649 34.7484 84.4267 34.7431H87.8034L85.8512 39.3201L93.0716 34.7431H105.037C106.213 34.7255 107.34 34.2686 108.197 33.4623C109.053 32.656 109.577 31.5586 109.666 30.3856L110.483 17.0563C110.523 16.4959 110.446 15.9333 110.258 15.4039C110.07 14.8745 109.774 14.3898 109.389 13.9805C109.004 13.5711 108.539 13.2458 108.022 13.0253C107.506 12.8047 106.949 12.6936 106.387 12.6989Z" fill="#FAFAFA"/>
</g>
<path d="M96.4436 25.902C96.3726 26.1955 96.2051 26.4568 95.968 26.6439C95.7309 26.831 95.438 26.9332 95.1359 26.9341H93.917C93.917 26.5885 93.945 26.3784 93.9497 26.3036C93.9673 25.6305 94.1399 24.9704 94.4541 24.3748C94.8954 23.7108 95.4559 23.1344 96.1074 22.6747C96.6269 22.2983 97.1171 21.883 97.5739 21.4324C97.8162 21.1457 97.9602 20.7889 97.9849 20.4143C98.0032 20.1661 97.9643 19.917 97.8712 19.6862C97.7781 19.4555 97.6332 19.2492 97.4478 19.0832C96.9946 18.6951 96.4088 18.4975 95.8131 18.5321C95.1868 18.515 94.5746 18.7202 94.0851 19.1112C93.7942 19.3513 93.5557 19.6485 93.3845 19.9846C93.2584 20.2301 93.0626 20.4329 92.8216 20.5675C92.5807 20.7021 92.3053 20.7625 92.0301 20.7412C91.8321 20.7167 91.6435 20.6426 91.4817 20.5259C91.3199 20.4091 91.1902 20.2535 91.1045 20.0733C91.0188 19.8931 90.98 19.6942 90.9916 19.495C91.0031 19.2958 91.0648 19.1028 91.1708 18.9338C91.4526 18.4608 91.8145 18.0404 92.2403 17.6914C93.2524 16.8778 94.5249 16.4581 95.8225 16.5098C97.3497 16.5098 98.536 16.9068 99.3907 17.7054C99.7908 18.0495 100.106 18.4815 100.311 18.9677C100.516 19.4539 100.605 19.9811 100.572 20.5077C100.529 21.1063 100.323 21.6815 99.9745 22.1703C99.3184 22.9781 98.5601 23.6972 97.7187 24.3094C97.2827 24.6138 96.906 24.9952 96.6071 25.4349C96.5311 25.5823 96.4761 25.7395 96.4436 25.902ZM93.7768 29.2553V29.1059C93.8014 28.7684 93.9519 28.4524 94.1984 28.2206C94.4449 27.9888 94.7695 27.858 95.1079 27.8542H95.276C95.4379 27.8518 95.5985 27.8832 95.7475 27.9462C95.8966 28.0092 96.031 28.1025 96.1421 28.2202C96.2532 28.3379 96.3387 28.4774 96.393 28.6299C96.4473 28.7823 96.4693 28.9444 96.4577 29.1059V29.2553C96.4331 29.5933 96.2829 29.9098 96.0364 30.1424C95.79 30.3749 95.4654 30.5067 95.1266 30.5117H94.9771C94.8133 30.5167 94.6503 30.4873 94.4986 30.4251C94.3469 30.363 94.21 30.2697 94.0968 30.1512C93.9836 30.0327 93.8966 29.8917 93.8414 29.7373C93.7863 29.583 93.7643 29.4187 93.7768 29.2553Z" fill="white"/>
</svg>
