<svg width="174" height="174" viewBox="0 0 174 174" fill="none" xmlns="http://www.w3.org/2000/svg">
<path d="M122.078 18.1343C117.659 17.0903 113.03 16.7841 108.555 17.5845C96.6988 19.7107 87.6751 29.0163 77.604 35.6109C70.9817 39.9404 63.7077 43.1797 56.0593 45.2052C48.0553 47.328 39.3553 48.2293 32.6563 53.1048C26.7403 57.3957 23.1838 64.2861 21.3846 71.3609C19.1887 79.9843 19.4149 89.4047 23.1594 97.4783C27.1753 106.14 34.8418 112.588 42.9954 117.554C56.6753 125.879 72.986 130.858 88.7887 128.269C97.9307 126.776 106.558 122.813 114.193 117.572C128.61 107.685 139.485 93.1735 146.028 77.0437C148.888 69.9828 152.368 61.1088 152.125 53.3797C151.902 46.2771 148.54 38.541 144.34 32.9382C138.901 25.665 130.928 20.2293 122.078 18.1343Z" fill="#209E52"/>
<path opacity="0.7" d="M122.078 18.1343C117.659 17.0903 113.03 16.7841 108.555 17.5845C96.6988 19.7107 87.6751 29.0163 77.604 35.6109C70.9817 39.9404 63.7077 43.1797 56.0593 45.2052C48.0553 47.328 39.3553 48.2293 32.6563 53.1048C26.7403 57.3957 23.1838 64.2861 21.3846 71.3609C19.1887 79.9843 19.4149 89.4047 23.1594 97.4783C27.1753 106.14 34.8418 112.588 42.9954 117.554C56.6753 125.879 72.986 130.858 88.7887 128.269C97.9307 126.776 106.558 122.813 114.193 117.572C128.61 107.685 139.485 93.1735 146.028 77.0437C148.888 69.9828 152.368 61.1088 152.125 53.3797C151.902 46.2771 148.54 38.541 144.34 32.9382C138.901 25.665 130.928 20.2293 122.078 18.1343Z" fill="white"/>
<path d="M87.616 158.034C120.231 158.034 146.672 154.43 146.672 149.985C146.672 145.539 120.231 141.935 87.616 141.935C55.0005 141.935 28.5604 145.539 28.5604 149.985C28.5604 154.43 55.0005 158.034 87.616 158.034Z" fill="#209E52"/>
<path opacity="0.5" d="M87.616 158.034C120.231 158.034 146.672 154.43 146.672 149.985C146.672 145.539 120.231 141.935 87.616 141.935C55.0005 141.935 28.5604 145.539 28.5604 149.985C28.5604 154.43 55.0005 158.034 87.616 158.034Z" fill="white"/>
<path d="M82.998 134.363H131.506" stroke="#263238" stroke-linecap="round" stroke-linejoin="round"/>
<path d="M38.6906 134.363H76.5704" stroke="#263238" stroke-linecap="round" stroke-linejoin="round"/>
<path d="M123.463 97.4017H91.9764V136.799H123.463V97.4017Z" fill="#263238" stroke="#263238" stroke-linecap="round" stroke-linejoin="round"/>
<path d="M124.688 97.4017H100.085V136.799H124.688V97.4017Z" fill="white" stroke="#263238" stroke-linecap="round" stroke-linejoin="round"/>
<path d="M122.273 99.8865H102.928V112.237H122.273V99.8865Z" fill="white" stroke="#263238" stroke-linecap="round" stroke-linejoin="round"/>
<path d="M117.516 104.877H107.696V107.24H117.516V104.877Z" fill="#263238" stroke="#263238" stroke-linecap="round" stroke-linejoin="round"/>
<path d="M122.273 116.834H102.928V129.185H122.273V116.834Z" fill="white" stroke="#263238" stroke-linecap="round" stroke-linejoin="round"/>
<path d="M117.516 121.824H107.696V124.187H117.516V121.824Z" fill="#263238" stroke="#263238" stroke-linecap="round" stroke-linejoin="round"/>
<path d="M49.2072 138.253C49.2072 138.949 45.4453 139.527 40.8065 139.527C36.1676 139.527 32.4058 138.956 32.4058 138.253C32.4058 137.551 36.1676 136.98 40.8065 136.98C45.4453 136.98 49.2072 137.551 49.2072 138.253Z" fill="#263238"/>
<path d="M32.4058 138.253L30.0011 127.671H51.6119L49.2072 138.253H32.4058Z" fill="#263238"/>
<path d="M51.6119 127.671C51.6119 128.576 46.7747 129.31 40.8239 129.31C34.8731 129.31 30.0185 128.576 30.0185 127.671C30.0185 126.766 34.8557 126.032 40.8239 126.032C46.7921 126.032 51.6119 126.766 51.6119 127.671Z" fill="#263238"/>
<path d="M49.5308 127.601C49.5308 127.827 48.8348 128.033 47.6308 128.196C45.3653 128.452 43.0862 128.568 40.8065 128.544C38.5267 128.57 36.2475 128.454 33.9822 128.196C32.7955 128.036 32.0821 127.831 32.0821 127.605C32.0821 127.083 35.9902 126.658 40.8065 126.658C45.6228 126.658 49.5308 127.079 49.5308 127.601Z" fill="white"/>
<path d="M47.6308 128.196C45.3653 128.452 43.0862 128.568 40.8065 128.544C38.5267 128.57 36.2475 128.454 33.9822 128.196C34.6782 127.848 37.4622 127.605 40.8065 127.605C44.1508 127.605 46.9313 127.852 47.6308 128.196Z" fill="#209E52"/>
<path d="M48.3198 131.123C49.1933 130.97 50.0772 130.775 50.9542 130.563" stroke="white" stroke-linecap="round" stroke-linejoin="round"/>
<path d="M34.4276 131.349C37.919 131.78 41.4453 131.851 44.9512 131.561" stroke="white" stroke-linecap="round" stroke-linejoin="round"/>
<path d="M30.7006 130.744C30.7006 130.744 31.6889 130.97 33.3488 131.21" stroke="white" stroke-linecap="round" stroke-linejoin="round"/>
<path d="M35.9414 69.9933C37.9147 68.5461 39.7632 66.9362 41.4677 65.1804C43.7854 62.6644 42.536 58.5684 42.536 58.5684C42.536 58.5684 40.9318 59.9952 38.4366 62.4869C35.9414 64.9786 35.9414 66.7638 35.9414 66.7638V69.9933Z" fill="#209E52"/>
<path d="M39.5641 81.1084C41.539 79.6632 43.3877 78.0532 45.0904 76.2955C47.4046 73.8004 46.1587 69.7044 46.1587 69.7044C46.1587 69.7044 44.5544 71.1277 42.0593 73.6229C39.5641 76.118 39.5641 77.8998 39.5641 77.8998V81.1084Z" fill="#209E52"/>
<path d="M36.4356 72.9826C34.3218 71.7498 32.3139 70.3437 30.4326 68.7788C27.8644 66.5376 28.6717 62.3303 28.6717 62.3303C28.6717 62.3303 30.4117 63.5936 33.1644 65.8103C35.9171 68.0271 36.0981 69.8054 36.0981 69.8054L36.4356 72.9826Z" fill="#209E52"/>
<path d="M41.151 86.0882C38.9199 85.0854 36.7759 83.8993 34.7408 82.5421C31.9568 80.5829 32.3048 76.3164 32.3048 76.3164C32.3048 76.3164 34.1701 77.3604 37.1351 79.2918C40.1 81.2232 40.4724 82.9493 40.4724 82.9493L41.151 86.0882Z" fill="#209E52"/>
<path d="M39.6511 100.509C37.6795 99.0615 35.8311 97.4529 34.1249 95.7C31.8072 93.1875 33.06 89.088 33.06 89.088C33.06 89.088 34.6643 90.5113 37.1594 93.0065C39.6546 95.5017 39.6546 97.2904 39.6546 97.2904L39.6511 100.509Z" fill="#209E52"/>
<path d="M40.1453 103.962C41.8953 102.244 43.4972 100.381 44.9338 98.3935C46.8721 95.6095 45.0556 91.7119 45.0556 91.7119C45.0556 91.7119 43.6636 93.3545 41.5547 96.1802C39.4458 99.006 39.6929 100.767 39.6929 100.767L40.1453 103.962Z" fill="#209E52"/>
<path d="M42.1533 114.363C40.1815 112.914 38.3331 111.305 36.627 109.55C34.3093 107.055 35.5587 102.938 35.5587 102.938C35.5587 102.938 37.1629 104.358 39.6581 106.857C42.1533 109.356 42.1533 111.141 42.1533 111.141V114.363Z" fill="#209E52"/>
<path d="M39.672 123.644C38.1334 121.747 36.7553 119.725 35.5517 117.6C33.9404 114.603 36.185 110.953 36.185 110.953C36.185 110.953 37.3787 112.731 39.1604 115.78C40.9422 118.828 40.4898 120.554 40.4898 120.554L39.672 123.644Z" fill="#209E52"/>
<path d="M38.0573 129.059C38.0573 129.059 41.5094 118.376 42.1672 114.443C42.8249 110.511 40.5246 107.205 39.766 101.292C39.0073 95.3798 41.854 89.4604 40.8517 84.8459C39.8495 80.2314 37.3996 76.9567 36.4112 71.855C36.08 70.0256 35.8477 68.1797 35.7152 66.3253" stroke="#263238" stroke-linecap="round" stroke-linejoin="round"/>
<path d="M33.4324 68.9249L36.1224 70.9851" stroke="#263238" stroke-linecap="round" stroke-linejoin="round"/>
<path d="M37.1247 66.6072L35.9971 68.6082" stroke="#263238" stroke-linecap="round" stroke-linejoin="round"/>
<path d="M36.1224 81.2476C38.4366 82.9319 40.6882 84.6197 40.6882 84.6197" stroke="#263238" stroke-linecap="round" stroke-linejoin="round"/>
<path d="M43.5661 74.9871C41.4398 77.4231 39.5641 81.1049 39.5641 81.1049" stroke="#263238" stroke-linecap="round" stroke-linejoin="round"/>
<path d="M34.7478 93.3684C36.6565 95.273 38.2778 97.4452 39.5606 99.8168" stroke="#263238" stroke-linecap="round" stroke-linejoin="round"/>
<path d="M43.9385 95.5016C43.9385 95.5016 43.7506 95.7557 42.4351 97.6941C41.4991 99.1671 40.6845 100.714 39.9991 102.319" stroke="#263238" stroke-linecap="round" stroke-linejoin="round"/>
<path d="M37.497 106.888C38.4667 107.956 39.3456 109.102 40.1244 110.316C40.9071 111.628 41.5854 113 42.1532 114.419" stroke="#263238" stroke-linecap="round" stroke-linejoin="round"/>
<path d="M36.5644 114.569C36.9994 115.519 38.0608 117.882 39.0004 119.695C39.5732 120.928 39.8051 122.291 39.672 123.644" stroke="#263238" stroke-linecap="round" stroke-linejoin="round"/>
<path d="M51.9355 92.5959C50.8561 91.4727 49.8714 90.2621 48.9914 88.9767C47.8082 87.1636 49.0367 84.7276 49.0367 84.7276C49.0367 84.7276 49.8928 85.7994 51.1838 87.6334C52.4749 89.4674 52.2835 90.5844 52.2835 90.5844L51.9355 92.5959Z" fill="#209E52"/>
<path d="M48.4555 99.18C47.3753 98.0575 46.3905 96.847 45.5115 95.5608C44.3283 93.7478 45.5567 91.3118 45.5567 91.3118C45.5567 91.3118 46.4093 92.3836 47.7039 94.2176C48.9984 96.0515 48.8035 97.1686 48.8035 97.1686L48.4555 99.18Z" fill="#209E52"/>
<path d="M51.2813 94.4298C52.7462 93.8901 54.1629 93.2277 55.5164 92.4497C57.3713 91.3222 57.3191 88.5939 57.3191 88.5939C57.3191 88.5939 56.0906 89.1924 54.1279 90.2817C52.1652 91.3709 51.8555 92.4706 51.8555 92.4706L51.2813 94.4298Z" fill="#209E52"/>
<path d="M46.9208 102.131C48.4298 101.745 49.9036 101.233 51.3265 100.6C53.2892 99.6777 53.5259 96.9633 53.5259 96.9633C53.5259 96.9633 52.2418 97.4157 50.1746 98.3065C48.1075 99.1974 47.676 100.224 47.676 100.224L46.9208 102.131Z" fill="#209E52"/>
<path d="M46.284 111.329C47.6792 110.63 49.0132 109.815 50.2721 108.893C52.0121 107.581 51.6641 104.877 51.6641 104.877C51.6641 104.877 50.4983 105.597 48.6643 106.888C46.8304 108.179 46.6355 109.303 46.6355 109.303L46.284 111.329Z" fill="#209E52"/>
<path d="M45.6054 113.448C44.6977 112.182 43.8958 110.844 43.2077 109.446C42.2959 107.48 43.8585 105.242 43.8585 105.242C43.8585 105.242 44.5545 106.425 45.5671 108.426C46.5798 110.427 46.2388 111.506 46.2388 111.506L45.6054 113.448Z" fill="#209E52"/>
<path d="M43.3399 122.541C41.9871 121.768 40.7008 120.883 39.4945 119.896C37.8485 118.504 38.3392 115.804 38.3392 115.804C38.3392 115.804 39.4597 116.59 41.2171 117.989C42.9745 119.388 43.1068 120.512 43.1068 120.512L43.3399 122.541Z" fill="#209E52"/>
<path d="M43.2147 119.74C44.6079 119.044 45.9417 118.235 47.2027 117.321C48.9427 116.006 48.5947 113.302 48.5947 113.302C48.5947 113.302 47.4359 114.026 45.5985 115.313C43.761 116.601 43.5696 117.728 43.5696 117.728L43.2147 119.74Z" fill="#209E52"/>
<path d="M43.7645 125.851C44.9402 124.828 46.0265 123.707 47.0113 122.5C48.3476 120.791 47.335 118.261 47.335 118.261C47.335 118.261 46.3919 119.253 44.9442 120.968C43.4965 122.684 43.594 123.818 43.594 123.818L43.7645 125.851Z" fill="#209E52"/>
<path d="M44.196 129.418C44.196 129.418 43.1938 122.343 43.2077 119.796C43.2216 117.248 45.0382 115.446 46.1413 111.812C47.2445 108.179 46.1413 104.156 47.2445 101.372C48.3477 98.5884 50.2477 96.8032 51.4205 93.7164C51.8324 92.6037 52.181 91.4686 52.4645 90.3165" stroke="#263238" stroke-linecap="round" stroke-linejoin="round"/>
<path d="M53.6198 92.2026L51.7093 93.2049" stroke="#263238" stroke-linecap="round" stroke-linejoin="round"/>
<path d="M51.5597 90.3547L52.0469 91.7293" stroke="#263238" stroke-linecap="round" stroke-linejoin="round"/>
<path d="M50.5853 99.6324C48.9636 100.45 47.3663 101.265 47.3663 101.265" stroke="#263238" stroke-linecap="round" stroke-linejoin="round"/>
<path d="M46.6076 94.91C47.3694 96.2657 47.9886 97.6967 48.4555 99.18" stroke="#263238" stroke-linecap="round" stroke-linejoin="round"/>
<path d="M50.1294 107.396C48.7267 108.384 47.4737 109.569 46.4093 110.915" stroke="#263238" stroke-linecap="round" stroke-linejoin="round"/>
<path d="M44.1368 107.734C44.1368 107.734 44.2204 107.908 44.8328 109.272C45.2706 110.295 45.6199 111.353 45.8768 112.435" stroke="#263238" stroke-linecap="round" stroke-linejoin="round"/>
<path d="M39.9121 118.435C40.3267 118.854 40.7722 119.241 41.245 119.594C41.9929 120.241 42.6812 120.953 43.3017 121.723" stroke="#263238" stroke-linecap="round" stroke-linejoin="round"/>
<path d="M46.9522 115.567C46.2291 116.137 45.5529 116.765 44.9303 117.443C44.2991 118.182 43.7255 118.969 43.2147 119.796" stroke="#263238" stroke-linecap="round" stroke-linejoin="round"/>
<path d="M46.7051 120.495C46.3293 121.038 45.4036 122.406 44.6171 123.45C44.1267 124.161 43.8326 124.989 43.7645 125.851" stroke="#263238" stroke-linecap="round" stroke-linejoin="round"/>
<path opacity="0.2" d="M35.9414 69.9933C37.9147 68.5461 39.7632 66.9362 41.4677 65.1804C43.7854 62.6644 42.536 58.5684 42.536 58.5684C42.536 58.5684 40.9318 59.9952 38.4366 62.4869C35.9414 64.9786 35.9414 66.7638 35.9414 66.7638V69.9933Z" fill="black"/>
<path opacity="0.2" d="M39.5641 81.1084C41.539 79.6632 43.3877 78.0532 45.0904 76.2955C47.4046 73.8004 46.1587 69.7044 46.1587 69.7044C46.1587 69.7044 44.5544 71.1277 42.0593 73.6229C39.5641 76.118 39.5641 77.8998 39.5641 77.8998V81.1084Z" fill="black"/>
<path opacity="0.2" d="M36.4356 72.9826C34.3218 71.7498 32.3139 70.3437 30.4326 68.7788C27.8644 66.5376 28.6717 62.3303 28.6717 62.3303C28.6717 62.3303 30.4117 63.5936 33.1644 65.8103C35.9171 68.0271 36.0981 69.8054 36.0981 69.8054L36.4356 72.9826Z" fill="black"/>
<path opacity="0.2" d="M41.151 86.0882C38.9199 85.0854 36.7759 83.8993 34.7408 82.5421C31.9568 80.5829 32.3048 76.3164 32.3048 76.3164C32.3048 76.3164 34.1701 77.3604 37.1351 79.2918C40.1 81.2232 40.4724 82.9493 40.4724 82.9493L41.151 86.0882Z" fill="black"/>
<path opacity="0.2" d="M39.6511 100.509C37.6795 99.0615 35.8311 97.4529 34.1249 95.7C31.8072 93.1875 33.06 89.088 33.06 89.088C33.06 89.088 34.6643 90.5113 37.1594 93.0065C39.6546 95.5017 39.6546 97.2904 39.6546 97.2904L39.6511 100.509Z" fill="black"/>
<path opacity="0.2" d="M42.1533 114.363C40.1815 112.914 38.3331 111.305 36.627 109.55C34.3093 107.055 35.5587 102.938 35.5587 102.938C35.5587 102.938 37.1629 104.358 39.6581 106.857C42.1533 109.356 42.1533 111.141 42.1533 111.141V114.363Z" fill="black"/>
<path opacity="0.2" d="M51.9355 92.5959C50.8561 91.4727 49.8714 90.2621 48.9914 88.9767C47.8082 87.1636 49.0367 84.7276 49.0367 84.7276C49.0367 84.7276 49.8928 85.7994 51.1838 87.6334C52.4749 89.4674 52.2835 90.5844 52.2835 90.5844L51.9355 92.5959Z" fill="black"/>
<path opacity="0.2" d="M47.7039 94.2176C46.4093 92.3836 45.5567 91.3118 45.5567 91.3118C45.4261 91.5876 45.319 91.874 45.2365 92.1678C45.1321 91.8894 45.0556 91.7259 45.0556 91.7259C45.0556 91.7259 43.6636 93.3684 41.5547 96.1942C39.4458 99.02 39.6929 100.781 39.6929 100.781L40.1453 103.962C41.8953 102.244 43.4972 100.381 44.9338 98.3936C45.426 97.6692 45.7233 96.8302 45.7968 95.9576C46.6009 97.0959 47.4897 98.1719 48.4555 99.1766L48.8035 97.1651C48.8035 97.1651 48.9984 96.048 47.7039 94.2176Z" fill="black"/>
<path opacity="0.2" d="M51.2813 94.4298C52.7462 93.8901 54.1629 93.2277 55.5164 92.4497C57.3713 91.3222 57.3191 88.5939 57.3191 88.5939C57.3191 88.5939 56.0906 89.1924 54.1279 90.2817C52.1652 91.3709 51.8555 92.4706 51.8555 92.4706L51.2813 94.4298Z" fill="black"/>
<path opacity="0.2" d="M46.9208 102.131C48.4298 101.745 49.9036 101.233 51.3265 100.6C53.2892 99.6777 53.5259 96.9633 53.5259 96.9633C53.5259 96.9633 52.2418 97.4157 50.1746 98.3065C48.1075 99.1974 47.676 100.224 47.676 100.224L46.9208 102.131Z" fill="black"/>
<path opacity="0.2" d="M46.284 111.329C47.6792 110.63 49.0132 109.815 50.2721 108.893C52.0121 107.581 51.6641 104.877 51.6641 104.877C51.6641 104.877 50.4983 105.597 48.6643 106.888C46.8304 108.179 46.6355 109.303 46.6355 109.303L46.284 111.329Z" fill="black"/>
<path opacity="0.2" d="M45.6054 113.448C44.6977 112.182 43.8958 110.844 43.2077 109.446C42.2959 107.48 43.8585 105.242 43.8585 105.242C43.8585 105.242 44.5545 106.425 45.5671 108.426C46.5798 110.427 46.2388 111.506 46.2388 111.506L45.6054 113.448Z" fill="black"/>
<path opacity="0.2" d="M43.3399 122.541L43.1068 120.512C43.1068 120.512 42.9745 119.385 41.2171 117.989C40.6429 117.53 40.1348 117.137 39.7138 116.817C39.5572 116.493 39.3658 116.145 39.1639 115.773C37.3822 112.752 36.192 110.953 36.192 110.953C36.192 110.953 33.9474 114.603 35.5586 117.6C36.76 119.725 38.1358 121.747 39.672 123.644L40.4654 120.655C41.3843 121.342 42.3442 121.972 43.3399 122.541Z" fill="black"/>
<path opacity="0.2" d="M43.2147 119.74C44.6079 119.044 45.9417 118.235 47.2027 117.321C48.9427 116.006 48.5947 113.302 48.5947 113.302C48.5947 113.302 47.4359 114.026 45.5985 115.313C43.761 116.601 43.5696 117.728 43.5696 117.728L43.2147 119.74Z" fill="black"/>
<path opacity="0.2" d="M43.7645 125.851C44.9402 124.828 46.0265 123.707 47.0113 122.5C48.3476 120.791 47.335 118.261 47.335 118.261C47.335 118.261 46.3919 119.253 44.9442 120.968C43.4965 122.684 43.594 123.818 43.594 123.818L43.7645 125.851Z" fill="black"/>
<path d="M140.289 23.1002H34.9392V79.511H140.289V23.1002Z" fill="#263238"/>
<path d="M137.519 26.1104H37.7998V76.7549H137.519V26.1104Z" fill="white"/>
<path d="M67.8809 29.58V69.7461" stroke="#263238" stroke-linecap="round" stroke-linejoin="round"/>
<path d="M101.825 29.58V71.1207" stroke="#263238" stroke-linecap="round" stroke-linejoin="round"/>
<path d="M46.5067 37.7406H125.649" stroke="#263238" stroke-linecap="round" stroke-linejoin="round"/>
<path d="M51.5388 31.6297H50.4182V31.1008H53.2823V31.6297H52.1652V34.4729H51.5388V31.6297Z" fill="#263238"/>
<path d="M53.2231 33.1888C53.2127 32.9154 53.2843 32.6453 53.4286 32.4129C53.573 32.1806 53.7835 31.9968 54.0332 31.8851C54.2828 31.7733 54.5602 31.7388 54.8296 31.786C55.099 31.8331 55.3482 31.9598 55.545 32.1496C55.7419 32.3395 55.8775 32.5839 55.9344 32.8514C55.9913 33.1189 55.9668 33.3974 55.8642 33.6509C55.7616 33.9045 55.5856 34.1215 55.3586 34.2742C55.1317 34.4269 54.8643 34.5082 54.5908 34.5077C54.4128 34.5173 54.2347 34.4901 54.0677 34.4278C53.9006 34.3656 53.7482 34.2696 53.6199 34.1459C53.4916 34.0221 53.3902 33.8733 53.3219 33.7086C53.2536 33.544 53.22 33.367 53.2231 33.1888ZM55.3599 33.1888C55.3524 33.0393 55.3013 32.8954 55.2129 32.7747C55.1245 32.654 55.0027 32.5619 54.8625 32.5096C54.7223 32.4574 54.5699 32.4474 54.4241 32.4808C54.2782 32.5143 54.1454 32.5897 54.042 32.6978C53.9386 32.8059 53.8691 32.9419 53.8421 33.0891C53.8152 33.2362 53.8319 33.3881 53.8903 33.5258C53.9487 33.6635 54.0461 33.7812 54.1706 33.8641C54.2951 33.9471 54.4412 33.9918 54.5908 33.9926C54.6955 33.9953 54.7996 33.9761 54.8965 33.9362C54.9933 33.8962 55.0807 33.8365 55.1531 33.7608C55.2256 33.6851 55.2814 33.5952 55.317 33.4966C55.3525 33.3981 55.3672 33.2933 55.3599 33.1888Z" fill="#263238"/>
<path d="M60.3989 30.8954V34.4728H59.8212V34.1248C59.7152 34.2442 59.5832 34.3376 59.4354 34.3979C59.2875 34.4583 59.1279 34.4839 58.9686 34.4728C58.6188 34.4728 58.2833 34.3339 58.036 34.0865C57.7886 33.8392 57.6497 33.5037 57.6497 33.1539C57.6497 32.8041 57.7886 32.4686 58.036 32.2213C58.2833 31.974 58.6188 31.835 58.9686 31.835C59.1239 31.8277 59.2788 31.8551 59.4221 31.9154C59.5654 31.9756 59.6934 32.067 59.7968 32.183V30.8606L60.3989 30.8954ZM59.8073 33.1887C59.8005 33.0383 59.7496 32.8931 59.6611 32.7713C59.5726 32.6495 59.4502 32.5564 59.3092 32.5035C59.1682 32.4506 59.0148 32.4402 58.868 32.4737C58.7211 32.5072 58.5874 32.583 58.4833 32.6919C58.3792 32.8007 58.3093 32.9377 58.2823 33.0858C58.2554 33.234 58.2725 33.3868 58.3316 33.5253C58.3907 33.6638 58.4892 33.7819 58.6148 33.865C58.7404 33.9481 58.8876 33.9924 59.0382 33.9926C59.1428 33.9947 59.2467 33.9751 59.3433 33.935C59.4399 33.8949 59.5271 33.8352 59.5994 33.7596C59.6717 33.6841 59.7275 33.5943 59.7633 33.496C59.7991 33.3977 59.8141 33.2931 59.8073 33.1887Z" fill="#263238"/>
<path d="M60.9801 33.1888C60.9696 32.9154 61.0412 32.6453 61.1856 32.4129C61.3299 32.1806 61.5404 31.9968 61.7901 31.8851C62.0397 31.7733 62.3171 31.7388 62.5865 31.786C62.8559 31.8331 63.1051 31.9598 63.302 32.1496C63.4989 32.3395 63.6344 32.5839 63.6913 32.8514C63.7482 33.1189 63.7238 33.3974 63.6212 33.6509C63.5186 33.9045 63.3425 34.1215 63.1156 34.2742C62.8886 34.4269 62.6212 34.5082 62.3477 34.5077C62.1697 34.5173 61.9916 34.4901 61.8246 34.4278C61.6576 34.3656 61.5052 34.2696 61.3768 34.1459C61.2485 34.0221 61.1471 33.8733 61.0788 33.7086C61.0106 33.544 60.9769 33.367 60.9801 33.1888ZM63.1168 33.1888C63.1093 33.0393 63.0582 32.8954 62.9698 32.7747C62.8814 32.654 62.7596 32.5619 62.6194 32.5096C62.4792 32.4574 62.3268 32.4474 62.181 32.4808C62.0352 32.5143 61.9024 32.5897 61.7989 32.6978C61.6955 32.8059 61.626 32.9419 61.5991 33.0891C61.5721 33.2362 61.5889 33.3881 61.6472 33.5258C61.7056 33.6635 61.8031 33.7812 61.9275 33.8641C62.052 33.9471 62.1981 33.9918 62.3477 33.9926C62.4524 33.9953 62.5565 33.9761 62.6534 33.9362C62.7502 33.8962 62.8377 33.8365 62.9101 33.7608C62.9825 33.6851 63.0383 33.5952 63.0739 33.4966C63.1095 33.3981 63.1241 33.2933 63.1168 33.1888Z" fill="#263238"/>
<path d="M77.8824 31.1008H79.344C80.4402 31.1008 81.1884 31.7759 81.1884 32.7886C81.1884 33.8012 80.4402 34.4729 79.344 34.4729H77.8824V31.1008ZM79.344 33.9439C79.5013 33.9526 79.6587 33.929 79.8066 33.8748C79.9545 33.8205 80.0898 33.7367 80.2042 33.6284C80.3186 33.5201 80.4097 33.3896 80.4719 33.2449C80.5342 33.1002 80.5663 32.9444 80.5663 32.7868C80.5663 32.6293 80.5342 32.4734 80.4719 32.3287C80.4097 32.184 80.3186 32.0536 80.2042 31.9453C80.0898 31.837 79.9545 31.7531 79.8066 31.6989C79.6587 31.6446 79.5013 31.6211 79.344 31.6297H78.5262V33.9439H79.344Z" fill="#263238"/>
<path d="M81.599 33.1888C81.5886 32.9156 81.6601 32.6456 81.8043 32.4133C81.9485 32.1811 82.1588 31.9972 82.4083 31.8854C82.6577 31.7736 82.9349 31.7389 83.2042 31.7857C83.4735 31.8326 83.7227 31.9589 83.9197 32.1484C84.1167 32.3379 84.2526 32.582 84.3099 32.8493C84.3671 33.1166 84.3432 33.3949 84.2411 33.6485C84.1391 33.9021 83.9635 34.1194 83.7371 34.2725C83.5106 34.4256 83.2435 34.5075 82.9702 34.5077C82.7919 34.5178 82.6134 34.491 82.446 34.4289C82.2785 34.3669 82.1257 34.271 81.997 34.1472C81.8683 34.0234 81.7666 33.8744 81.6981 33.7095C81.6296 33.5446 81.5959 33.3673 81.599 33.1888ZM83.7358 33.1888C83.7283 33.0392 83.6771 32.8951 83.5886 32.7743C83.5 32.6536 83.378 32.5614 83.2376 32.5093C83.0972 32.4572 82.9446 32.4474 82.7987 32.4811C82.6528 32.5148 82.52 32.5906 82.4167 32.699C82.3135 32.8075 82.2442 32.9438 82.2177 33.0912C82.1911 33.2386 82.2083 33.3905 82.2672 33.5282C82.3261 33.6659 82.4241 33.7832 82.5491 33.8658C82.674 33.9484 82.8204 33.9925 82.9702 33.9926C83.0747 33.9954 83.1787 33.9761 83.2754 33.9362C83.3721 33.8962 83.4593 33.8364 83.5315 33.7607C83.6036 33.6849 83.6591 33.5949 83.6943 33.4964C83.7294 33.3979 83.7436 33.2931 83.7358 33.1888Z" fill="#263238"/>
<path d="M84.8424 31.1146C84.8422 31.0659 84.8522 31.0176 84.8718 30.9729C84.8914 30.9282 84.9202 30.8882 84.9563 30.8554C84.9924 30.8226 85.035 30.7977 85.0813 30.7824C85.1277 30.7671 85.1767 30.7618 85.2252 30.7666C85.274 30.7612 85.3234 30.7662 85.3702 30.7813C85.4169 30.7963 85.4599 30.8211 85.4964 30.854C85.5329 30.8868 85.562 30.9271 85.5819 30.972C85.6017 31.0169 85.6118 31.0655 85.6115 31.1146C85.6024 31.2103 85.5579 31.2992 85.4868 31.3638C85.4157 31.4285 85.3231 31.4643 85.227 31.4643C85.1308 31.4643 85.0382 31.4285 84.9671 31.3638C84.896 31.2992 84.8515 31.2103 84.8424 31.1146ZM84.9225 31.9011H85.5245V34.4728H84.912L84.9225 31.9011Z" fill="#263238"/>
<path d="M88.8549 32.9973V34.4729H88.2493V33.0809C88.2493 32.6215 88.0231 32.3849 87.6369 32.3849C87.5366 32.3812 87.4367 32.3992 87.344 32.4377C87.2514 32.4763 87.1681 32.5344 87.1001 32.6081C87.032 32.6818 86.9806 32.7694 86.9495 32.8648C86.9185 32.9602 86.9084 33.0612 86.92 33.1609V34.4624H86.304V31.9011H86.8782V32.2491C86.9913 32.1293 87.1295 32.0359 87.2829 31.9757C87.4364 31.9156 87.6012 31.8901 87.7656 31.9011C87.9125 31.8882 88.0604 31.9078 88.1989 31.9584C88.3374 32.0091 88.4631 32.0895 88.567 32.1941C88.6709 32.2987 88.7506 32.4249 88.8003 32.5637C88.8501 32.7025 88.8687 32.8505 88.8549 32.9973Z" fill="#263238"/>
<path d="M92.22 31.9012V34.0831C92.22 35.0192 91.7328 35.4438 90.828 35.4438C90.3826 35.4668 89.9418 35.3447 89.5717 35.0958L89.8432 34.6399C90.1171 34.8451 90.451 34.9539 90.7932 34.9496C91.3605 34.9496 91.611 34.6886 91.611 34.1701V34.0344C91.5001 34.1503 91.3657 34.2413 91.2169 34.3013C91.0681 34.3613 90.9083 34.3889 90.748 34.3824C90.5791 34.3913 90.4101 34.3658 90.2514 34.3073C90.0927 34.2488 89.9475 34.1586 89.8248 34.0422C89.7021 33.9258 89.6043 33.7856 89.5375 33.6302C89.4708 33.4748 89.4363 33.3074 89.4363 33.1383C89.4363 32.9691 89.4708 32.8018 89.5375 32.6464C89.6043 32.491 89.7021 32.3508 89.8248 32.2344C89.9475 32.118 90.0927 32.0278 90.2514 31.9693C90.4101 31.9108 90.5791 31.8853 90.748 31.8942C90.9154 31.8856 91.0826 31.9146 91.2373 31.9791C91.3921 32.0435 91.5305 32.1417 91.6423 32.2666V31.9186L92.22 31.9012ZM91.6249 33.1087C91.6339 32.9528 91.5961 32.7978 91.5163 32.6636C91.4366 32.5294 91.3185 32.4221 91.1773 32.3555C91.0361 32.2888 90.8782 32.266 90.7239 32.2898C90.5695 32.3136 90.4259 32.383 90.3113 32.489C90.1967 32.5951 90.1165 32.733 90.0809 32.885C90.0453 33.0371 90.0559 33.1963 90.1115 33.3422C90.167 33.4881 90.2649 33.6141 90.3926 33.7039C90.5203 33.7938 90.6719 33.8434 90.828 33.8465C90.9288 33.8543 91.0302 33.8409 91.1255 33.8071C91.2208 33.7734 91.308 33.72 91.3814 33.6505C91.4549 33.581 91.5129 33.4969 91.5519 33.4036C91.5908 33.3102 91.6098 33.2098 91.6075 33.1087H91.6249Z" fill="#263238"/>
<path d="M109.919 31.1008H111.395C112.488 31.1008 113.236 31.7759 113.236 32.7886C113.236 33.8012 112.488 34.4729 111.395 34.4729H109.919V31.1008ZM111.36 33.9439C111.517 33.9526 111.675 33.929 111.823 33.8748C111.97 33.8205 112.106 33.7367 112.22 33.6284C112.335 33.5201 112.426 33.3896 112.488 33.2449C112.55 33.1002 112.582 32.9444 112.582 32.7868C112.582 32.6293 112.55 32.4734 112.488 32.3287C112.426 32.184 112.335 32.0536 112.22 31.9453C112.106 31.837 111.97 31.7531 111.823 31.6989C111.675 31.6446 111.517 31.6211 111.36 31.6297H110.542V33.9439H111.36Z" fill="#263238"/>
<path d="M113.632 33.1888C113.621 32.9146 113.693 32.6435 113.837 32.4101C113.981 32.1768 114.192 31.992 114.442 31.8794C114.692 31.7669 114.97 31.7318 115.241 31.7787C115.511 31.8256 115.761 31.9522 115.959 32.1424C116.157 32.3326 116.293 32.5776 116.35 32.8459C116.408 33.1142 116.383 33.3935 116.28 33.6479C116.178 33.9022 116.001 34.1201 115.774 34.2733C115.546 34.4265 115.278 34.5082 115.004 34.5077C114.825 34.5178 114.647 34.491 114.479 34.4289C114.312 34.3669 114.159 34.271 114.03 34.1472C113.902 34.0234 113.8 33.8744 113.731 33.7095C113.663 33.5446 113.629 33.3673 113.632 33.1888ZM115.769 33.1888C115.762 33.0392 115.71 32.8951 115.622 32.7743C115.533 32.6536 115.411 32.5614 115.271 32.5093C115.131 32.4572 114.978 32.4474 114.832 32.4811C114.686 32.5148 114.553 32.5906 114.45 32.699C114.347 32.8075 114.278 32.9438 114.251 33.0912C114.224 33.2386 114.242 33.3905 114.301 33.5282C114.36 33.6659 114.458 33.7832 114.582 33.8658C114.707 33.9484 114.854 33.9925 115.004 33.9926C115.108 33.9954 115.212 33.9761 115.309 33.9362C115.405 33.8962 115.493 33.8364 115.565 33.7607C115.637 33.6849 115.692 33.5949 115.728 33.4964C115.763 33.3979 115.777 33.2931 115.769 33.1888Z" fill="#263238"/>
<path d="M119.493 32.9974V34.4729H118.891V33.0809C118.891 32.6215 118.665 32.3849 118.278 32.3849C118.178 32.3807 118.077 32.3983 117.984 32.4366C117.891 32.475 117.808 32.533 117.739 32.6068C117.671 32.6805 117.619 32.7683 117.588 32.864C117.556 32.9596 117.546 33.0609 117.558 33.1609V34.4624H116.956V31.9012H117.53V32.2492C117.643 32.1295 117.782 32.0362 117.935 31.9761C118.088 31.9159 118.253 31.8904 118.417 31.9012C118.563 31.8904 118.71 31.9116 118.846 31.9632C118.983 32.0148 119.107 32.0955 119.209 32.1999C119.312 32.3042 119.39 32.4296 119.439 32.5674C119.488 32.7051 119.506 32.8518 119.493 32.9974Z" fill="#263238"/>
<path d="M122.698 33.3802H120.676C120.715 33.5675 120.822 33.7337 120.976 33.8473C121.13 33.9609 121.321 34.0139 121.511 33.9961C121.64 34.0008 121.769 33.9785 121.889 33.9305C122.008 33.8826 122.117 33.8101 122.207 33.7177L122.531 34.0901C122.336 34.2866 122.089 34.4232 121.819 34.4835C121.549 34.5439 121.267 34.5256 121.007 34.4307C120.747 34.3359 120.519 34.1685 120.352 33.9484C120.184 33.7282 120.083 33.4646 120.06 33.1888C120.055 33.0132 120.085 32.8384 120.15 32.6753C120.215 32.5121 120.313 32.3641 120.438 32.2404C120.563 32.1167 120.712 32.02 120.875 31.9562C121.039 31.8925 121.214 31.8631 121.389 31.8698C121.565 31.8632 121.74 31.8934 121.903 31.9584C122.066 32.0235 122.213 32.1219 122.336 32.2475C122.458 32.3731 122.553 32.523 122.615 32.6875C122.676 32.852 122.702 33.0275 122.691 33.2027C122.705 33.2514 122.701 33.321 122.698 33.3802ZM120.672 32.98H122.148C122.124 32.8035 122.036 32.6418 121.902 32.5248C121.767 32.4078 121.595 32.3433 121.417 32.3433C121.239 32.3433 121.067 32.4078 120.933 32.5248C120.798 32.6418 120.711 32.8035 120.686 32.98H120.672Z" fill="#263238"/>
<path d="M47.6029 42.9815C47.6029 42.9815 46.6355 45.0486 48.0449 47.5785L51.7372 47.154C51.7372 47.154 51.1351 43.754 51.1664 42.4803L47.6029 42.9815Z" fill="#209E52" stroke="#263238" stroke-miterlimit="10"/>
<path d="M47.6029 42.7657L51.1665 42.4803C51.3232 43.7185 51.6234 44.9342 52.0608 46.103L48.4521 46.5554C48.0112 45.3328 47.7259 44.0596 47.6029 42.7657Z" fill="white" stroke="#263238" stroke-miterlimit="10"/>
<path d="M52.8229 49.4647L56.3865 49.1828C56.5434 50.4198 56.8436 51.6343 57.2808 52.802L53.6721 53.244C53.2337 52.0242 52.9485 50.7547 52.8229 49.4647Z" fill="#209E52" stroke="#263238" stroke-miterlimit="10"/>
<path d="M53.8147 56.4699L57.3817 56.188C57.5367 57.425 57.8357 58.6397 58.2726 59.8072L54.6638 60.2596C54.2247 59.0365 53.9394 57.7635 53.8147 56.4699Z" fill="white" stroke="#263238" stroke-miterlimit="10"/>
<path d="M57.681 42.7379L61.6726 42.4803C61.6465 43.9279 61.8762 45.3687 62.3512 46.7364L58.3979 47.1957C58.3979 47.1957 57.681 46.1135 57.681 42.7379Z" fill="white" stroke="#263238" stroke-miterlimit="10"/>
<path d="M58.2726 42.108L62.2642 41.8539C62.2437 43.3025 62.4793 44.7434 62.9602 46.11L59.0069 46.5693C59.0069 46.5693 58.2726 45.4731 58.2726 42.108Z" fill="#209E52" stroke="#263238" stroke-miterlimit="10"/>
<path d="M61.4185 43.0093C61.419 43.0396 61.4134 43.0697 61.402 43.0977C61.3906 43.1258 61.3737 43.1513 61.3523 43.1727C61.3309 43.1942 61.3054 43.2111 61.2773 43.2224C61.2492 43.2338 61.2191 43.2394 61.1888 43.239C61.1584 43.2394 61.1282 43.2338 61.0999 43.2225C61.0716 43.2112 61.0459 43.1943 61.0242 43.1729C61.0025 43.1516 60.9853 43.1261 60.9735 43.098C60.9617 43.0699 60.9557 43.0397 60.9557 43.0093C60.9557 42.9474 60.9802 42.8881 61.024 42.8444C61.0677 42.8007 61.127 42.7761 61.1888 42.7761C61.2193 42.7761 61.2495 42.7822 61.2776 42.7939C61.3056 42.8057 61.3311 42.8229 61.3525 42.8446C61.3739 42.8663 61.3907 42.8921 61.4021 42.9203C61.4134 42.9486 61.419 42.9788 61.4185 43.0093Z" fill="#263238"/>
<path d="M50.46 43.4721C50.4605 43.5024 50.4549 43.5325 50.4435 43.5606C50.4321 43.5886 50.4152 43.6141 50.3938 43.6356C50.3724 43.657 50.3468 43.6739 50.3188 43.6853C50.2907 43.6966 50.2606 43.7023 50.2303 43.7018C50.1999 43.7023 50.1696 43.6967 50.1414 43.6853C50.1131 43.674 50.0874 43.6571 50.0657 43.6358C50.044 43.6144 50.0267 43.5889 50.015 43.5608C50.0032 43.5327 49.9972 43.5026 49.9972 43.4721C49.9972 43.4103 50.0217 43.351 50.0655 43.3072C50.1092 43.2635 50.1685 43.239 50.2303 43.239C50.2608 43.2389 50.2909 43.245 50.319 43.2568C50.3471 43.2685 50.3726 43.2858 50.394 43.3074C50.4153 43.3291 50.4322 43.3549 50.4435 43.3831C50.4549 43.4114 50.4605 43.4417 50.46 43.4721Z" fill="#263238"/>
<path d="M54.803 50.0807C54.803 50.1268 54.7894 50.1719 54.7638 50.2102C54.7381 50.2486 54.7017 50.2785 54.6591 50.2961C54.6165 50.3137 54.5696 50.3184 54.5244 50.3094C54.4792 50.3004 54.4376 50.2782 54.405 50.2456C54.3724 50.213 54.3502 50.1714 54.3412 50.1262C54.3322 50.081 54.3368 50.0341 54.3545 49.9915C54.3721 49.9489 54.402 49.9124 54.4404 49.8868C54.4787 49.8612 54.5238 49.8475 54.5699 49.8475C54.6317 49.8475 54.691 49.8721 54.7348 49.9158C54.7785 49.9595 54.803 50.0189 54.803 50.0807Z" fill="#263238"/>
<path d="M60.0161 50.6723L63.4335 50.3243C63.4642 51.8684 63.6899 53.4025 64.1051 54.89L60.6077 55.1998C60.6077 55.1998 59.9709 53.592 60.0161 50.6723Z" fill="white" stroke="#263238" stroke-miterlimit="10"/>
<path d="M45.2678 51.6153C45.2678 51.6153 43.674 54.4202 45.4801 57.2773L49.1098 56.8527C49.1098 56.8527 48.1736 53.5537 48.7096 51.4344L45.2678 51.6153Z" fill="white" stroke="#263238" stroke-miterlimit="10"/>
<path d="M45.2679 51.6153L48.7096 51.4344C48.714 52.8799 48.8999 54.3191 49.2629 55.7183L45.8003 56.1881C45.8003 56.1881 44.9094 55.1023 45.2679 51.6153Z" fill="#209E52" stroke="#263238" stroke-miterlimit="10"/>
<path d="M47.509 52.2348C47.5096 52.2812 47.4965 52.3267 47.4711 52.3656C47.4458 52.4045 47.4094 52.4349 47.3666 52.453C47.3239 52.471 47.2767 52.476 47.2312 52.4671C47.1856 52.4582 47.1438 52.4359 47.111 52.4031C47.0781 52.3703 47.0559 52.3284 47.047 52.2829C47.0381 52.2373 47.043 52.1901 47.0611 52.1474C47.0792 52.1047 47.1096 52.0683 47.1484 52.0429C47.1873 52.0176 47.2329 52.0044 47.2793 52.0051C47.3402 52.0051 47.3986 52.0293 47.4417 52.0724C47.4848 52.1154 47.509 52.1739 47.509 52.2348Z" fill="#263238"/>
<path d="M62.814 51.2186C62.814 51.2804 62.7894 51.3397 62.7457 51.3835C62.702 51.4272 62.6427 51.4518 62.5808 51.4518C62.5504 51.4518 62.5202 51.4457 62.4921 51.4339C62.464 51.4222 62.4386 51.405 62.4172 51.3833C62.3958 51.3616 62.379 51.3358 62.3676 51.3076C62.3563 51.2793 62.3507 51.249 62.3512 51.2186C62.3507 51.1883 62.3563 51.1582 62.3677 51.1302C62.3791 51.1021 62.396 51.0766 62.4174 51.0551C62.4388 51.0337 62.4643 51.0168 62.4924 51.0054C62.5205 50.9941 62.5506 50.9884 62.5808 50.9889C62.6113 50.9885 62.6415 50.9941 62.6698 51.0054C62.6981 51.0167 62.7238 51.0336 62.7455 51.0549C62.7672 51.0763 62.7844 51.1018 62.7962 51.1299C62.808 51.158 62.814 51.1881 62.814 51.2186Z" fill="#263238"/>
<path d="M56.9293 57.0441C56.9334 57.0769 56.9304 57.1102 56.9206 57.1417C56.9108 57.1732 56.8944 57.2023 56.8725 57.2271C56.8507 57.2518 56.8238 57.2716 56.7937 57.2852C56.7636 57.2987 56.7309 57.3057 56.6979 57.3057C56.6649 57.3057 56.6323 57.2987 56.6021 57.2852C56.572 57.2716 56.5452 57.2518 56.5233 57.2271C56.5014 57.2023 56.485 57.1732 56.4752 57.1417C56.4654 57.1102 56.4625 57.0769 56.4665 57.0441C56.4734 56.9877 56.5008 56.9357 56.5434 56.8979C56.5861 56.8602 56.641 56.8394 56.6979 56.8394C56.7548 56.8394 56.8098 56.8602 56.8524 56.8979C56.895 56.9357 56.9224 56.9877 56.9293 57.0441Z" fill="#263238"/>
<path d="M74.3502 53.0317L77.9172 52.7498C78.0723 53.9871 78.3725 55.2019 78.8116 56.369L75.1993 56.8249C74.7605 55.6005 74.4753 54.3263 74.3502 53.0317Z" fill="#209E52" stroke="#263238" stroke-miterlimit="10"/>
<path d="M75.262 61.415L78.8255 61.1331C78.9825 62.3701 79.2826 63.5846 79.7198 64.7523L76.1111 65.2047C75.6702 63.9821 75.3849 62.7089 75.262 61.415Z" fill="white" stroke="#263238" stroke-miterlimit="10"/>
<path d="M87.6612 42.7379L91.6528 42.4803C91.6267 43.9279 91.8564 45.3687 92.3314 46.7364L88.392 47.1957C88.392 47.1957 87.6612 46.1135 87.6612 42.7379Z" fill="white" stroke="#263238" stroke-miterlimit="10"/>
<path d="M88.2528 42.108L92.2444 41.8539C92.2177 43.2964 92.445 44.7324 92.916 46.0961L88.9627 46.5554C88.9627 46.5554 88.2528 45.4731 88.2528 42.108Z" fill="#209E52" stroke="#263238" stroke-miterlimit="10"/>
<path d="M91.4022 43.0093C91.4022 43.0711 91.3776 43.1304 91.3339 43.1742C91.2902 43.2179 91.2309 43.2424 91.169 43.2424C91.1072 43.2424 91.0479 43.2179 91.0042 43.1742C90.9604 43.1304 90.9359 43.0711 90.9359 43.0093C90.9359 42.9474 90.9604 42.8881 91.0042 42.8444C91.0479 42.8007 91.1072 42.7761 91.169 42.7761C91.2309 42.7761 91.2902 42.8007 91.3339 42.8444C91.3776 42.8881 91.4022 42.9474 91.4022 43.0093Z" fill="#263238"/>
<path d="M76.3303 53.6476C76.3308 53.6779 76.3252 53.708 76.3138 53.7361C76.3024 53.7642 76.2855 53.7897 76.2641 53.8111C76.2427 53.8325 76.2172 53.8494 76.1891 53.8608C76.161 53.8722 76.1309 53.8778 76.1007 53.8773C76.0702 53.8778 76.04 53.8722 76.0117 53.8609C75.9834 53.8495 75.9577 53.8327 75.936 53.8113C75.9143 53.7899 75.8971 53.7644 75.8853 53.7364C75.8735 53.7083 75.8675 53.6781 75.8675 53.6476C75.8675 53.5858 75.8921 53.5265 75.9358 53.4828C75.9795 53.4391 76.0388 53.4145 76.1007 53.4145C76.1311 53.4145 76.1613 53.4205 76.1894 53.4323C76.2175 53.4441 76.2429 53.4613 76.2643 53.483C76.2857 53.5047 76.3025 53.5304 76.3139 53.5587C76.3252 53.587 76.3308 53.6172 76.3303 53.6476Z" fill="#263238"/>
<path d="M82.2985 52.28L85.7159 51.932C85.7471 53.4752 85.974 55.0082 86.391 56.4943L82.8901 56.8075C82.8901 56.8075 82.2533 55.1858 82.2985 52.28Z" fill="white" stroke="#263238" stroke-miterlimit="10"/>
<path d="M85.0964 52.8229C85.0964 52.8847 85.0719 52.944 85.0282 52.9878C84.9844 53.0315 84.9251 53.056 84.8633 53.056C84.8172 53.056 84.7721 53.0424 84.7337 53.0167C84.6954 52.9911 84.6655 52.9547 84.6479 52.9121C84.6302 52.8695 84.6256 52.8226 84.6346 52.7774C84.6436 52.7322 84.6658 52.6906 84.6984 52.658C84.731 52.6254 84.7726 52.6032 84.8178 52.5942C84.863 52.5852 84.9099 52.5898 84.9525 52.6075C84.9951 52.6251 85.0315 52.655 85.0572 52.6933C85.0828 52.7317 85.0964 52.7768 85.0964 52.8229Z" fill="#263238"/>
<path d="M77.7223 62.031C77.7264 62.0637 77.7234 62.097 77.7136 62.1285C77.7038 62.1601 77.6874 62.1892 77.6655 62.2139C77.6437 62.2386 77.6168 62.2584 77.5867 62.272C77.5566 62.2855 77.5239 62.2926 77.4909 62.2926C77.4579 62.2926 77.4253 62.2855 77.3951 62.272C77.365 62.2584 77.3382 62.2386 77.3163 62.2139C77.2944 62.1892 77.278 62.1601 77.2682 62.1285C77.2584 62.097 77.2555 62.0637 77.2595 62.031C77.2664 61.9745 77.2938 61.9225 77.3364 61.8848C77.3791 61.847 77.434 61.8262 77.4909 61.8262C77.5478 61.8262 77.6028 61.847 77.6454 61.8848C77.688 61.9225 77.7154 61.9745 77.7223 62.031Z" fill="#263238"/>
<path d="M109.62 42.7657L113.184 42.4803C113.34 43.7185 113.64 44.9342 114.078 46.103L110.469 46.5554C110.028 45.3328 109.743 44.0596 109.62 42.7657Z" fill="#209E52" stroke="#263238" stroke-miterlimit="10"/>
<path d="M115.828 56.4699L119.395 56.188C119.55 57.4254 119.851 58.6401 120.29 59.8072L116.677 60.2596C116.238 59.0365 115.953 57.7635 115.828 56.4699Z" fill="#209E52" stroke="#263238" stroke-miterlimit="10"/>
<path d="M120.29 42.108L124.281 41.8539C124.255 43.3012 124.484 44.7418 124.956 46.11L121.003 46.5693C121.003 46.5693 120.29 45.4731 120.29 42.108Z" fill="#209E52" stroke="#263238" stroke-miterlimit="10"/>
<path d="M123.436 43.0093C123.436 43.0397 123.43 43.0699 123.418 43.098C123.406 43.1261 123.389 43.1516 123.367 43.1729C123.345 43.1943 123.32 43.2112 123.291 43.2225C123.263 43.2338 123.233 43.2394 123.202 43.239C123.172 43.2394 123.142 43.2338 123.114 43.2224C123.086 43.2111 123.06 43.1942 123.039 43.1727C123.018 43.1513 123.001 43.1258 122.989 43.0977C122.978 43.0697 122.972 43.0396 122.973 43.0093C122.972 42.9788 122.978 42.9486 122.989 42.9203C123.001 42.8921 123.017 42.8663 123.039 42.8446C123.06 42.8229 123.086 42.8057 123.114 42.7939C123.142 42.7822 123.172 42.7761 123.202 42.7761C123.264 42.7761 123.324 42.8007 123.367 42.8444C123.411 42.8881 123.436 42.9474 123.436 43.0093Z" fill="#263238"/>
<path d="M112.474 43.4721C112.474 43.5339 112.449 43.5933 112.405 43.637C112.362 43.6807 112.302 43.7053 112.24 43.7053C112.179 43.7053 112.119 43.6807 112.076 43.637C112.032 43.5933 112.007 43.5339 112.007 43.4721C112.007 43.4103 112.032 43.351 112.076 43.3072C112.119 43.2635 112.179 43.239 112.24 43.239C112.302 43.239 112.362 43.2635 112.405 43.3072C112.449 43.351 112.474 43.4103 112.474 43.4721Z" fill="#263238"/>
<path d="M107.281 51.6153L110.723 51.4344C110.728 52.8799 110.913 54.3191 111.276 55.7183L107.814 56.1881C107.814 56.1881 106.923 55.1023 107.281 51.6153Z" fill="#209E52" stroke="#263238" stroke-miterlimit="10"/>
<path d="M109.523 52.2348C109.523 52.2652 109.517 52.2955 109.506 52.3237C109.495 52.352 109.478 52.3777 109.457 52.3994C109.435 52.4211 109.41 52.4384 109.382 52.4501C109.354 52.4619 109.323 52.4679 109.293 52.4679C109.231 52.4679 109.172 52.4434 109.128 52.3996C109.084 52.3559 109.06 52.2966 109.06 52.2348C109.06 52.2043 109.066 52.1742 109.078 52.1461C109.089 52.118 109.107 52.0925 109.128 52.0711C109.15 52.0497 109.176 52.0329 109.204 52.0216C109.232 52.0102 109.262 52.0046 109.293 52.0051C109.323 52.0046 109.353 52.0102 109.381 52.0216C109.409 52.033 109.435 52.0499 109.456 52.0713C109.478 52.0927 109.495 52.1182 109.506 52.1463C109.517 52.1744 109.523 52.2045 109.523 52.2348Z" fill="#263238"/>
<path d="M118.943 57.0442C118.944 57.0906 118.93 57.1361 118.905 57.175C118.88 57.2139 118.843 57.2443 118.801 57.2624C118.758 57.2804 118.711 57.2853 118.665 57.2765C118.62 57.2676 118.578 57.2453 118.545 57.2125C118.512 57.1797 118.49 57.1378 118.481 57.0923C118.472 57.0467 118.477 56.9995 118.495 56.9568C118.513 56.9141 118.544 56.8777 118.582 56.8523C118.621 56.827 118.667 56.8138 118.713 56.8145C118.774 56.8145 118.833 56.8387 118.876 56.8818C118.919 56.9248 118.943 56.9832 118.943 57.0442Z" fill="#263238"/>
<path opacity="0.2" d="M34.9392 23.396L37.8032 26.1104V76.7548L34.9392 79.511V23.396Z" fill="black"/>
<path opacity="0.2" d="M140.293 23.1002V79.2535L137.523 76.7549V26.1104L140.293 23.1002Z" fill="black"/>
<path d="M72.0395 42.3725L79.5389 41.84" stroke="#263238" stroke-linecap="round" stroke-linejoin="round"/>
<path d="M72.0395 43.7366L79.5389 43.2042" stroke="#263238" stroke-linecap="round" stroke-linejoin="round"/>
<path d="M72.0395 45.1043L79.5389 44.5718" stroke="#263238" stroke-linecap="round" stroke-linejoin="round"/>
<path d="M90.48 55.9897C90.828 54.7369 91.9694 53.8356 93.184 53.3693C95.6826 52.4088 98.2021 53.418 99.1 55.9967C99.7542 57.8759 99.6046 60.3327 97.8681 61.5647C97.1224 62.0614 96.2759 62.3864 95.3895 62.5164C94.5031 62.6464 93.5988 62.5781 92.742 62.3163C91.4544 61.8918 90.3652 60.6355 90.5044 59.2853" stroke="#263238" stroke-linecap="round" stroke-linejoin="round"/>
<path d="M97.9237 47.1818C97.4597 48.9845 97.0189 50.7894 96.6013 52.5967" stroke="#263238" stroke-linecap="round" stroke-linejoin="round"/>
<path d="M95.3868 50.627C95.6285 51.3771 95.9703 52.0912 96.403 52.7498C97.1271 52.4727 97.7448 51.9731 98.1673 51.323" stroke="#263238" stroke-linecap="round" stroke-linejoin="round"/>
<path d="M92.735 56.3377L96.2986 56.0558C96.4555 57.2928 96.7557 58.5073 97.1929 59.675L93.5842 60.1309C93.1435 58.907 92.8582 57.6327 92.735 56.3377Z" fill="#209E52" stroke="#263238" stroke-miterlimit="10"/>
<path d="M94.7152 56.9537C94.7152 56.9841 94.7091 57.0143 94.6974 57.0424C94.6856 57.0705 94.6684 57.096 94.6467 57.1173C94.625 57.1387 94.5992 57.1555 94.571 57.1669C94.5427 57.1782 94.5125 57.1838 94.482 57.1834C94.4517 57.1838 94.4216 57.1782 94.3936 57.1668C94.3655 57.1555 94.34 57.1386 94.3185 57.1171C94.2971 57.0957 94.2802 57.0702 94.2688 57.0421C94.2575 57.014 94.2518 56.984 94.2523 56.9537C94.2519 56.9232 94.2575 56.893 94.2688 56.8647C94.2801 56.8364 94.297 56.8107 94.3183 56.789C94.3397 56.7673 94.3652 56.7501 94.3933 56.7383C94.4214 56.7266 94.4515 56.7205 94.482 56.7205C94.5438 56.7205 94.6031 56.7451 94.6469 56.7888C94.6906 56.8325 94.7152 56.8918 94.7152 56.9537Z" fill="#263238"/>
<path d="M65.6606 152.946C65.709 153.162 65.803 153.366 65.9362 153.543C66.0694 153.72 66.2388 153.866 66.4332 153.973C67.8252 154.568 70.3308 153.625 72.1091 153.183C73.8873 152.741 77.7327 151.408 78.0807 149.925C78.1422 149.707 78.1324 149.474 78.0529 149.261C77.7258 148.481 76.2433 148.547 75.3176 148.547C74.1797 148.547 71.4165 148.248 70.6266 147.904C69.8366 147.559 65.4483 149.682 65.4483 149.682C65.4483 149.682 65.2361 151.651 65.6606 152.946Z" fill="#209E52"/>
<path d="M55.7461 148.909C55.8135 149.125 55.9323 149.321 56.0924 149.48C56.2524 149.64 56.4489 149.758 56.6648 149.824C57.9455 150.221 58.638 149.431 59.327 148.593C60.0161 147.754 60.7573 147.549 61.8465 146.766C62.9358 145.983 63.0193 144.458 62.4973 144.089C62.4781 144.074 62.457 144.061 62.4347 144.051C61.8465 143.755 59.6228 144.545 59.6228 144.545L56.2194 143.985C56.2194 143.985 55.9723 145.238 55.7252 146.421C55.5686 147.173 55.4747 148.171 55.7461 148.909Z" fill="#209E52"/>
<path d="M55.7461 148.913C55.8135 149.128 55.9323 149.324 56.0924 149.484C56.2524 149.643 56.4489 149.761 56.6648 149.828C57.9455 150.225 58.638 149.435 59.327 148.596C60.0161 147.757 60.7573 147.552 61.8465 146.769C62.9358 145.986 63.0193 144.462 62.4973 144.093C62.5932 144.704 62.4458 145.329 62.0867 145.833C61.6755 146.382 61.17 146.853 60.5937 147.225C60.0189 147.599 59.4847 148.031 58.9999 148.516C58.7807 148.763 58.4118 148.836 58.1403 149.024C57.7367 149.302 57.3782 149.563 56.9015 149.456C56.4834 149.355 56.0902 149.17 55.7461 148.913Z" fill="#FDFEFF"/>
<path d="M65.6606 152.946C65.7091 153.162 65.803 153.366 65.9362 153.543C66.0694 153.72 66.2389 153.866 66.4332 153.973C67.8252 154.568 70.2299 154.164 72.1091 153.183C73.8839 152.741 77.7327 151.408 78.0807 149.925C78.1422 149.706 78.1324 149.474 78.0529 149.261C77.858 149.685 77.3256 150.305 75.9858 151.001C73.3305 152.431 69.687 153.297 68.4029 153.506C67.5468 153.659 66.3566 153.242 65.6606 152.946Z" fill="#FDFEFF"/>
<path d="M56.7622 91.5658C56.5987 91.4718 52.9621 101.004 52.8681 101.404C52.5042 102.957 52.3868 104.557 52.5201 106.147C52.808 109.091 53.9389 111.889 55.7774 114.207C57.5174 116.427 61.1818 119.775 59.9534 122.955C59.2052 124.904 54.1105 133.743 55.4607 144.371C55.4607 144.371 57.065 147.068 60.0822 144.371L62.9462 138.532L65.1943 149.32C65.1943 149.32 68.1906 152.615 70.7344 149.32C70.525 143.598 71.0797 137.874 72.384 132.299C73.776 126.513 74.9 120.672 75.7561 114.777C76.1493 112.084 76.8001 109.237 76.4521 106.526C76.1041 103.673 72.9721 95.526 71.9281 92.8464C71.9559 92.8464 68.5942 98.3065 56.7622 91.5658Z" fill="#263238"/>
<path d="M62.0171 129.602C61.7944 131.321 62.1145 133.19 62.4068 134.885" stroke="#FDFEFF" stroke-linecap="round" stroke-linejoin="round"/>
<path d="M60.023 107.814L63.2873 109.084C63.2873 109.084 64.4983 118.174 64.4983 119.903C64.4983 121.076 63.2594 124.326 62.5077 127.211" stroke="#FDFEFF" stroke-linecap="round" stroke-linejoin="round"/>
<path d="M65.6606 149.041C65.6606 149.041 65.1351 151.432 65.6606 152.946C66.1861 154.46 67.3415 154.338 68.6813 154.338C70.0211 154.338 75.1889 152.194 76.5704 151.603C77.952 151.011 78.5088 149.699 78.0529 149.25C77.597 148.801 77.329 148.673 75.3176 148.537C73.3062 148.401 71.2286 148.398 70.644 147.9" stroke="#263238" stroke-miterlimit="10"/>
<path d="M65.6606 152.946C66.7228 153.485 67.9384 153.641 69.1023 153.388C70.9467 152.939 77.3639 151.004 78.0529 149.261" stroke="#263238" stroke-miterlimit="10"/>
<path d="M56.1115 144.824C56.1115 144.824 55.4503 147.037 55.5756 147.903C55.7009 148.77 55.5408 149.73 57.0337 149.911C58.5266 150.092 59.3131 148.519 59.6576 148.245C60.0021 147.97 62.0136 147.016 62.5495 145.92C62.7786 145.493 62.8359 144.995 62.7096 144.528C62.5182 143.954 62.1006 143.978 61.5786 144.065C60.9164 144.186 60.2631 144.351 59.6228 144.559" stroke="#263238" stroke-miterlimit="10"/>
<path d="M55.6591 149.01C56.3099 149.243 57.0233 149.48 57.681 149.268C58.4501 149.021 58.9025 148.245 59.5393 147.75C59.7725 147.573 60.03 147.43 60.2806 147.274C60.8783 146.924 61.4049 146.465 61.8326 145.92C62.2433 145.363 62.5112 144.904 62.4799 144.215" stroke="#263238" stroke-miterlimit="10"/>
<path d="M89.4534 71.166C89.4534 71.166 89.7805 69.7288 90.8454 69.426C91.9102 69.1233 92.2965 69.8227 92.7977 69.4643C93.2988 69.1059 93.7825 67.7243 94.1897 67.4041C94.5968 67.084 95.2058 66.5028 95.5817 66.5411C95.9575 66.5794 95.1536 67.6095 95.1536 67.6095C95.1536 67.6095 95.9575 67.5642 95.8775 67.8879C95.8045 68.1311 95.7029 68.3647 95.5747 68.5839C95.9825 68.4011 96.3503 68.1398 96.657 67.8148C97.1303 67.2928 97.7567 66.6142 98.5466 67.0805C98.5466 67.0805 99.0199 67.3137 98.7972 67.6199C98.5745 67.9261 97.9098 70.0072 97.0572 70.5153C96.2046 71.0233 94.9379 71.0616 94.2105 71.1556C93.4832 71.2495 90.6644 73.1705 90.6644 73.1705L89.4742 71.7785L89.4534 71.166Z" fill="white"/>
<path d="M90.7097 73.1809C91.5657 72.3075 92.4497 71.9247 93.4937 71.4061C94.1897 71.0581 95.0422 71.2008 95.8148 71.1069C96.817 70.9885 97.2869 70.3482 97.7567 69.5061C98.1255 68.8344 98.4213 67.9261 98.9572 67.4494C98.6711 67.3826 98.3726 67.391 98.0907 67.4737C97.5653 67.6547 97.172 68.2254 96.7927 68.7091C96.4295 69.1881 95.916 69.5312 95.3346 69.6835C95.2854 69.7029 95.2307 69.7029 95.1815 69.6835C95.0457 69.607 95.1153 69.3599 95.2023 69.2103L95.787 68.2219C95.8231 68.1764 95.8489 68.1236 95.8627 68.0671C95.8766 68.0107 95.878 67.9519 95.867 67.8948C95.8218 67.7556 95.6617 67.7487 95.519 67.7765C94.9193 67.9091 94.3671 68.2027 93.9217 68.6256C93.525 68.9736 93.1422 69.4782 92.6445 69.4887C92.4063 69.4653 92.1722 69.4103 91.9485 69.3251C91.6364 69.2543 91.3111 69.2672 91.0055 69.3625C90.7 69.4578 90.425 69.6322 90.2085 69.868C89.7353 70.3587 89.3838 70.8389 89.4116 71.608" stroke="#263238" stroke-linecap="round" stroke-linejoin="round"/>
<path d="M98.651 67.345C98.651 67.1536 98.4909 67.0353 98.3413 66.997C98.1841 66.9448 98.0177 66.9262 97.8528 66.9424C97.688 66.9586 97.5283 67.0092 97.3843 67.0909C97.175 67.242 96.9886 67.4225 96.831 67.6269C96.4055 68.1089 95.9308 68.5451 95.4146 68.9284" stroke="#263238" stroke-linecap="round" stroke-linejoin="round"/>
<path d="M93.2918 69.1093C93.8486 68.3472 94.1618 67.3693 94.9135 66.816C95.1003 66.6629 95.3276 66.5674 95.5677 66.5411C95.5798 66.5359 95.5929 66.5333 95.606 66.5333C95.6192 66.5333 95.6322 66.5359 95.6443 66.5411C95.6687 66.5689 95.6443 66.6142 95.6443 66.649C95.4251 67.077 95.2023 67.4981 94.9727 67.9227L95.004 67.86" stroke="#263238" stroke-linecap="round" stroke-linejoin="round"/>
<path d="M90.828 73.5742C90.5983 73.9814 83.266 87.0522 81.9992 87.8039C80.7325 88.5556 80.6455 88.2668 79.7686 87.8318C78.8916 87.3968 72.9582 81.1745 72.9582 81.1745L72.384 83.8089L71.0372 89.8815L74.9801 100.04C71.0964 102.792 64.5157 103.3 64.5157 103.3L63.0506 97.5201L60.3432 102.771C58.6656 102.475 57.0443 101.92 55.5373 101.125C54.3716 100.542 53.2493 99.8755 52.1791 99.1313L55.9584 90.0833C54.8412 90.8111 53.5333 91.1913 52.2 91.176C50.7282 91.1387 49.3029 90.6531 48.1145 89.784C48.164 86.9824 48.4398 84.1893 48.9392 81.432C49.6352 77.3639 50.547 73.8596 50.8358 73.2192C51.3196 72.1474 54.1592 68.9319 54.1592 68.9319C55.513 68.1245 58.4536 67.6686 58.4536 67.6686L57.942 64.8846C58.5904 64.5976 59.2775 64.4077 59.9813 64.3209C60.633 64.2391 61.2923 64.2391 61.944 64.3209C62.0588 64.3209 62.1737 64.3487 62.292 64.3696C63.9019 64.6458 65.4345 65.2615 66.7882 66.1757V68.1837C69.4016 68.6639 73.4176 71.0338 74.3815 71.8203C75.3455 72.6068 80.2488 80.04 80.2488 80.04L88.9871 71.1765L90.828 73.5742Z" fill="#209E52"/>
<path opacity="0.2" d="M91.0437 73.8143C90.8141 74.2215 83.4817 87.2889 82.2185 88.0406C80.9552 88.7922 80.8613 88.5034 79.9878 88.0684C79.1143 87.6334 73.1774 81.432 73.1774 81.432L75.0253 73.428C75.0253 73.428 79.9913 81.0527 81.0596 84.0351L91.0437 73.8143Z" fill="black"/>
<path opacity="0.2" d="M62.292 64.3313V67.7591C62.292 67.7591 57.8028 70.4283 57.0476 71.9873C56.2925 73.5463 57.2112 85.2739 61.2724 89.5265L59.5324 89.3629L55.5234 101.125C54.3577 100.542 53.2354 99.8755 52.1652 99.1313L55.9445 90.0833C54.8312 90.8084 53.5285 91.1886 52.2 91.176C52.4158 90.3443 54.2567 82.7022 48.9427 81.432C49.6387 77.3639 50.5505 73.8595 50.8393 73.2192C51.323 72.1474 54.1627 68.9319 54.1627 68.9319C55.5164 68.1245 58.457 67.6686 58.457 67.6686L57.9455 64.8846C58.5939 64.5976 59.281 64.4076 59.9848 64.3209L62.292 64.3313Z" fill="black"/>
<path d="M66.7325 51.2639C66.7325 51.2639 68.3611 51.9599 68.6221 53.2753C68.8831 54.5908 69.0815 55.9723 69.8123 56.5187C70.5431 57.065 70.9189 57.2669 70.6579 57.7262C70.5483 57.9356 70.4202 58.1348 70.2751 58.3213C70.2751 58.3213 70.9468 62.8453 70.1638 63.3986C69.3808 63.952 67.2962 62.7757 67.2962 62.7757C66.9318 62.9442 66.6164 63.2031 66.3801 63.5277C66.1438 63.8523 65.9943 64.232 65.946 64.6306C65.7685 66.0226 65.9216 65.5806 65.9216 65.5806C65.9216 65.5806 62.7444 64.032 59.508 64.5679L59.6263 60.5137C59.6263 60.5137 61.8396 50.0668 66.7325 51.2639Z" fill="white"/>
<path d="M68.2567 56.2229C68.2985 56.5361 68.2184 56.8075 68.0792 56.8249C67.94 56.8423 67.7904 56.6057 67.7486 56.289C67.7069 55.9723 67.7869 55.7079 67.9261 55.687C68.0653 55.6661 68.208 55.9097 68.2567 56.2229Z" fill="#263238"/>
<path d="M65.3057 50.1469C65.3057 50.1469 68.5386 51.9739 68.7648 53.8009C68.991 55.6279 69.3146 56.2716 70.2751 56.8424C71.2356 57.4131 70.2751 58.3214 70.2751 58.3214C70.2751 58.3214 70.7136 62.8976 70.1637 63.3987C69.6139 63.8998 66.6837 63.0333 65.2917 60.9627" stroke="#263238" stroke-linecap="round" stroke-linejoin="round"/>
<path opacity="0.6" d="M64.7976 65.0099L64.8741 67.8322C64.8741 67.8322 70.3308 71.7715 71.9873 73.3201L71.3609 88.1101L74.9522 72.5719C74.9522 72.5719 71.7402 68.904 66.7881 68.208V66.2C66.1689 65.7335 65.5016 65.3345 64.7976 65.0099Z" fill="white"/>
<path d="M67.0805 62.64C66.6168 63.0056 66.2707 63.4993 66.0852 64.0599C65.9557 64.494 65.8741 64.9409 65.8416 65.3927" stroke="#263238" stroke-linecap="round" stroke-linejoin="round"/>
<path d="M65.0134 57.8654C65.0134 57.8654 63.7362 56.5187 63.0785 56.8423C62.4208 57.166 62.0693 58.4188 62.6122 59.9987C63.155 61.5786 64.5296 61.77 65.3057 61.074" stroke="#263238" stroke-linecap="round" stroke-linejoin="round"/>
<path d="M59.6402 62.2676C59.6194 63.0298 59.5846 63.6979 59.5219 64.4009" stroke="#263238" stroke-linecap="round" stroke-linejoin="round"/>
<path d="M65.0133 57.8655C65.0133 57.8655 68.1453 55.5547 67.8843 52.1026C67.8843 52.1026 66.1687 49.1829 62.0553 49.1829C57.942 49.1829 56.1393 50.6236 55.5164 53.6164C54.8935 56.6092 54.5768 60.7713 57.0894 62.2677C59.6019 63.7641 62.1702 62.6157 62.807 60.4929C62.807 60.4929 61.5855 58.0569 62.7827 57.0755C63.684 56.3377 65.0133 57.8655 65.0133 57.8655Z" fill="#263238"/>
<path d="M58.3944 67.4563L57.7924 64.895C57.7924 64.895 62.894 63.0332 66.7812 66.1861V68.0758" stroke="#263238" stroke-linecap="round" stroke-linejoin="round"/>
<path d="M71.0337 89.53L74.9801 100.04C74.9801 100.04 69.7601 103.172 64.5122 103.3L63.0506 97.5201L60.3397 102.768C57.7958 102.128 54.7299 101.661 52.1756 99.1313L56.2437 89.9093L50.5052 73.6438L54.1592 68.9319C54.1592 68.9319 57.4965 66.729 64.8741 67.8322C72.2517 68.9354 74.9661 72.4502 74.9661 72.4502L71.0337 89.53Z" stroke="#263238" stroke-linecap="round" stroke-linejoin="round"/>
<path d="M71.0337 89.53C71.0337 89.53 69.3981 90.3234 66.7255 89.53" stroke="#263238" stroke-linecap="round" stroke-linejoin="round"/>
<path d="M66.5411 90.828C67.9648 90.9861 69.3968 90.6145 70.564 89.784" stroke="#263238" stroke-linecap="round" stroke-linejoin="round"/>
<g opacity="0.3">
<path d="M56.6613 52.5724C57.2321 51.9425 58.0847 51.6571 58.9129 51.4553C59.9693 51.1562 61.0769 51.0839 62.1632 51.243C62.7051 51.3267 63.222 51.528 63.6777 51.8328C64.1334 52.1376 64.5168 52.5385 64.8011 53.0074" stroke="white" stroke-linecap="round" stroke-linejoin="round"/>
<path d="M56.5117 53.6895C56.7867 54.859 57.3977 55.9227 58.2696 56.7494C59.1414 57.5761 60.236 58.1297 61.4185 58.3422" stroke="white" stroke-linecap="round" stroke-linejoin="round"/>
</g>
<path d="M74.9801 72.4501L80.2488 80.04C80.2488 80.04 81.2336 82.6674 80.6873 85.1835" stroke="#263238" stroke-linecap="round" stroke-linejoin="round"/>
<path d="M80.2488 80.04L88.9836 71.1765L90.8384 73.5846C90.8384 73.5846 86.2622 83.3286 82.0027 87.8213C81.8586 87.9705 81.6864 88.0897 81.4959 88.172C81.3055 88.2543 81.1006 88.2979 80.8932 88.3005C80.6857 88.3031 80.4799 88.2646 80.2874 88.1871C80.095 88.1096 79.9198 87.9947 79.772 87.8491L72.9617 81.1919" stroke="#263238" stroke-linecap="round" stroke-linejoin="round"/>
<path d="M50.5052 73.6438C50.5052 73.6438 47.9161 84.2334 48.1179 89.7701C48.1179 89.7701 51.6675 93.017 56.2437 89.9093" stroke="#263238" stroke-linecap="round" stroke-linejoin="round"/>
<path d="M54.4794 84.912C54.2822 86.0957 53.8528 87.2287 53.2162 88.2458" stroke="#263238" stroke-linecap="round" stroke-linejoin="round"/>
<path d="M54.8204 55.0467C54.4705 55.9946 54.2937 56.9977 54.2984 58.0082C54.114 62.6505 54.7961 67.2893 54.6882 71.9282C54.6499 73.5255 54.5072 75.1646 53.8251 76.6088C53.1431 78.053 51.8346 79.2918 50.2477 79.4867C49.4917 79.5552 48.7299 79.4554 48.017 79.1944C46.92 78.8421 45.9323 78.2129 45.1495 77.3674C44.3007 76.3688 43.7379 75.1591 43.5209 73.8665C43.2078 72.2222 43.3119 70.5256 43.8236 68.9319C44.8154 65.8451 47.2201 63.4474 48.8244 60.6286C49.6127 59.2364 50.2052 57.7422 50.5853 56.1881C50.888 54.9388 51.1212 53.5398 52.1269 52.736C52.8144 52.2408 53.6623 52.0211 54.5037 52.12C55.0779 52.1652 56.5221 52.2209 56.369 53.07C56.2577 53.679 55.1093 54.3681 54.8204 55.0467Z" fill="#263238"/>
<g opacity="0.3">
<path d="M55.5721 53.418C54.5735 53.6153 53.6847 54.1788 53.0804 54.9979C52.6043 55.7065 52.2666 56.4988 52.0851 57.333C50.6305 62.901 51.5318 68.817 50.547 74.4616C50.2477 76.1738 49.7118 77.966 48.3824 79.083" stroke="white" stroke-linecap="round" stroke-linejoin="round"/>
<path d="M48.3894 66.2488C48.6225 65.9008 48.8661 65.5528 49.1097 65.2048C49.2594 64.996 49.416 64.7802 49.5621 64.561" stroke="white" stroke-linecap="round" stroke-linejoin="round"/>
<path d="M46.284 77.6319C45.3235 75.6204 45.3479 73.2366 45.9777 71.0999C46.283 70.0844 46.696 69.1044 47.2097 68.1767" stroke="white" stroke-linecap="round" stroke-linejoin="round"/>
</g>
<path d="M116.082 77.2977C116.32 76.319 116.249 75.2909 115.881 74.3537C115.425 73.3868 114.918 72.4448 114.363 71.5314C114.363 71.5314 114.492 69.339 113.932 68.5873C113.371 67.8356 111.628 65.1073 111.217 65.0899C110.807 65.0725 110.869 66.9517 111.565 68.201L111.451 69.0501C111.451 69.0501 108.809 67.6895 108.016 67.3728C107.222 67.0561 105.232 66.1687 104.804 66.5654C104.376 66.9621 107.469 68.0375 108.016 68.9109C108.016 68.9109 103.102 68.3959 103.192 69.0501C103.283 69.7044 104.95 69.8053 104.95 69.8053C104.95 69.8053 104.435 69.8993 104.578 70.3064C104.72 70.7136 108.322 71.5314 108.322 71.5314C109.279 72.9921 110.656 74.1288 112.272 74.7921C115.028 75.9475 116.082 77.2977 116.082 77.2977Z" fill="white"/>
<path d="M116.451 77.002C116.399 74.2563 114.363 71.5314 114.363 71.5314C114.363 71.5314 114.534 69.0954 113.605 68.1001C113.443 67.9283 113.291 67.7483 113.149 67.5607C113.006 67.3798 112.863 67.1849 112.721 66.9865C112.063 66.0783 111.457 65.1247 111.217 65.0899C110.908 65.0447 111.002 66.7603 111.322 67.5538C111.356 67.6422 111.4 67.7264 111.454 67.8043C111.534 67.9211 111.576 68.0595 111.576 68.201C111.6 68.8031 111.144 69.6418 111.614 70.4143" stroke="#263238" stroke-linecap="round" stroke-linejoin="round"/>
<path d="M111.461 69.0501C111.461 69.0501 105.601 65.7824 104.588 66.7394C104.588 66.7394 107.72 68.2393 108.026 68.9109" stroke="#263238" stroke-linecap="round" stroke-linejoin="round"/>
<path d="M109.112 70.4665C109.112 70.4665 105.545 69.3494 104.588 69.9341C103.631 70.5187 108.332 71.5314 108.332 71.5314C108.332 71.5314 110.02 74.0579 111.217 73.9152" stroke="#263238" stroke-linecap="round" stroke-linejoin="round"/>
<path d="M104.588 69.948C104.588 69.948 103.151 69.7218 103.196 69.064C103.241 68.4063 107.72 68.368 109.477 69.506" stroke="#263238" stroke-linecap="round" stroke-linejoin="round"/>
<path d="M111.454 67.8043C111.534 67.921 111.576 68.0594 111.576 68.201L107.716 69.7774C107.631 69.8125 107.535 69.8122 107.45 69.7767C107.365 69.7411 107.297 69.6731 107.262 69.5878C107.227 69.5024 107.228 69.4066 107.263 69.3214C107.299 69.2363 107.367 69.1687 107.452 69.1336L111.322 67.5537C111.356 67.6422 111.4 67.7263 111.454 67.8043Z" fill="#263238"/>
<path d="M115.247 66.7046L113.159 67.5607C113.017 67.3797 112.874 67.1849 112.731 66.9865L114.997 66.0608C115.081 66.0326 115.172 66.0375 115.253 66.0745C115.333 66.1115 115.397 66.1779 115.43 66.26C115.463 66.3421 115.464 66.4338 115.432 66.5164C115.4 66.5991 115.338 66.6664 115.258 66.7046H115.247Z" fill="#263238"/>
<path d="M114.927 73.4732L104.365 74.7295L101.035 77.6214L109.018 93.0308L120.582 92.2478L121.4 88.4337L114.927 73.4732Z" fill="white"/>
<path d="M114.927 73.4732L113.605 76.1145L120.582 92.2478L121.4 88.4337L114.927 73.4732Z" fill="#263238"/>
<path opacity="0.9" d="M114.927 73.4732L113.605 76.1145L120.582 92.2478L121.4 88.4337L114.927 73.4732Z" fill="white"/>
<path d="M101.035 77.6214L113.605 76.1146L120.582 92.2478L109.018 93.0308L101.035 77.6214Z" fill="#263238"/>
<path opacity="0.6" d="M101.035 77.6214L113.605 76.1146L120.582 92.2478L109.018 93.0308L101.035 77.6214Z" fill="white"/>
<path d="M113.605 76.1146L101.035 77.6214L109.018 93.0308L120.582 92.2478L113.605 76.1146Z" stroke="#263238" stroke-linecap="round" stroke-linejoin="round"/>
<path d="M113.605 76.1145L114.927 73.4732" stroke="#263238" stroke-linecap="round" stroke-linejoin="round"/>
<path d="M120.582 92.2478L121.4 88.4337L114.927 73.4732L104.365 74.7295L101.035 77.6214" stroke="#263238" stroke-linecap="round" stroke-linejoin="round"/>
<path d="M109.14 86.7459C109.14 86.7459 108.684 84.4874 107.435 83.9619C106.185 83.4364 102.357 83.8262 102.215 84.6022C102.072 85.3783 103.527 86.2309 103.527 86.2309C103.527 86.2309 103.314 88.7956 104.71 89.7422C106.105 90.6888 108.538 90.2538 108.538 90.2538L109.804 90.5774L110.5 86.913L109.14 86.7459Z" fill="white"/>
<path d="M109.62 86.652L109.126 86.7424C109.126 86.7424 108.611 84.0768 107.208 83.8436C105.806 83.6104 102.061 83.9376 102.204 84.8702C102.347 85.8029 103.513 86.2274 103.513 86.2274C103.513 86.2274 103.464 89.3142 104.964 89.8745C106.464 90.4347 108.517 90.2503 108.517 90.2503C108.284 90.1459 108.708 90.3025 109.195 90.4243" stroke="#263238" stroke-linecap="round" stroke-linejoin="round"/>
<path d="M140.623 144.573L140.808 148.892C140.808 148.892 137.752 150.761 136.332 150.284C134.913 149.807 130.326 147.381 130.326 147.381C130.326 147.381 130.117 144.9 132.915 144.945C135.713 144.991 139.569 146.494 139.569 146.494L140.623 144.573Z" fill="#209E52"/>
<path opacity="0.2" d="M140.623 144.573L140.808 148.892C140.808 148.892 137.752 150.761 136.332 150.284C134.913 149.807 130.326 147.381 130.326 147.381C130.326 147.381 130.117 144.9 132.915 144.945C135.713 144.991 139.569 146.494 139.569 146.494L140.623 144.573Z" fill="black"/>
<path d="M131.617 145.551C132.543 146.067 133.506 146.512 134.499 146.884C135.006 147.076 135.547 147.165 136.089 147.145L136.524 146.842L137.129 146.539L137.338 145.871L135.567 145.495C135.567 145.495 132.912 145.019 131.617 145.551Z" fill="white"/>
<path d="M130.587 146.372L130.326 147.381C130.326 147.381 133.841 149.873 135.845 150.165C137.85 150.458 140.808 148.895 140.808 148.895L140.78 148.244C140.78 148.244 138.977 149.271 137.3 149.344C135.623 149.417 130.587 146.372 130.587 146.372Z" fill="white"/>
<path d="M137.394 145.725C137.394 145.725 133.138 145.151 131.708 145.523C130.277 145.896 130.316 147.381 130.316 147.381C130.316 147.381 135.188 150.687 137.182 150.319C138.461 150.057 139.684 149.574 140.797 148.892V144.319" stroke="#263238" stroke-linecap="round" stroke-linejoin="round"/>
<path d="M130.587 146.372C130.587 146.372 135.619 149.403 137.31 149.341C139.002 149.278 140.808 147.994 140.808 147.994" stroke="#263238" stroke-linecap="round" stroke-linejoin="round"/>
<path d="M131.506 145.701C133.04 145.948 133.879 147.152 135.428 147.221C135.845 147.235 136.258 147.134 136.622 146.929C136.986 146.724 137.287 146.423 137.491 146.059" stroke="#263238" stroke-linecap="round" stroke-linejoin="round"/>
<path d="M122.976 146.738L122.844 152.88C122.844 152.88 119.454 153.722 117.575 153.016C115.696 152.309 111.83 147.333 111.83 147.333C111.83 147.333 112.985 145.081 115.449 146.024C117.913 146.967 121.268 148.596 121.268 148.596L122.976 146.738Z" fill="#209E52"/>
<path opacity="0.2" d="M122.976 146.738L122.844 152.88C122.844 152.88 119.454 153.722 117.575 153.016C115.696 152.309 111.83 147.333 111.83 147.333C111.83 147.333 112.985 145.081 115.449 146.024C117.913 146.967 121.268 148.596 121.268 148.596L122.976 146.738Z" fill="black"/>
<path d="M111.833 147.333L112.244 146.539C112.244 146.539 114.589 149.028 115.125 149.546C115.661 150.065 117.213 151.571 118.55 152.038C119.886 152.504 122.67 152.013 122.67 152.013L122.847 152.88C122.847 152.88 118.731 153.534 117.77 153.089C116.81 152.643 112.898 149.09 111.833 147.333Z" fill="white"/>
<path d="M113.869 145.725C113.869 145.725 115.435 147.009 115.957 147.465C116.479 147.921 117.373 148.627 118.24 148.606C118.88 148.538 119.494 148.319 120.032 147.966L117.902 147.013C117.902 147.013 114.934 145.426 113.869 145.725Z" fill="white"/>
<path d="M118.358 147.333C118.358 147.333 115.696 145.791 113.987 145.728C112.279 145.666 111.833 147.333 111.833 147.333C111.833 147.333 116.009 153.005 118.358 153.249C119.865 153.386 121.385 153.258 122.847 152.869L122.976 147.806" stroke="#263238" stroke-linecap="round" stroke-linejoin="round"/>
<path d="M112.286 146.487C112.286 146.487 116.556 151.509 118.313 151.982C120.07 152.455 122.872 151.982 122.872 151.982" stroke="#263238" stroke-linecap="round" stroke-linejoin="round"/>
<path d="M113.448 145.781C114.177 145.946 114.839 146.327 115.348 146.873C115.852 147.417 116.423 147.896 117.046 148.297C117.697 148.645 118.55 148.76 119.159 148.338" stroke="#263238" stroke-linecap="round" stroke-linejoin="round"/>
<path d="M122.402 52.2522C122.402 52.2522 119.966 54.4098 119.74 55.8784C119.514 57.3469 120.297 59.066 120.231 59.7064C120.164 60.3467 118.915 61.6308 119.131 62.0206C119.415 62.4199 119.742 62.7874 120.105 63.1168C120.105 63.1168 119.956 66.2696 121.845 67.4006L122.722 67.606L126.672 65.4553L127.291 66.1513L132.971 65.1073C132.547 64.237 132.303 63.2901 132.254 62.3233C132.174 60.7121 132.971 57.6079 132.971 57.6079L131.373 54.288L122.402 52.2522Z" fill="white"/>
<path d="M136.541 93.0308L138.588 101.184C138.588 101.184 136.997 102.006 134.833 103.039C130.952 104.894 125.224 107.438 123.474 107.215C120.749 106.839 114.363 100.203 114.363 100.203L118.254 91.7397C118.254 91.7397 110.107 91.9903 108.538 91.4648C108.538 91.4648 108.106 88.3328 109.216 85.6532L119.093 86.1439L119.19 85.3052C119.19 85.3052 121.233 78.0772 122.472 75.2724C123.711 72.4675 125.103 69.948 125.103 69.948L127.594 68.114L126.898 66.2348C126.898 66.2348 129.804 64.105 132.926 64.1746C133.972 64.1841 134.995 64.4854 135.88 65.0446L135.299 67.0213C135.299 67.0213 140.648 73.2853 141.465 75.4011C142.283 77.517 138.42 88.6321 136.541 93.0308Z" fill="#209E52"/>
<path opacity="0.2" d="M117.474 93.4171L124.64 94.656C124.64 94.656 129.23 90.6922 130.841 80.736C130.841 80.736 127.417 89.2132 124.678 91.423L118.254 91.698L117.474 93.4171Z" fill="black"/>
<path opacity="0.2" d="M136.541 93.0308L138.588 101.184C138.588 101.184 136.959 101.814 134.794 102.848C134.334 100.485 133.737 98.1505 133.006 95.8566C132.927 95.5466 132.791 95.2539 132.605 94.9936C132.395 94.6563 132.124 94.3613 131.805 94.1236C130.907 93.619 129.675 92.6306 129.143 91.7467C130.733 92.0704 132.623 92.829 134.241 92.7455C134.445 92.756 134.646 92.6944 134.808 92.5715C134.916 92.4473 134.987 92.2954 135.014 92.133C135.691 89.523 136.367 86.9153 137.042 84.31C137.317 83.4283 137.465 82.512 137.481 81.5886C137.446 80.4263 137.001 79.3196 136.559 78.2408C135.44 75.5125 134.312 72.7888 133.173 70.0698C133.042 69.664 132.801 69.3025 132.477 69.0258C132.179 68.8437 131.843 68.734 131.495 68.7056C130.305 68.5247 128.795 68.1523 127.591 68.1071C128.955 66.9726 130.952 66.4958 132.71 66.2662C132.89 65.5857 132.956 64.8802 132.905 64.1782C133.951 64.1876 134.975 64.4889 135.859 65.0482L135.278 67.0248C135.278 67.0248 140.627 73.2888 141.445 75.4046C142.262 77.5205 138.42 88.6321 136.541 93.0308Z" fill="black"/>
<path d="M122.186 58.3109C122.232 58.631 122.148 58.9059 122.005 58.9233C121.863 58.9407 121.71 58.7006 121.657 58.3805C121.605 58.0603 121.699 57.7854 121.842 57.768C121.984 57.7506 122.148 57.9907 122.186 58.3109Z" fill="#263238"/>
<path d="M128.589 61.4568L130.542 60.9209C130.542 60.9209 131.032 58.8329 130.813 57.5905C130.594 56.3481 128.927 56.2437 128.426 56.282C127.925 56.3203 128.015 58.1821 128.015 58.1821" stroke="#263238" stroke-linecap="round" stroke-linejoin="round"/>
<path d="M121.598 52.8264L119.74 55.8783C119.594 56.1155 119.545 56.3992 119.601 56.6718L120.231 59.7202C120.261 59.8735 120.259 60.0315 120.225 60.1839C120.19 60.3363 120.123 60.4795 120.029 60.6042C119.681 61.0566 119.166 61.7769 119.131 62.0344C119.096 62.292 119.444 62.539 119.74 62.7304C119.867 62.8129 119.976 62.9212 120.058 63.0483C120.141 63.1754 120.196 63.3184 120.22 63.4682C120.387 64.46 120.46 65.4657 121.16 66.5619C122.075 67.9992 123.223 67.5502 123.223 67.5502L126.703 65.4622C126.978 65.2848 127.793 62.3859 127.793 62.3859" stroke="#263238" stroke-linecap="round" stroke-linejoin="round"/>
<path d="M120.85 56.5987C120.85 56.5987 121.96 55.2589 123.025 56.6857" stroke="#263238" stroke-linecap="round" stroke-linejoin="round"/>
<path d="M121.452 63.3986C121.452 63.3986 124.295 61.5473 124.72 60.6146C124.72 60.6146 124.953 63.3325 123.832 63.8162C122.712 64.2999 121.452 63.3986 121.452 63.3986Z" fill="#263238"/>
<path d="M132.616 64.1747C132.616 64.1747 131.875 61.77 132.306 60.1657" stroke="#263238" stroke-linecap="round" stroke-linejoin="round"/>
<path d="M115.574 101.397C115.574 101.397 115.456 111.959 116.333 125.238C117.21 138.518 118.463 148.164 118.463 148.164C118.463 148.164 121.344 150.545 123.599 148.164L127.483 113.712L136.252 145.784C136.252 145.784 137.992 147.319 139.489 146.567C140.408 146.089 141.158 145.34 141.636 144.42C141.636 144.42 137.665 109.749 137.665 101.616C137.665 101.616 125.099 107.473 123.47 107.222C121.842 106.972 115.574 101.397 115.574 101.397Z" fill="#263238"/>
<path d="M127.483 113.712V111.44L130.632 109.895" stroke="white" stroke-linecap="round" stroke-linejoin="round"/>
<path d="M130.632 92.2478C130.632 92.2478 132.452 93.5528 136.019 93.8138" stroke="#263238" stroke-linecap="round" stroke-linejoin="round"/>
<path d="M130.632 93.8138C132.139 94.2313 133.73 94.2313 135.236 93.8138" stroke="#263238" stroke-linecap="round" stroke-linejoin="round"/>
<path d="M127.984 57.4965C127.744 57.3086 128.242 59.3966 126.877 59.494C126.736 59.5269 126.588 59.527 126.447 59.4945C126.305 59.4619 126.173 59.3975 126.06 59.3061C125.871 59.0677 125.737 58.791 125.666 58.4953C125.43 57.7297 125.19 56.9641 124.953 56.1985C124.796 55.7043 124.605 55.1545 124.191 54.8726C123.876 54.7016 123.539 54.5773 123.189 54.5037C122.406 54.2566 121.664 53.6268 121.609 52.809C121.609 52.809 118.539 53.0804 118.069 51.8937C117.353 50.0841 118.501 49.2907 120.074 49.3046C121.647 49.3185 123.095 50.0632 124.789 49.489C126.484 48.9148 130.131 47.488 130.897 49.2385C130.897 49.2385 132.219 48.6538 133.009 50.8497C133.799 53.0456 135.616 57.4617 133.963 58.8224C132.31 60.1831 132.696 61.0183 131.913 60.9104C131.13 60.8025 130.897 59.6193 130.897 59.6193C130.897 59.6193 131.314 56.8353 129.547 56.3968C127.779 55.9584 127.984 57.4965 127.984 57.4965Z" fill="#263238"/>
<path d="M129.895 47.6133C130.23 47.7765 130.495 48.0556 130.641 48.3991C130.787 48.7426 130.804 49.1273 130.688 49.4821" stroke="#263238" stroke-linecap="round" stroke-linejoin="round"/>
<path opacity="0.6" d="M127.594 68.0305L127.023 66.1965L128.889 65.1978L129.362 67.1674L127.594 68.0305Z" fill="white"/>
<path d="M130.897 49.2385C131.295 48.9789 131.774 48.8712 132.246 48.9351C132.717 48.999 133.15 49.2302 133.465 49.5865" stroke="#263238" stroke-linecap="round" stroke-linejoin="round"/>
<path d="M127.535 67.9435L126.881 66.2035C126.881 66.2035 129.665 64.4635 132.484 64.1782C133.705 64.0494 134.693 64.6306 135.87 65.0168L135.289 66.9935" stroke="#263238" stroke-linecap="round" stroke-linejoin="round"/>
<path d="M118.254 91.7224L114.363 100.186C116.211 102.521 122.604 106.86 123.474 107.198C124.344 107.535 138.588 101.184 138.588 101.184L136.545 93.0308C136.545 93.0308 142.576 78.4914 141.636 75.8327C140.696 73.174 135.469 66.8195 134.401 66.2348C133.333 65.6502 130.629 66.6246 130.629 66.6246C130.629 66.6246 126.818 68.1245 125.471 69.4712C124.125 70.818 120.947 78.4705 120.307 81.787" stroke="#263238" stroke-linecap="round" stroke-linejoin="round"/>
<path d="M119.093 86.1265L109.216 85.6358C107.765 89.1158 108.541 91.4474 108.541 91.4474C111.447 92.1434 124.678 91.4474 124.678 91.4474C127.733 88.3432 131.374 79.5214 131.374 79.5214C131.571 77.5924 131.172 75.6492 130.232 73.9534" stroke="#263238" stroke-linecap="round" stroke-linejoin="round"/>
<path opacity="0.6" d="M127.594 71.3052L126.898 73.4732C126.898 73.4732 118.964 84.9155 119.162 87.1496C119.162 87.1496 119.023 86.0569 120.439 81.425C121.437 78.3762 122.861 75.4836 124.668 72.8329L127.594 71.3052Z" fill="white"/>
<path d="M119.855 88.9244C119.248 87.9418 118.991 86.7827 119.127 85.6358C119.371 83.7427 122.11 76.7096 124.678 72.8329L128.008 71.0929" stroke="#263238" stroke-linecap="round" stroke-linejoin="round"/>
<path d="M127.128 66.0504L126.686 65.4553" stroke="#263238" stroke-linecap="round" stroke-linejoin="round"/>
</svg>
